<svg width="216" height="159" viewBox="0 0 216 159" fill="none" xmlns="http://www.w3.org/2000/svg">
<g filter="url(#filter0_d_108_2596)">
<rect x="8" y="40" width="98.4" height="78.299" rx="6.4" fill="white" shape-rendering="crispEdges"/>
<g clip-path="url(#clip0_108_2596)">
<path d="M21.9998 50.2C21.7625 50.2 21.5305 50.2703 21.3331 50.4022C21.1358 50.534 20.982 50.7215 20.8911 50.9407C20.8003 51.16 20.7766 51.4013 20.8229 51.6341C20.8692 51.8668 20.9835 52.0807 21.1513 52.2485C21.3191 52.4163 21.5329 52.5306 21.7657 52.5769C21.9985 52.6232 22.2398 52.5994 22.459 52.5086C22.6783 52.4178 22.8657 52.264 22.9976 52.0666C23.1294 51.8693 23.1998 51.6373 23.1998 51.4C23.1998 51.0817 23.0734 50.7765 22.8483 50.5514C22.6233 50.3264 22.3181 50.2 21.9998 50.2ZM21.9998 54.2C21.7625 54.2 21.5305 54.2703 21.3331 54.4022C21.1358 54.534 20.982 54.7215 20.8911 54.9407C20.8003 55.16 20.7766 55.4013 20.8229 55.6341C20.8692 55.8668 20.9835 56.0807 21.1513 56.2485C21.3191 56.4163 21.5329 56.5306 21.7657 56.5769C21.9985 56.6232 22.2398 56.5994 22.459 56.5086C22.6783 56.4178 22.8657 56.264 22.9976 56.0666C23.1294 55.8693 23.1998 55.6373 23.1998 55.4C23.1998 55.0817 23.0734 54.7765 22.8483 54.5514C22.6233 54.3264 22.3181 54.2 21.9998 54.2ZM21.9998 58.2C21.7625 58.2 21.5305 58.2703 21.3331 58.4022C21.1358 58.534 20.982 58.7215 20.8911 58.9407C20.8003 59.16 20.7766 59.4013 20.8229 59.6341C20.8692 59.8668 20.9835 60.0807 21.1513 60.2485C21.3191 60.4163 21.5329 60.5306 21.7657 60.5769C21.9985 60.6232 22.2398 60.5994 22.459 60.5086C22.6783 60.4178 22.8657 60.264 22.9976 60.0666C23.1294 59.8693 23.1998 59.6373 23.1998 59.4C23.1998 59.0817 23.0734 58.7765 22.8483 58.5514C22.6233 58.3264 22.3181 58.2 21.9998 58.2ZM33.1998 58.6H25.1998C25.0937 58.6 24.992 58.6421 24.917 58.7171C24.8419 58.7921 24.7998 58.8939 24.7998 59V59.8C24.7998 59.906 24.8419 60.0078 24.917 60.0828C24.992 60.1578 25.0937 60.2 25.1998 60.2H33.1998C33.3059 60.2 33.4076 60.1578 33.4826 60.0828C33.5577 60.0078 33.5998 59.906 33.5998 59.8V59C33.5998 58.8939 33.5577 58.7921 33.4826 58.7171C33.4076 58.6421 33.3059 58.6 33.1998 58.6ZM33.1998 50.6H25.1998C25.0937 50.6 24.992 50.6421 24.917 50.7171C24.8419 50.7921 24.7998 50.8939 24.7998 51V51.8C24.7998 51.906 24.8419 52.0078 24.917 52.0828C24.992 52.1578 25.0937 52.2 25.1998 52.2H33.1998C33.3059 52.2 33.4076 52.1578 33.4826 52.0828C33.5577 52.0078 33.5998 51.906 33.5998 51.8V51C33.5998 50.8939 33.5577 50.7921 33.4826 50.7171C33.4076 50.6421 33.3059 50.6 33.1998 50.6ZM33.1998 54.6H25.1998C25.0937 54.6 24.992 54.6421 24.917 54.7171C24.8419 54.7921 24.7998 54.8939 24.7998 55V55.8C24.7998 55.906 24.8419 56.0078 24.917 56.0828C24.992 56.1578 25.0937 56.2 25.1998 56.2H33.1998C33.3059 56.2 33.4076 56.1578 33.4826 56.0828C33.5577 56.0078 33.5998 55.906 33.5998 55.8V55C33.5998 54.8939 33.5577 54.7921 33.4826 54.7171C33.4076 54.6421 33.3059 54.6 33.1998 54.6Z" fill="#3F465C"/>
</g>
<path d="M37.2998 52.3499V51.3499H44.1248V52.3499H41.2873V60.3999H40.1498V52.3499H37.2998ZM47.2748 60.5374C45.4248 60.5374 44.1748 59.1499 44.1748 57.0374C44.1748 54.9249 45.4248 53.5249 47.2748 53.5249C49.1123 53.5249 50.3498 54.9249 50.3498 57.0374C50.3498 59.1499 49.1123 60.5374 47.2748 60.5374ZM47.2748 59.5874C48.6373 59.5874 49.2748 58.3874 49.2748 57.0374C49.2748 55.6874 48.6373 54.4749 47.2748 54.4749C45.8873 54.4749 45.2498 55.6874 45.2498 57.0374C45.2498 58.3874 45.8873 59.5874 47.2748 59.5874ZM54.7248 53.6124V54.5124H53.2998V58.4499C53.2998 59.3249 53.7248 59.4624 54.1873 59.4624C54.3873 59.4624 54.6623 59.4499 54.8248 59.4374V60.4374C54.6623 60.4624 54.3873 60.4874 54.0748 60.4874C53.1748 60.4874 52.2123 59.9249 52.2123 58.7249V54.5124H51.1873V53.6124H52.2123V51.9874H53.2998V53.6124H54.7248ZM55.7873 58.4749C55.7873 56.9124 57.1623 56.5624 58.3373 56.4749C58.7686 56.4437 59.8686 56.3874 60.1748 56.3749V55.8249C60.1748 54.9624 59.6623 54.4624 58.6373 54.4624C57.7748 54.4624 57.2623 54.8624 57.1123 55.3749H55.9873C56.1248 54.2874 57.1873 53.5249 58.6873 53.5249C59.5748 53.5249 61.2373 53.7874 61.2373 55.9249V60.3999H60.1748V59.4749H60.1248C59.8998 59.9374 59.2748 60.5624 58.0998 60.5624C56.8123 60.5624 55.7873 59.7999 55.7873 58.4749ZM56.8623 58.5249C56.8623 59.2374 57.4623 59.5999 58.2873 59.5999C59.4998 59.5999 60.1748 58.7874 60.1748 57.9374V57.2499L58.4623 57.3749C57.4873 57.4374 56.8623 57.7874 56.8623 58.5249ZM64.0373 51.3499V60.3999H62.9623V51.3499H64.0373Z" fill="#3F465C"/>
<path d="M80.8121 60.5249C78.9371 60.5124 77.1621 59.3999 77.1621 56.0874C77.1621 53.0374 78.6246 51.2249 80.8871 51.2249C82.7121 51.2249 83.9496 52.3749 84.1371 53.8624H82.2871C82.1371 53.2249 81.6121 52.8374 80.8871 52.8374C79.6621 52.8374 79.0121 53.9499 78.9996 55.7249H79.0871C79.4996 54.9249 80.3996 54.4499 81.3996 54.4499C83.0246 54.4499 84.2371 55.6749 84.2371 57.3749C84.2371 59.2124 82.8496 60.5374 80.8121 60.5249ZM80.7996 59.0374C81.7246 59.0374 82.4121 58.3374 82.4121 57.4249C82.4121 56.5249 81.7496 55.8124 80.8246 55.8124C79.8996 55.8124 79.1996 56.5374 79.1871 57.4249C79.1996 58.3124 79.8746 59.0374 80.7996 59.0374ZM88.8621 60.5249C86.9746 60.5249 85.5996 59.4124 85.5621 57.8499H87.3871C87.4246 58.5624 88.0746 59.0374 88.8621 59.0374C89.7996 59.0374 90.4621 58.3749 90.4621 57.4374C90.4621 56.4749 89.7871 55.8124 88.8371 55.7999C88.1621 55.7999 87.6871 56.0499 87.4121 56.5624H85.7121L86.1996 51.3499H91.7746V52.8874H87.7496L87.4996 55.1749H87.5746C87.9121 54.7249 88.5871 54.4124 89.3871 54.4124C91.0496 54.4124 92.2871 55.6499 92.2871 57.3874C92.2871 59.2124 90.8996 60.5249 88.8621 60.5249Z" fill="#2F6FD6"/>
<g clip-path="url(#clip1_108_2596)">
<path d="M33.4557 83.8892C33.8659 84.6001 33.3511 85.4889 32.5318 85.4889H21.8677C21.0469 85.4889 20.5344 84.5988 20.9437 83.8892L26.2759 74.6441C26.6863 73.9328 27.7141 73.9341 28.1237 74.6441L33.4557 83.8892ZM27.1998 81.9778C26.6353 81.9778 26.1776 82.4354 26.1776 83C26.1776 83.5645 26.6353 84.0222 27.1998 84.0222C27.7644 84.0222 28.222 83.5645 28.222 83C28.222 82.4354 27.7644 81.9778 27.1998 81.9778ZM26.2293 78.3034L26.3941 81.3256C26.4019 81.467 26.5188 81.5778 26.6604 81.5778H27.7392C27.8808 81.5778 27.9978 81.467 28.0055 81.3256L28.1703 78.3034C28.1787 78.1506 28.057 78.0222 27.9041 78.0222H26.4955C26.3426 78.0222 26.221 78.1506 26.2293 78.3034Z" fill="#FF7A7A"/>
</g>
<path d="M37.7998 84.8V75.75H43.2873V76.75H38.9248V79.775H42.9998V80.7625H38.9248V83.8H43.3498V84.8H37.7998ZM44.9248 84.8V78.0125H45.9623V79.05H46.0373C46.2873 78.3625 46.9873 77.9 47.7873 77.9C47.9498 77.9 48.2248 77.9125 48.3498 77.925V79.0125C48.2748 78.9875 47.9748 78.9375 47.6998 78.9375C46.7248 78.9375 45.9998 79.6125 45.9998 80.525V84.8H44.9248ZM49.3998 84.8V78.0125H50.4373V79.05H50.5123C50.7623 78.3625 51.4623 77.9 52.2623 77.9C52.4248 77.9 52.6998 77.9125 52.8248 77.925V79.0125C52.7498 78.9875 52.4498 78.9375 52.1748 78.9375C51.1998 78.9375 50.4748 79.6125 50.4748 80.525V84.8H49.3998ZM56.4248 84.9375C54.5748 84.9375 53.3248 83.55 53.3248 81.4375C53.3248 79.325 54.5748 77.925 56.4248 77.925C58.2623 77.925 59.4998 79.325 59.4998 81.4375C59.4998 83.55 58.2623 84.9375 56.4248 84.9375ZM56.4248 83.9875C57.7873 83.9875 58.4248 82.7875 58.4248 81.4375C58.4248 80.0875 57.7873 78.875 56.4248 78.875C55.0373 78.875 54.3998 80.0875 54.3998 81.4375C54.3998 82.7875 55.0373 83.9875 56.4248 83.9875ZM60.9123 84.8V78.0125H61.9498V79.05H62.0248C62.2748 78.3625 62.9748 77.9 63.7748 77.9C63.9373 77.9 64.2123 77.9125 64.3373 77.925V79.0125C64.2623 78.9875 63.9623 78.9375 63.6873 78.9375C62.7123 78.9375 61.9873 79.6125 61.9873 80.525V84.8H60.9123Z" fill="#3F465C"/>
<path d="M81.6621 84.925C79.6746 84.925 78.2496 83.825 78.2121 82.25H80.1121C80.1496 82.925 80.7996 83.375 81.6746 83.375C82.5746 83.375 83.2246 82.8625 83.2121 82.1375C83.2246 81.4 82.5621 80.875 81.4996 80.875H80.6621V79.4875H81.4996C82.3871 79.4875 83.0121 79 83.0121 78.2875C83.0121 77.6 82.4871 77.125 81.6871 77.125C80.8871 77.125 80.2246 77.575 80.1996 78.2625H78.3996C78.4246 76.7 79.8371 75.625 81.6871 75.625C83.5746 75.625 84.8371 76.7375 84.8246 78.175C84.8371 79.1875 84.1246 79.9125 83.1121 80.0875V80.1625C84.4371 80.325 85.1746 81.1375 85.1621 82.2625C85.1746 83.8125 83.6996 84.925 81.6621 84.925ZM86.4871 84.8L86.4746 83.4375L89.7246 80.45C90.5746 79.6375 91.0246 79.1375 91.0246 78.425C91.0246 77.625 90.4121 77.125 89.5871 77.125C88.7371 77.125 88.1871 77.6625 88.1871 78.525H86.3996C86.3871 76.75 87.6996 75.625 89.6121 75.625C91.5496 75.625 92.8371 76.725 92.8371 78.3C92.8371 79.325 92.3371 80.175 90.4746 81.8625L89.0996 83.2V83.25H92.9621V84.8H86.4871Z" fill="#FF7A7A"/>
<g clip-path="url(#clip2_108_2596)">
<path d="M33.4 104.2C33.4 107.624 30.6242 110.4 27.2 110.4C23.7758 110.4 21 107.624 21 104.2C21 100.776 23.7758 98 27.2 98C30.6242 98 33.4 100.776 33.4 104.2ZM26.4828 107.483L31.0828 102.883C31.239 102.727 31.239 102.473 31.0828 102.317L30.5172 101.751C30.361 101.595 30.1077 101.595 29.9515 101.751L26.2 105.503L24.4485 103.751C24.2923 103.595 24.039 103.595 23.8828 103.751L23.3171 104.317C23.1609 104.473 23.1609 104.727 23.3171 104.883L25.9171 107.483C26.0734 107.639 26.3266 107.639 26.4828 107.483Z" fill="#6BE047"/>
</g>
<path d="M42.7373 102.425C42.6373 101.537 41.8248 101.025 40.7373 101.025C39.5373 101.025 38.7498 101.65 38.7498 102.512C38.7498 103.462 39.8123 103.812 40.4998 103.987L41.3998 104.237C42.3748 104.487 43.9623 105.05 43.9623 106.737C43.9623 108.212 42.7748 109.362 40.6748 109.362C38.7248 109.362 37.5123 108.35 37.4123 106.85H38.5623C38.6623 107.862 39.5998 108.337 40.6748 108.337C41.9248 108.337 42.8623 107.7 42.8623 106.712C42.8623 105.837 42.0248 105.5 41.0748 105.225L39.9623 104.925C38.5373 104.512 37.6623 103.787 37.6623 102.562C37.6623 101.037 39.0248 100.025 40.7748 100.025C42.5248 100.025 43.7873 101.05 43.8373 102.425H42.7373ZM48.2123 109.337C46.3623 109.337 45.1123 107.95 45.1123 105.837C45.1123 103.725 46.3623 102.325 48.2123 102.325C50.0498 102.325 51.2873 103.725 51.2873 105.837C51.2873 107.95 50.0498 109.337 48.2123 109.337ZM48.2123 108.387C49.5748 108.387 50.2123 107.187 50.2123 105.837C50.2123 104.487 49.5748 103.275 48.2123 103.275C46.8248 103.275 46.1873 104.487 46.1873 105.837C46.1873 107.187 46.8248 108.387 48.2123 108.387ZM53.7748 100.15V109.2H52.6998V100.15H53.7748ZM61.0748 102.412L58.5623 109.2H57.4498L54.9498 102.412H56.1248L57.9748 107.8H58.0498L59.8998 102.412H61.0748ZM64.8623 109.337C62.8998 109.337 61.6873 107.95 61.6873 105.862C61.6873 103.775 62.9123 102.325 64.7623 102.325C66.1873 102.325 67.6873 103.2 67.6873 105.712V106.162H62.7623C62.8123 107.6 63.6498 108.387 64.8623 108.387C65.6748 108.387 66.1873 108.037 66.4373 107.612H67.5873C67.2623 108.637 66.2623 109.337 64.8623 109.337ZM62.7748 105.25H66.5998C66.5998 104.112 65.8748 103.275 64.7623 103.275C63.5873 103.275 62.8373 104.2 62.7748 105.25Z" fill="#3F465C"/>
<path d="M80.6621 109.325C78.6746 109.325 77.2496 108.225 77.2121 106.65H79.1121C79.1496 107.325 79.7996 107.775 80.6746 107.775C81.5746 107.775 82.2246 107.262 82.2121 106.537C82.2246 105.8 81.5621 105.275 80.4996 105.275H79.6621V103.887H80.4996C81.3871 103.887 82.0121 103.4 82.0121 102.687C82.0121 102 81.4871 101.525 80.6871 101.525C79.8871 101.525 79.2246 101.975 79.1996 102.662H77.3996C77.4246 101.1 78.8371 100.025 80.6871 100.025C82.5746 100.025 83.8371 101.137 83.8246 102.575C83.8371 103.587 83.1246 104.312 82.1121 104.487V104.562C83.4371 104.725 84.1746 105.537 84.1621 106.662C84.1746 108.212 82.6996 109.325 80.6621 109.325ZM88.8371 109.325C86.8496 109.325 85.4246 108.225 85.3871 106.65H87.2871C87.3246 107.325 87.9746 107.775 88.8496 107.775C89.7496 107.775 90.3996 107.262 90.3871 106.537C90.3996 105.8 89.7371 105.275 88.6746 105.275H87.8371V103.887H88.6746C89.5621 103.887 90.1871 103.4 90.1871 102.687C90.1871 102 89.6621 101.525 88.8621 101.525C88.0621 101.525 87.3996 101.975 87.3746 102.662H85.5746C85.5996 101.1 87.0121 100.025 88.8621 100.025C90.7496 100.025 92.0121 101.137 91.9996 102.575C92.0121 103.587 91.2996 104.312 90.2871 104.487V104.562C91.6121 104.725 92.3496 105.537 92.3371 106.662C92.3496 108.212 90.8746 109.325 88.8371 109.325Z" fill="#6BE047"/>
</g>
<g filter="url(#filter1_d_108_2596)">
<rect x="116" y="8" width="92" height="143" rx="6.4" fill="white" shape-rendering="crispEdges"/>
<g clip-path="url(#clip3_108_2596)">
<path d="M138.256 26.4895C138.666 27.2005 138.151 28.0892 137.332 28.0892H126.667C125.847 28.0892 125.334 27.1991 125.744 26.4895L131.076 17.2444C131.486 16.5331 132.514 16.5344 132.924 17.2444L138.256 26.4895ZM132 24.5781C131.435 24.5781 130.977 25.0358 130.977 25.6003C130.977 26.1649 131.435 26.6225 132 26.6225C132.564 26.6225 133.022 26.1649 133.022 25.6003C133.022 25.0358 132.564 24.5781 132 24.5781ZM131.029 20.9037L131.194 23.926C131.202 24.0674 131.319 24.1781 131.46 24.1781H132.539C132.681 24.1781 132.798 24.0674 132.805 23.926L132.97 20.9037C132.978 20.751 132.857 20.6225 132.704 20.6225H131.295C131.142 20.6225 131.021 20.751 131.029 20.9037Z" fill="#FF7A7A"/>
</g>
<path d="M142.037 19.3564V18.4814H148.009V19.3564H145.526V26.4001H144.531V19.3564H142.037ZM150.831 26.5205C149.114 26.5205 148.053 25.3064 148.053 23.4798C148.053 21.6533 149.125 20.3845 150.743 20.3845C151.99 20.3845 153.303 21.1501 153.303 23.3486V23.7423H148.993C149.037 25.0001 149.77 25.6892 150.831 25.6892C151.542 25.6892 151.99 25.383 152.209 25.0111H153.215C152.931 25.908 152.056 26.5205 150.831 26.5205ZM149.004 22.9439H152.351C152.351 21.9486 151.717 21.2158 150.743 21.2158C149.715 21.2158 149.059 22.0251 149.004 22.9439ZM157.831 22.0033C157.7 21.5111 157.328 21.183 156.628 21.183C155.895 21.183 155.37 21.5767 155.37 22.0798C155.37 22.4736 155.687 22.747 156.387 22.9111L157.273 23.1298C158.334 23.3814 158.859 23.9064 158.859 24.7376C158.859 25.7658 158.017 26.5205 156.529 26.5205C155.195 26.5205 154.396 25.9298 154.243 24.847H155.228C155.337 25.4267 155.764 25.7001 156.507 25.7001C157.35 25.7001 157.886 25.3501 157.886 24.7923C157.886 24.3767 157.59 24.0923 156.912 23.9392L156.015 23.7314C154.976 23.4908 154.429 22.922 154.429 22.1345C154.429 21.1173 155.315 20.3845 156.628 20.3845C157.853 20.3845 158.629 21.0408 158.75 22.0033H157.831ZM162.676 20.4611V21.2486H161.429V24.6939C161.429 25.4595 161.801 25.5798 162.206 25.5798C162.381 25.5798 162.621 25.5689 162.764 25.558V26.433C162.621 26.4548 162.381 26.4767 162.107 26.4767C161.32 26.4767 160.478 25.9845 160.478 24.9345V21.2486H159.581V20.4611H160.478V19.0392H161.429V20.4611H162.676ZM167.992 26.4001V27.2642H163.037V26.4001H167.992ZM169.02 26.4001V20.4611H169.961V26.4001H169.02ZM169.49 19.4767C169.129 19.4767 168.834 19.2033 168.834 18.8533C168.834 18.5033 169.129 18.2298 169.49 18.2298C169.851 18.2298 170.157 18.5033 170.157 18.8533C170.157 19.2033 169.851 19.4767 169.49 19.4767ZM173.701 26.5205C172.225 26.5205 171.175 25.3283 171.175 23.447C171.175 21.5658 172.225 20.3845 173.712 20.3845C174.861 20.3845 175.232 21.0845 175.429 21.4017H175.495V18.4814H176.446V26.4001H175.528V25.4923H175.429C175.221 25.8205 174.839 26.5205 173.701 26.5205ZM173.832 25.6783C174.915 25.6783 175.528 24.7595 175.528 23.4251C175.528 22.1126 174.937 21.2267 173.832 21.2267C172.695 21.2267 172.126 22.1892 172.126 23.4251C172.126 24.6939 172.706 25.6783 173.832 25.6783ZM183.676 18.4814V26.4001H182.681V19.5095H182.637L180.712 20.7892V19.7939L182.681 18.4814H183.676Z" fill="#3F465C"/>
<g clip-path="url(#clip4_108_2596)">
<path d="M138.2 44.8001C138.2 48.2243 135.424 51.0001 132 51.0001C128.576 51.0001 125.8 48.2243 125.8 44.8001C125.8 41.3759 128.576 38.6001 132 38.6001C135.424 38.6001 138.2 41.3759 138.2 44.8001ZM131.283 48.0829L135.883 43.4829C136.039 43.3267 136.039 43.0735 135.883 42.9173L135.317 42.3516C135.161 42.1954 134.908 42.1954 134.751 42.3516L131 46.103L129.248 44.3516C129.092 44.1954 128.839 44.1954 128.683 44.3516L128.117 44.9172C127.961 45.0734 127.961 45.3267 128.117 45.4829L130.717 48.0829C130.873 48.2391 131.126 48.2391 131.283 48.0829Z" fill="#6BE047"/>
</g>
<path d="M142.037 41.7563V40.8813H148.009V41.7563H145.526V48.8H144.531V41.7563H142.037ZM150.831 48.9204C149.114 48.9204 148.053 47.7063 148.053 45.8797C148.053 44.0532 149.125 42.7844 150.743 42.7844C151.99 42.7844 153.303 43.55 153.303 45.7485V46.1422H148.993C149.037 47.4 149.77 48.0891 150.831 48.0891C151.542 48.0891 151.99 47.7829 152.209 47.411H153.215C152.931 48.3079 152.056 48.9204 150.831 48.9204ZM149.004 45.3438H152.351C152.351 44.3485 151.717 43.6157 150.743 43.6157C149.715 43.6157 149.059 44.425 149.004 45.3438ZM157.831 44.4032C157.7 43.911 157.328 43.5829 156.628 43.5829C155.895 43.5829 155.37 43.9766 155.37 44.4797C155.37 44.8735 155.687 45.1469 156.387 45.311L157.273 45.5297C158.334 45.7813 158.859 46.3063 158.859 47.1375C158.859 48.1657 158.017 48.9204 156.529 48.9204C155.195 48.9204 154.396 48.3297 154.243 47.2469H155.228C155.337 47.8266 155.764 48.1 156.507 48.1C157.35 48.1 157.886 47.75 157.886 47.1922C157.886 46.7766 157.59 46.4922 156.912 46.3391L156.015 46.1313C154.976 45.8907 154.429 45.3219 154.429 44.5344C154.429 43.5172 155.315 42.7844 156.628 42.7844C157.853 42.7844 158.629 43.4407 158.75 44.4032H157.831ZM162.676 42.861V43.6485H161.429V47.0938C161.429 47.8594 161.801 47.9797 162.206 47.9797C162.381 47.9797 162.621 47.9688 162.764 47.9579V48.8329C162.621 48.8547 162.381 48.8766 162.107 48.8766C161.32 48.8766 160.478 48.3844 160.478 47.3344V43.6485H159.581V42.861H160.478V41.4391H161.429V42.861H162.676ZM167.992 48.8V49.6641H163.037V48.8H167.992ZM169.02 48.8V42.861H169.961V48.8H169.02ZM169.49 41.8766C169.129 41.8766 168.834 41.6032 168.834 41.2532C168.834 40.9032 169.129 40.6297 169.49 40.6297C169.851 40.6297 170.157 40.9032 170.157 41.2532C170.157 41.6032 169.851 41.8766 169.49 41.8766ZM173.701 48.9204C172.225 48.9204 171.175 47.7282 171.175 45.8469C171.175 43.9657 172.225 42.7844 173.712 42.7844C174.861 42.7844 175.232 43.4844 175.429 43.8016H175.495V40.8813H176.446V48.8H175.528V47.8922H175.429C175.221 48.2204 174.839 48.9204 173.701 48.9204ZM173.832 48.0782C174.915 48.0782 175.528 47.1594 175.528 45.825C175.528 44.5125 174.937 43.6266 173.832 43.6266C172.695 43.6266 172.126 44.5891 172.126 45.825C172.126 47.0938 172.706 48.0782 173.832 48.0782ZM180.876 48.8L180.865 48.0782L183.567 45.2344C184.507 44.2391 184.956 43.7032 184.956 42.9704C184.956 42.161 184.267 41.625 183.381 41.625C182.44 41.625 181.839 42.2266 181.839 43.1125H180.909C180.898 41.7125 181.981 40.7719 183.414 40.7719C184.846 40.7719 185.875 41.7344 185.875 42.9704C185.875 43.8563 185.459 44.5454 184.059 45.9891L182.243 47.8594V47.925H186.017V48.8H180.876Z" fill="#3F465C"/>
<g clip-path="url(#clip5_108_2596)">
<path d="M138.2 67.2002C138.2 70.6244 135.424 73.4002 132 73.4002C128.576 73.4002 125.8 70.6244 125.8 67.2002C125.8 63.7761 128.576 61.0002 132 61.0002C135.424 61.0002 138.2 63.7761 138.2 67.2002ZM131.283 70.4831L135.883 65.8831C136.039 65.7269 136.039 65.4736 135.883 65.3174L135.317 64.7517C135.161 64.5955 134.908 64.5955 134.751 64.7517L131 68.5032L129.248 66.7517C129.092 66.5955 128.839 66.5955 128.683 66.7517L128.117 67.3174C127.961 67.4736 127.961 67.7269 128.117 67.8831L130.717 70.4831C130.873 70.6393 131.126 70.6393 131.283 70.4831Z" fill="#6BE047"/>
</g>
<path d="M142.037 64.1564V63.2814H148.009V64.1564H145.526V71.2002H144.531V64.1564H142.037ZM150.831 71.3205C149.114 71.3205 148.053 70.1064 148.053 68.2799C148.053 66.4533 149.125 65.1846 150.743 65.1846C151.99 65.1846 153.303 65.9502 153.303 68.1486V68.5424H148.993C149.037 69.8002 149.77 70.4893 150.831 70.4893C151.542 70.4893 151.99 70.183 152.209 69.8111H153.215C152.931 70.708 152.056 71.3205 150.831 71.3205ZM149.004 67.7439H152.351C152.351 66.7486 151.717 66.0158 150.743 66.0158C149.715 66.0158 149.059 66.8252 149.004 67.7439ZM157.831 66.8033C157.7 66.3111 157.328 65.983 156.628 65.983C155.895 65.983 155.37 66.3768 155.37 66.8799C155.37 67.2736 155.687 67.5471 156.387 67.7111L157.273 67.9299C158.334 68.1814 158.859 68.7064 158.859 69.5377C158.859 70.5658 158.017 71.3205 156.529 71.3205C155.195 71.3205 154.396 70.7299 154.243 69.6471H155.228C155.337 70.2268 155.764 70.5002 156.507 70.5002C157.35 70.5002 157.886 70.1502 157.886 69.5924C157.886 69.1768 157.59 68.8924 156.912 68.7393L156.015 68.5314C154.976 68.2908 154.429 67.7221 154.429 66.9346C154.429 65.9174 155.315 65.1846 156.628 65.1846C157.853 65.1846 158.629 65.8408 158.75 66.8033H157.831ZM162.676 65.2611V66.0486H161.429V69.4939C161.429 70.2596 161.801 70.3799 162.206 70.3799C162.381 70.3799 162.621 70.3689 162.764 70.358V71.233C162.621 71.2549 162.381 71.2768 162.107 71.2768C161.32 71.2768 160.478 70.7846 160.478 69.7346V66.0486H159.581V65.2611H160.478V63.8393H161.429V65.2611H162.676ZM167.992 71.2002V72.0643H163.037V71.2002H167.992ZM169.02 71.2002V65.2611H169.961V71.2002H169.02ZM169.49 64.2768C169.129 64.2768 168.834 64.0033 168.834 63.6533C168.834 63.3033 169.129 63.0299 169.49 63.0299C169.851 63.0299 170.157 63.3033 170.157 63.6533C170.157 64.0033 169.851 64.2768 169.49 64.2768ZM173.701 71.3205C172.225 71.3205 171.175 70.1283 171.175 68.2471C171.175 66.3658 172.225 65.1846 173.712 65.1846C174.861 65.1846 175.232 65.8846 175.429 66.2018H175.495V63.2814H176.446V71.2002H175.528V70.2924H175.429C175.221 70.6205 174.839 71.3205 173.701 71.3205ZM173.832 70.4783C174.915 70.4783 175.528 69.5596 175.528 68.2252C175.528 66.9127 174.937 66.0268 173.832 66.0268C172.695 66.0268 172.126 66.9893 172.126 68.2252C172.126 69.4939 172.706 70.4783 173.832 70.4783ZM183.611 71.3096C182.036 71.3096 180.909 70.4674 180.854 69.2096H181.85C181.904 69.9643 182.659 70.4346 183.6 70.4346C184.639 70.4346 185.404 69.8658 185.404 69.0455C185.404 68.1814 184.715 67.5689 183.479 67.5689H182.834V66.7049H183.479C184.442 66.7049 185.109 66.1689 185.109 65.3486C185.109 64.5611 184.529 64.0252 183.632 64.0252C182.79 64.0252 182.014 64.4955 181.97 65.2721H181.018C181.073 64.0143 182.232 63.1721 183.643 63.1721C185.153 63.1721 186.071 64.1564 186.061 65.2939C186.071 66.1908 185.546 66.858 184.715 67.0877V67.1424C185.743 67.3064 186.378 68.0393 186.367 69.0455C186.378 70.3471 185.186 71.3096 183.611 71.3096Z" fill="#3F465C"/>
<g clip-path="url(#clip6_108_2596)">
<path d="M138.2 89.6001C138.2 93.0243 135.424 95.8001 132 95.8001C128.576 95.8001 125.8 93.0243 125.8 89.6001C125.8 86.176 128.576 83.4001 132 83.4001C135.424 83.4001 138.2 86.176 138.2 89.6001ZM131.283 92.883L135.883 88.283C136.039 88.1268 136.039 87.8735 135.883 87.7173L135.317 87.1516C135.161 86.9954 134.908 86.9954 134.751 87.1516L131 90.9031L129.248 89.1516C129.092 88.9954 128.839 88.9954 128.683 89.1516L128.117 89.7173C127.961 89.8735 127.961 90.1268 128.117 90.283L130.717 92.883C130.873 93.0392 131.126 93.0392 131.283 92.883Z" fill="#6BE047"/>
</g>
<path d="M142.037 86.5563V85.6813H148.009V86.5563H145.526V93.6001H144.531V86.5563H142.037ZM150.831 93.7204C149.114 93.7204 148.053 92.5063 148.053 90.6798C148.053 88.8532 149.125 87.5845 150.743 87.5845C151.99 87.5845 153.303 88.3501 153.303 90.5485V90.9423H148.993C149.037 92.2001 149.77 92.8892 150.831 92.8892C151.542 92.8892 151.99 92.5829 152.209 92.211H153.215C152.931 93.1079 152.056 93.7204 150.831 93.7204ZM149.004 90.1438H152.351C152.351 89.1485 151.717 88.4157 150.743 88.4157C149.715 88.4157 149.059 89.2251 149.004 90.1438ZM157.831 89.2032C157.7 88.711 157.328 88.3829 156.628 88.3829C155.895 88.3829 155.37 88.7767 155.37 89.2798C155.37 89.6735 155.687 89.947 156.387 90.111L157.273 90.3298C158.334 90.5813 158.859 91.1063 158.859 91.9376C158.859 92.9657 158.017 93.7204 156.529 93.7204C155.195 93.7204 154.396 93.1298 154.243 92.047H155.228C155.337 92.6267 155.764 92.9001 156.507 92.9001C157.35 92.9001 157.886 92.5501 157.886 91.9923C157.886 91.5767 157.59 91.2923 156.912 91.1392L156.015 90.9313C154.976 90.6907 154.429 90.122 154.429 89.3345C154.429 88.3173 155.315 87.5845 156.628 87.5845C157.853 87.5845 158.629 88.2407 158.75 89.2032H157.831ZM162.676 87.661V88.4485H161.429V91.8938C161.429 92.6595 161.801 92.7798 162.206 92.7798C162.381 92.7798 162.621 92.7688 162.764 92.7579V93.6329C162.621 93.6548 162.381 93.6767 162.107 93.6767C161.32 93.6767 160.478 93.1845 160.478 92.1345V88.4485H159.581V87.661H160.478V86.2392H161.429V87.661H162.676ZM167.992 93.6001V94.4642H163.037V93.6001H167.992ZM169.02 93.6001V87.661H169.961V93.6001H169.02ZM169.49 86.6767C169.129 86.6767 168.834 86.4032 168.834 86.0532C168.834 85.7032 169.129 85.4298 169.49 85.4298C169.851 85.4298 170.157 85.7032 170.157 86.0532C170.157 86.4032 169.851 86.6767 169.49 86.6767ZM173.701 93.7204C172.225 93.7204 171.175 92.5282 171.175 90.647C171.175 88.7657 172.225 87.5845 173.712 87.5845C174.861 87.5845 175.232 88.2845 175.429 88.6017H175.495V85.6813H176.446V93.6001H175.528V92.6923H175.429C175.221 93.0204 174.839 93.7204 173.701 93.7204ZM173.832 92.8782C174.915 92.8782 175.528 91.9595 175.528 90.6251C175.528 89.3126 174.937 88.4267 173.832 88.4267C172.695 88.4267 172.126 89.3892 172.126 90.6251C172.126 91.8938 172.706 92.8782 173.832 92.8782ZM180.679 91.9813V91.172L184.245 85.6813H185.459V91.1173H186.564V91.9813H185.459V93.6001H184.518V91.9813H180.679ZM181.74 91.1173H184.518V86.9282H184.42L181.74 91.0517V91.1173Z" fill="#3F465C"/>
<g clip-path="url(#clip7_108_2596)">
<path d="M138.256 116.089C138.666 116.8 138.151 117.689 137.332 117.689H126.667C125.847 117.689 125.334 116.799 125.744 116.089L131.076 106.844C131.486 106.133 132.514 106.134 132.924 106.844L138.256 116.089ZM132 114.178C131.435 114.178 130.977 114.636 130.977 115.2C130.977 115.765 131.435 116.222 132 116.222C132.564 116.222 133.022 115.765 133.022 115.2C133.022 114.636 132.564 114.178 132 114.178ZM131.029 110.504L131.194 113.526C131.202 113.667 131.319 113.778 131.46 113.778H132.539C132.681 113.778 132.798 113.667 132.805 113.526L132.97 110.504C132.978 110.351 132.857 110.222 132.704 110.222H131.295C131.142 110.222 131.021 110.351 131.029 110.504Z" fill="#FF7A7A"/>
</g>
<path d="M142.037 108.956V108.081H148.009V108.956H145.526V116H144.531V108.956H142.037ZM150.831 116.12C149.114 116.12 148.053 114.906 148.053 113.08C148.053 111.253 149.125 109.984 150.743 109.984C151.99 109.984 153.303 110.75 153.303 112.948V113.342H148.993C149.037 114.6 149.77 115.289 150.831 115.289C151.542 115.289 151.99 114.983 152.209 114.611H153.215C152.931 115.508 152.056 116.12 150.831 116.12ZM149.004 112.544H152.351C152.351 111.548 151.717 110.816 150.743 110.816C149.715 110.816 149.059 111.625 149.004 112.544ZM157.831 111.603C157.7 111.111 157.328 110.783 156.628 110.783C155.895 110.783 155.37 111.177 155.37 111.68C155.37 112.073 155.687 112.347 156.387 112.511L157.273 112.73C158.334 112.981 158.859 113.506 158.859 114.338C158.859 115.366 158.017 116.12 156.529 116.12C155.195 116.12 154.396 115.53 154.243 114.447H155.228C155.337 115.027 155.764 115.3 156.507 115.3C157.35 115.3 157.886 114.95 157.886 114.392C157.886 113.977 157.59 113.692 156.912 113.539L156.015 113.331C154.976 113.091 154.429 112.522 154.429 111.734C154.429 110.717 155.315 109.984 156.628 109.984C157.853 109.984 158.629 110.641 158.75 111.603H157.831ZM162.676 110.061V110.848H161.429V114.294C161.429 115.059 161.801 115.18 162.206 115.18C162.381 115.18 162.621 115.169 162.764 115.158V116.033C162.621 116.055 162.381 116.077 162.107 116.077C161.32 116.077 160.478 115.584 160.478 114.534V110.848H159.581V110.061H160.478V108.639H161.429V110.061H162.676ZM167.992 116V116.864H163.037V116H167.992ZM169.02 116V110.061H169.961V116H169.02ZM169.49 109.077C169.129 109.077 168.834 108.803 168.834 108.453C168.834 108.103 169.129 107.83 169.49 107.83C169.851 107.83 170.157 108.103 170.157 108.453C170.157 108.803 169.851 109.077 169.49 109.077ZM173.701 116.12C172.225 116.12 171.175 114.928 171.175 113.047C171.175 111.166 172.225 109.984 173.712 109.984C174.861 109.984 175.232 110.684 175.429 111.002H175.495V108.081H176.446V116H175.528V115.092H175.429C175.221 115.42 174.839 116.12 173.701 116.12ZM173.832 115.278C174.915 115.278 175.528 114.359 175.528 113.025C175.528 111.713 174.937 110.827 173.832 110.827C172.695 110.827 172.126 111.789 172.126 113.025C172.126 114.294 172.706 115.278 173.832 115.278ZM183.457 116.109C182.025 116.109 180.942 115.223 180.887 114.009H181.839C181.915 114.72 182.604 115.245 183.457 115.245C184.486 115.245 185.229 114.491 185.229 113.495C185.229 112.467 184.453 111.713 183.392 111.702C182.725 111.691 182.211 111.898 181.915 112.413H180.964L181.521 108.081H185.809V108.956H182.342L182.046 111.275H182.123C182.473 111.002 183.009 110.816 183.567 110.816C185.076 110.816 186.192 111.931 186.192 113.473C186.192 115.005 185.032 116.109 183.457 116.109Z" fill="#3F465C"/>
<g clip-path="url(#clip8_108_2596)">
<path d="M138.256 138.489C138.666 139.2 138.151 140.089 137.332 140.089H126.667C125.847 140.089 125.334 139.199 125.744 138.489L131.076 129.244C131.486 128.533 132.514 128.534 132.924 129.244L138.256 138.489ZM132 136.578C131.435 136.578 130.977 137.036 130.977 137.6C130.977 138.165 131.435 138.623 132 138.623C132.564 138.623 133.022 138.165 133.022 137.6C133.022 137.036 132.564 136.578 132 136.578ZM131.029 132.904L131.194 135.926C131.202 136.067 131.319 136.178 131.46 136.178H132.539C132.681 136.178 132.798 136.067 132.805 135.926L132.97 132.904C132.978 132.751 132.857 132.623 132.704 132.623H131.295C131.142 132.623 131.021 132.751 131.029 132.904Z" fill="#FF7A7A"/>
</g>
<path d="M142.037 131.356V130.481H148.009V131.356H145.526V138.4H144.531V131.356H142.037ZM150.831 138.52C149.114 138.52 148.053 137.306 148.053 135.48C148.053 133.653 149.125 132.385 150.743 132.385C151.99 132.385 153.303 133.15 153.303 135.349V135.742H148.993C149.037 137 149.77 137.689 150.831 137.689C151.542 137.689 151.99 137.383 152.209 137.011H153.215C152.931 137.908 152.056 138.52 150.831 138.52ZM149.004 134.944H152.351C152.351 133.949 151.717 133.216 150.743 133.216C149.715 133.216 149.059 134.025 149.004 134.944ZM157.831 134.003C157.7 133.511 157.328 133.183 156.628 133.183C155.895 133.183 155.37 133.577 155.37 134.08C155.37 134.474 155.687 134.747 156.387 134.911L157.273 135.13C158.334 135.381 158.859 135.906 158.859 136.738C158.859 137.766 158.017 138.52 156.529 138.52C155.195 138.52 154.396 137.93 154.243 136.847H155.228C155.337 137.427 155.764 137.7 156.507 137.7C157.35 137.7 157.886 137.35 157.886 136.792C157.886 136.377 157.59 136.092 156.912 135.939L156.015 135.731C154.976 135.491 154.429 134.922 154.429 134.135C154.429 133.117 155.315 132.385 156.628 132.385C157.853 132.385 158.629 133.041 158.75 134.003H157.831ZM162.676 132.461V133.249H161.429V136.694C161.429 137.46 161.801 137.58 162.206 137.58C162.381 137.58 162.621 137.569 162.764 137.558V138.433C162.621 138.455 162.381 138.477 162.107 138.477C161.32 138.477 160.478 137.985 160.478 136.935V133.249H159.581V132.461H160.478V131.039H161.429V132.461H162.676ZM167.992 138.4V139.264H163.037V138.4H167.992ZM169.02 138.4V132.461H169.961V138.4H169.02ZM169.49 131.477C169.129 131.477 168.834 131.203 168.834 130.853C168.834 130.503 169.129 130.23 169.49 130.23C169.851 130.23 170.157 130.503 170.157 130.853C170.157 131.203 169.851 131.477 169.49 131.477ZM173.701 138.52C172.225 138.52 171.175 137.328 171.175 135.447C171.175 133.566 172.225 132.385 173.712 132.385C174.861 132.385 175.232 133.085 175.429 133.402H175.495V130.481H176.446V138.4H175.528V137.492H175.429C175.221 137.82 174.839 138.52 173.701 138.52ZM173.832 137.678C174.915 137.678 175.528 136.76 175.528 135.425C175.528 134.113 174.937 133.227 173.832 133.227C172.695 133.227 172.126 134.189 172.126 135.425C172.126 136.694 172.706 137.678 173.832 137.678ZM183.632 138.51C182.254 138.488 180.745 137.678 180.745 134.747C180.745 131.947 181.893 130.372 183.753 130.372C185.142 130.372 186.115 131.225 186.323 132.472H185.35C185.164 131.772 184.639 131.247 183.753 131.247C182.451 131.247 181.675 132.363 181.675 134.266H181.773C182.232 133.61 182.954 133.216 183.807 133.216C185.218 133.216 186.389 134.31 186.389 135.841C186.389 137.328 185.295 138.52 183.632 138.51ZM183.632 137.645C184.661 137.645 185.426 136.836 185.437 135.852C185.426 134.878 184.693 134.08 183.654 134.08C182.615 134.08 181.817 134.922 181.806 135.863C181.806 136.792 182.571 137.645 183.632 137.645Z" fill="#3F465C"/>
</g>
<defs>
<filter id="filter0_d_108_2596" x="0" y="32" width="114.4" height="94.2991" filterUnits="userSpaceOnUse" color-interpolation-filters="sRGB">
<feFlood flood-opacity="0" result="BackgroundImageFix"/>
<feColorMatrix in="SourceAlpha" type="matrix" values="0 0 0 0 0 0 0 0 0 0 0 0 0 0 0 0 0 0 127 0" result="hardAlpha"/>
<feOffset/>
<feGaussianBlur stdDeviation="4"/>
<feComposite in2="hardAlpha" operator="out"/>
<feColorMatrix type="matrix" values="0 0 0 0 0.0666667 0 0 0 0 0.0666667 0 0 0 0 0.0666667 0 0 0 0.25 0"/>
<feBlend mode="normal" in2="BackgroundImageFix" result="effect1_dropShadow_108_2596"/>
<feBlend mode="normal" in="SourceGraphic" in2="effect1_dropShadow_108_2596" result="shape"/>
</filter>
<filter id="filter1_d_108_2596" x="108" y="0" width="108" height="159" filterUnits="userSpaceOnUse" color-interpolation-filters="sRGB">
<feFlood flood-opacity="0" result="BackgroundImageFix"/>
<feColorMatrix in="SourceAlpha" type="matrix" values="0 0 0 0 0 0 0 0 0 0 0 0 0 0 0 0 0 0 127 0" result="hardAlpha"/>
<feOffset/>
<feGaussianBlur stdDeviation="4"/>
<feComposite in2="hardAlpha" operator="out"/>
<feColorMatrix type="matrix" values="0 0 0 0 0.0666667 0 0 0 0 0.0666667 0 0 0 0 0.0666667 0 0 0 0.25 0"/>
<feBlend mode="normal" in2="BackgroundImageFix" result="effect1_dropShadow_108_2596"/>
<feBlend mode="normal" in="SourceGraphic" in2="effect1_dropShadow_108_2596" result="shape"/>
</filter>
<clipPath id="clip0_108_2596">
<rect width="12.8" height="12.8" fill="white" transform="translate(20.7998 49)"/>
</clipPath>
<clipPath id="clip1_108_2596">
<rect width="12.8" height="12.8" fill="white" transform="translate(20.7998 73.4001)"/>
</clipPath>
<clipPath id="clip2_108_2596">
<rect width="12.8" height="12.8" fill="white" transform="translate(20.7998 97.8)"/>
</clipPath>
<clipPath id="clip3_108_2596">
<rect width="12.8" height="12.8" fill="white" transform="translate(125.6 16.0002)"/>
</clipPath>
<clipPath id="clip4_108_2596">
<rect width="12.8" height="12.8" fill="white" transform="translate(125.6 38.4001)"/>
</clipPath>
<clipPath id="clip5_108_2596">
<rect width="12.8" height="12.8" fill="white" transform="translate(125.6 60.8003)"/>
</clipPath>
<clipPath id="clip6_108_2596">
<rect width="12.8" height="12.8" fill="white" transform="translate(125.6 83.2002)"/>
</clipPath>
<clipPath id="clip7_108_2596">
<rect width="12.8" height="12.8" fill="white" transform="translate(125.6 105.6)"/>
</clipPath>
<clipPath id="clip8_108_2596">
<rect width="12.8" height="12.8" fill="white" transform="translate(125.6 128)"/>
</clipPath>
</defs>
</svg>
