<svg width="1000" height="1397" viewBox="0 0 1000 1397" fill="none" xmlns="http://www.w3.org/2000/svg">
<g clip-path="url(#clip0_108_2297)">
<rect width="1000" height="1397" fill="white"/>
<rect width="1000" height="40.8416" rx="3" fill="#C4C4C4"/>
<rect x="75.4951" y="12.9951" width="900.99" height="16" rx="3" fill="#F8F8F8"/>
<circle cx="17.9014" cy="23.4703" r="8" fill="#F8F8F8"/>
<circle cx="33.9902" cy="23.4703" r="8" fill="#F8F8F8"/>
<circle cx="50.6982" cy="23.4703" r="8" fill="#F8F8F8"/>
<rect y="40.8416" width="1000" height="431.312" rx="6" fill="#FFC943"/>
<rect y="40.8416" width="1000" height="48.8861" rx="3" fill="white"/>
<rect y="1276.08" width="1000" height="120.668" rx="6" fill="#E6E6E6"/>
<path d="M466.003 1345.08V1327.62H476.827V1329.89H468.636V1335.21H476.051V1337.47H468.636V1345.08H466.003ZM483.958 1345.34C482.731 1345.34 481.66 1345.06 480.745 1344.5C479.83 1343.94 479.12 1343.15 478.614 1342.14C478.109 1341.13 477.856 1339.95 477.856 1338.59C477.856 1337.24 478.109 1336.05 478.614 1335.03C479.12 1334.01 479.83 1333.22 480.745 1332.66C481.66 1332.1 482.731 1331.82 483.958 1331.82C485.185 1331.82 486.256 1332.1 487.171 1332.66C488.086 1333.22 488.796 1334.01 489.302 1335.03C489.808 1336.05 490.06 1337.24 490.06 1338.59C490.06 1339.95 489.808 1341.13 489.302 1342.14C488.796 1343.15 488.086 1343.94 487.171 1344.5C486.256 1345.06 485.185 1345.34 483.958 1345.34ZM483.967 1343.2C484.762 1343.2 485.421 1342.99 485.944 1342.57C486.467 1342.15 486.853 1341.59 487.103 1340.89C487.359 1340.2 487.487 1339.43 487.487 1338.58C487.487 1337.75 487.359 1336.98 487.103 1336.28C486.853 1335.58 486.467 1335.01 485.944 1334.59C485.421 1334.16 484.762 1333.95 483.967 1333.95C483.166 1333.95 482.501 1334.16 481.972 1334.59C481.45 1335.01 481.06 1335.58 480.805 1336.28C480.555 1336.98 480.43 1337.75 480.43 1338.58C480.43 1339.43 480.555 1340.2 480.805 1340.89C481.06 1341.59 481.45 1342.15 481.972 1342.57C482.501 1342.99 483.166 1343.2 483.967 1343.2ZM497.963 1345.34C496.736 1345.34 495.665 1345.06 494.75 1344.5C493.835 1343.94 493.125 1343.15 492.619 1342.14C492.114 1341.13 491.861 1339.95 491.861 1338.59C491.861 1337.24 492.114 1336.05 492.619 1335.03C493.125 1334.01 493.835 1333.22 494.75 1332.66C495.665 1332.1 496.736 1331.82 497.963 1331.82C499.19 1331.82 500.261 1332.1 501.176 1332.66C502.091 1333.22 502.801 1334.01 503.307 1335.03C503.813 1336.05 504.065 1337.24 504.065 1338.59C504.065 1339.95 503.813 1341.13 503.307 1342.14C502.801 1343.15 502.091 1343.94 501.176 1344.5C500.261 1345.06 499.19 1345.34 497.963 1345.34ZM497.972 1343.2C498.767 1343.2 499.426 1342.99 499.949 1342.57C500.472 1342.15 500.858 1341.59 501.108 1340.89C501.364 1340.2 501.492 1339.43 501.492 1338.58C501.492 1337.75 501.364 1336.98 501.108 1336.28C500.858 1335.58 500.472 1335.01 499.949 1334.59C499.426 1334.16 498.767 1333.95 497.972 1333.95C497.17 1333.95 496.506 1334.16 495.977 1334.59C495.455 1335.01 495.065 1335.58 494.81 1336.28C494.56 1336.98 494.435 1337.75 494.435 1338.58C494.435 1339.43 494.56 1340.2 494.81 1340.89C495.065 1341.59 495.455 1342.15 495.977 1342.57C496.506 1342.99 497.17 1343.2 497.972 1343.2ZM512.565 1331.99V1334.03H505.414V1331.99H512.565ZM507.332 1328.85H509.88V1341.24C509.88 1341.73 509.954 1342.1 510.102 1342.35C510.249 1342.6 510.44 1342.76 510.673 1342.85C510.911 1342.94 511.17 1342.98 511.448 1342.98C511.653 1342.98 511.832 1342.97 511.985 1342.94C512.138 1342.91 512.258 1342.89 512.343 1342.87L512.803 1344.98C512.656 1345.03 512.445 1345.09 512.173 1345.15C511.9 1345.21 511.559 1345.24 511.15 1345.25C510.479 1345.26 509.854 1345.14 509.275 1344.89C508.695 1344.64 508.227 1344.26 507.869 1343.73C507.511 1343.21 507.332 1342.55 507.332 1341.76V1328.85ZM520.429 1345.34C519.139 1345.34 518.028 1345.07 517.097 1344.52C516.17 1343.96 515.455 1343.18 514.949 1342.17C514.449 1341.16 514.199 1339.98 514.199 1338.62C514.199 1337.28 514.449 1336.1 514.949 1335.07C515.455 1334.05 516.159 1333.25 517.062 1332.68C517.972 1332.1 519.034 1331.82 520.25 1331.82C520.989 1331.82 521.705 1331.94 522.398 1332.18C523.091 1332.43 523.713 1332.81 524.264 1333.33C524.815 1333.86 525.25 1334.54 525.568 1335.37C525.886 1336.2 526.045 1337.21 526.045 1338.4V1339.3H515.639V1337.39H523.548C523.548 1336.72 523.412 1336.13 523.139 1335.61C522.866 1335.09 522.483 1334.68 521.989 1334.37C521.5 1334.07 520.926 1333.92 520.267 1333.92C519.551 1333.92 518.926 1334.1 518.392 1334.45C517.864 1334.8 517.455 1335.25 517.165 1335.82C516.881 1336.37 516.739 1336.98 516.739 1337.63V1339.12C516.739 1340 516.892 1340.74 517.199 1341.35C517.511 1341.97 517.946 1342.44 518.503 1342.76C519.06 1343.08 519.71 1343.24 520.455 1343.24C520.937 1343.24 521.378 1343.17 521.776 1343.03C522.173 1342.89 522.517 1342.68 522.807 1342.4C523.097 1342.12 523.318 1341.78 523.472 1341.37L525.883 1341.81C525.69 1342.52 525.344 1343.14 524.844 1343.67C524.349 1344.2 523.727 1344.61 522.977 1344.91C522.233 1345.2 521.383 1345.34 520.429 1345.34ZM528.417 1345.08V1331.99H530.88V1334.07H531.016C531.255 1333.36 531.675 1332.81 532.278 1332.41C532.886 1332 533.573 1331.79 534.34 1331.79C534.499 1331.79 534.687 1331.8 534.903 1331.81C535.124 1331.82 535.298 1331.83 535.423 1331.85V1334.29C535.32 1334.26 535.138 1334.23 534.877 1334.2C534.616 1334.16 534.354 1334.14 534.093 1334.14C533.491 1334.14 532.954 1334.26 532.482 1334.52C532.016 1334.77 531.647 1335.12 531.374 1335.57C531.101 1336.01 530.965 1336.52 530.965 1337.08V1345.08H528.417Z" fill="black" fill-opacity="0.8"/>
<rect x="77.3516" y="918.936" width="258.045" height="297.03" rx="6" fill="#C2E5FF"/>
<rect x="370.05" y="918.936" width="259.901" height="297.03" rx="6" fill="#C2E5FF"/>
<rect x="662.747" y="918.936" width="259.901" height="297.03" rx="6" fill="#C2E5FF"/>
<rect x="75.4951" y="513.614" width="259.901" height="138.614" rx="6" stroke="#B3B3B3" stroke-width="4"/>
<rect x="75.4951" y="686.881" width="259.901" height="16" rx="3" fill="#C4C4C4"/>
<rect x="75.4951" y="708.64" width="259.901" height="16" rx="3" fill="#C4C4C4"/>
<rect x="75.4951" y="730.4" width="259.901" height="16" rx="3" fill="#C4C4C4"/>
<rect x="75.4951" y="751.238" width="259.901" height="16" rx="3" fill="#C4C4C4"/>
<rect x="75.4951" y="772.997" width="259.901" height="16" rx="3" fill="#C4C4C4"/>
<rect x="75.4951" y="794.756" width="259.901" height="16" rx="3" fill="#C4C4C4"/>
<rect x="370.05" y="513.614" width="259.901" height="138.614" rx="6" stroke="#C4C4C4" stroke-width="4"/>
<rect x="370.05" y="686.881" width="259.901" height="16" rx="3" fill="#C4C4C4"/>
<rect x="370.05" y="708.64" width="259.901" height="16" rx="3" fill="#C4C4C4"/>
<rect x="370.05" y="730.4" width="259.901" height="16" rx="3" fill="#C4C4C4"/>
<rect x="664.604" y="513.614" width="259.901" height="138.614" rx="6" stroke="#C4C4C4" stroke-width="4"/>
<rect x="665.223" y="686.881" width="259.282" height="16" rx="3" fill="#C4C4C4"/>
<rect x="665.223" y="708.64" width="259.282" height="16" rx="3" fill="#C4C4C4"/>
<rect x="665.223" y="730.4" width="259.282" height="16" rx="3" fill="#C4C4C4"/>
<rect x="665.223" y="751.238" width="259.282" height="16" rx="3" fill="#C4C4C4"/>
<rect x="665.223" y="772.997" width="259.282" height="16" rx="3" fill="#C4C4C4"/>
<rect x="665.223" y="794.756" width="259.282" height="16" rx="3" fill="#C4C4C4"/>
<path d="M595.246 70.6931V59.892H596.876V69.2902H601.77V70.6931H595.246ZM604.977 59.892V70.6931H603.347V59.892H604.977ZM615.786 59.892V70.6931H614.288L608.798 62.7716H608.697V70.6931H607.068V59.892H608.576L614.072 67.8241H614.172V59.892H615.786ZM617.881 70.6931V59.892H619.51V65.05H619.642L624.173 59.892H626.224L621.868 64.7546L626.24 70.6931H624.278L620.787 65.8674L619.51 67.3336V70.6931H617.881ZM635.059 59.892V70.6931H633.424V61.527H633.361L630.777 63.2146V61.6535L633.472 59.892H635.059Z" fill="#333333"/>
<path d="M709.727 70.6931V59.892H711.356V69.2902H716.251V70.6931H709.727ZM719.457 59.892V70.6931H717.827V59.892H719.457ZM730.266 59.892V70.6931H728.768L723.278 62.7716H723.178V70.6931H721.548V59.892H723.057L728.552 67.8241H728.652V59.892H730.266ZM732.361 70.6931V59.892H733.991V65.05H734.123L738.653 59.892H740.705L736.348 64.7546L740.72 70.6931H738.758L735.267 65.8674L733.991 67.3336V70.6931H732.361ZM745.442 70.6931V69.5117L749.097 65.725C749.487 65.3137 749.809 64.9533 750.062 64.6439C750.319 64.331 750.51 64.0339 750.637 63.7526C750.763 63.4713 750.827 63.1724 750.827 62.856C750.827 62.4974 750.742 62.188 750.573 61.9278C750.405 61.6641 750.174 61.4619 749.883 61.3213C749.591 61.1771 749.262 61.105 748.896 61.105C748.51 61.105 748.172 61.1842 747.884 61.3424C747.595 61.5006 747.374 61.7239 747.219 62.0122C747.064 62.3005 746.987 62.638 746.987 63.0248H745.431C745.431 62.3673 745.583 61.7924 745.885 61.3002C746.187 60.8079 746.602 60.4265 747.13 60.1557C747.657 59.8815 748.256 59.7444 748.928 59.7444C749.607 59.7444 750.204 59.8797 750.721 60.1505C751.241 60.4177 751.648 60.7833 751.939 61.2474C752.231 61.708 752.377 62.2284 752.377 62.8085C752.377 63.2094 752.302 63.6014 752.15 63.9846C752.003 64.3679 751.744 64.7951 751.375 65.2662C751.006 65.7338 750.493 66.3017 749.835 66.9697L747.689 69.2164V69.2955H752.551V70.6931H745.442Z" fill="#333333"/>
<path d="M826.682 70.6931V59.892H828.311V69.2902H833.206V70.6931H826.682ZM836.412 59.892V70.6931H834.783V59.892H836.412ZM847.221 59.892V70.6931H845.723L840.233 62.7716H840.133V70.6931H838.503V59.892H840.012L845.507 67.8241H845.607V59.892H847.221ZM849.316 70.6931V59.892H850.946V65.05H851.078L855.608 59.892H857.66L853.303 64.7546L857.675 70.6931H855.714L852.222 65.8674L850.946 67.3336V70.6931H849.316ZM866.157 70.8408C865.433 70.8408 864.786 70.716 864.216 70.4663C863.65 70.2167 863.202 69.8704 862.872 69.4274C862.545 68.9808 862.369 68.464 862.344 67.8768H864C864.021 68.1968 864.129 68.4745 864.322 68.7101C864.519 68.9422 864.776 69.1215 865.092 69.248C865.408 69.3746 865.76 69.4379 866.147 69.4379C866.572 69.4379 866.948 69.3641 867.275 69.2164C867.606 69.0687 867.864 68.863 868.051 68.5994C868.237 68.3321 868.33 68.0245 868.33 67.6764C868.33 67.3143 868.237 66.9961 868.051 66.7218C867.868 66.4441 867.599 66.2261 867.244 66.0678C866.892 65.9096 866.467 65.8305 865.967 65.8305H865.055V64.5015H865.967C866.368 64.5015 866.72 64.4294 867.022 64.2852C867.328 64.1411 867.567 63.9407 867.739 63.684C867.912 63.4238 867.998 63.1197 867.998 62.7716C867.998 62.4376 867.922 62.1475 867.771 61.9014C867.623 61.6518 867.412 61.4566 867.138 61.316C866.868 61.1754 866.548 61.105 866.178 61.105C865.827 61.105 865.498 61.1701 865.192 61.3002C864.89 61.4268 864.644 61.6096 864.454 61.8487C864.264 62.0842 864.162 62.3673 864.148 62.6978H862.571C862.589 62.1141 862.761 61.6008 863.088 61.1578C863.418 60.7148 863.854 60.3685 864.396 60.1188C864.937 59.8692 865.538 59.7444 866.199 59.7444C866.892 59.7444 867.49 59.8797 867.993 60.1505C868.499 60.4177 868.889 60.7745 869.163 61.2211C869.441 61.6676 869.578 62.1563 869.575 62.6872C869.578 63.292 869.41 63.8053 869.069 64.2272C868.731 64.6492 868.281 64.9322 867.718 65.0763V65.1607C868.436 65.2697 868.991 65.5545 869.385 66.0151C869.782 66.4757 869.979 67.047 869.976 67.7291C869.979 68.3233 869.814 68.856 869.48 69.3272C869.149 69.7983 868.698 70.1692 868.124 70.44C867.551 70.7072 866.896 70.8408 866.157 70.8408Z" fill="#333333"/>
<circle cx="60.6437" cy="151.609" r="34.6535" fill="#F8F8F8"/>
<path d="M43.8112 143.501H47.9447L51.9248 151.018H52.0953L56.0754 143.501H60.2089L53.8424 154.785V160.955H50.1777V154.785L43.8112 143.501ZM62.8531 161.177C62.2906 161.177 61.8076 160.978 61.4042 160.58C61.0065 160.177 60.8076 159.694 60.8076 159.132C60.8076 158.575 61.0065 158.097 61.4042 157.7C61.8076 157.302 62.2906 157.103 62.8531 157.103C63.3985 157.103 63.8758 157.302 64.2849 157.7C64.694 158.097 64.8985 158.575 64.8985 159.132C64.8985 159.507 64.8019 159.85 64.6087 160.163C64.4212 160.47 64.1741 160.717 63.8673 160.904C63.5604 161.086 63.2224 161.177 62.8531 161.177ZM68.8616 161.177C68.2991 161.177 67.8161 160.978 67.4127 160.58C67.015 160.177 66.8161 159.694 66.8161 159.132C66.8161 158.575 67.015 158.097 67.4127 157.7C67.8161 157.302 68.2991 157.103 68.8616 157.103C69.407 157.103 69.8843 157.302 70.2934 157.7C70.7025 158.097 70.907 158.575 70.907 159.132C70.907 159.507 70.8104 159.85 70.6173 160.163C70.4298 160.47 70.1826 160.717 69.8758 160.904C69.569 161.086 69.2309 161.177 68.8616 161.177ZM74.8786 161.177C74.3161 161.177 73.8332 160.978 73.4298 160.58C73.032 160.177 72.8332 159.694 72.8332 159.132C72.8332 158.575 73.032 158.097 73.4298 157.7C73.8332 157.302 74.3161 157.103 74.8786 157.103C75.4241 157.103 75.9013 157.302 76.3104 157.7C76.7195 158.097 76.9241 158.575 76.9241 159.132C76.9241 159.507 76.8275 159.85 76.6343 160.163C76.4468 160.47 76.1996 160.717 75.8928 160.904C75.586 161.086 75.2479 161.177 74.8786 161.177Z" fill="black" fill-opacity="0.8"/>
<rect x="966.584" y="55.6931" width="19.802" height="19.802" stroke="black" stroke-width="9.90099"/>
<path d="M961.634 50.7426H991.337V80.4456H961.634V50.7426Z" fill="white"/>
<path d="M965.966 56.9307H987.005" stroke="black" stroke-width="1.23762"/>
<path d="M965.966 65.5941H987.005" stroke="black" stroke-width="1.23762"/>
<path d="M965.966 74.2574H987.005" stroke="black" stroke-width="1.23762"/>
<rect x="445.545" y="394.183" width="108.911" height="39.604" rx="3" fill="white"/>
<path d="M464.808 423.183V405.729H471.2C472.439 405.729 473.464 405.933 474.277 406.342C475.089 406.746 475.697 407.294 476.101 407.987C476.504 408.675 476.706 409.45 476.706 410.314C476.706 411.041 476.572 411.655 476.305 412.155C476.038 412.649 475.68 413.047 475.231 413.348C474.788 413.643 474.299 413.859 473.765 413.996V414.166C474.345 414.195 474.91 414.382 475.461 414.729C476.018 415.07 476.478 415.555 476.842 416.186C477.206 416.817 477.388 417.584 477.388 418.487C477.388 419.379 477.177 420.18 476.757 420.891C476.342 421.595 475.7 422.155 474.831 422.57C473.961 422.979 472.851 423.183 471.498 423.183H464.808ZM467.442 420.925H471.243C472.504 420.925 473.407 420.68 473.953 420.192C474.498 419.703 474.771 419.092 474.771 418.359C474.771 417.808 474.632 417.303 474.353 416.842C474.075 416.382 473.677 416.016 473.16 415.743C472.649 415.47 472.041 415.334 471.336 415.334H467.442V420.925ZM467.442 413.28H470.97C471.561 413.28 472.092 413.166 472.564 412.939C473.041 412.712 473.419 412.393 473.697 411.984C473.981 411.57 474.123 411.081 474.123 410.518C474.123 409.797 473.87 409.192 473.365 408.703C472.859 408.214 472.084 407.97 471.038 407.97H467.442V413.28ZM488.143 417.754V410.092H490.7V423.183H488.194V420.916H488.058C487.757 421.615 487.274 422.197 486.609 422.663C485.95 423.124 485.129 423.354 484.146 423.354C483.305 423.354 482.561 423.169 481.913 422.8C481.271 422.425 480.765 421.871 480.396 421.138C480.032 420.405 479.851 419.499 479.851 418.419V410.092H482.399V418.112C482.399 419.004 482.646 419.714 483.14 420.243C483.635 420.771 484.277 421.036 485.066 421.036C485.544 421.036 486.018 420.916 486.49 420.678C486.967 420.439 487.362 420.078 487.674 419.595C487.993 419.112 488.149 418.499 488.143 417.754ZM499.779 410.092V412.138H492.628V410.092H499.779ZM494.546 406.956H497.094V419.339C497.094 419.834 497.168 420.206 497.316 420.456C497.463 420.7 497.654 420.868 497.887 420.959C498.125 421.044 498.384 421.087 498.662 421.087C498.867 421.087 499.046 421.072 499.199 421.044C499.353 421.016 499.472 420.993 499.557 420.976L500.017 423.081C499.87 423.138 499.659 423.195 499.387 423.251C499.114 423.314 498.773 423.348 498.364 423.354C497.694 423.365 497.069 423.246 496.489 422.996C495.909 422.746 495.441 422.359 495.083 421.837C494.725 421.314 494.546 420.658 494.546 419.868V406.956ZM508.252 410.092V412.138H501.102V410.092H508.252ZM503.02 406.956H505.568V419.339C505.568 419.834 505.642 420.206 505.789 420.456C505.937 420.7 506.127 420.868 506.36 420.959C506.599 421.044 506.858 421.087 507.136 421.087C507.341 421.087 507.52 421.072 507.673 421.044C507.826 421.016 507.946 420.993 508.031 420.976L508.491 423.081C508.343 423.138 508.133 423.195 507.86 423.251C507.588 423.314 507.247 423.348 506.838 423.354C506.167 423.365 505.542 423.246 504.963 422.996C504.383 422.746 503.914 422.359 503.556 421.837C503.199 421.314 503.02 420.658 503.02 419.868V406.956ZM515.989 423.447C514.762 423.447 513.691 423.166 512.776 422.604C511.861 422.041 511.151 421.254 510.645 420.243C510.14 419.232 509.887 418.05 509.887 416.697C509.887 415.339 510.14 414.152 510.645 413.135C511.151 412.118 511.861 411.328 512.776 410.766C513.691 410.203 514.762 409.922 515.989 409.922C517.216 409.922 518.287 410.203 519.202 410.766C520.117 411.328 520.827 412.118 521.333 413.135C521.838 414.152 522.091 415.339 522.091 416.697C522.091 418.05 521.838 419.232 521.333 420.243C520.827 421.254 520.117 422.041 519.202 422.604C518.287 423.166 517.216 423.447 515.989 423.447ZM515.997 421.308C516.793 421.308 517.452 421.098 517.975 420.678C518.497 420.257 518.884 419.697 519.134 418.999C519.39 418.3 519.517 417.53 519.517 416.689C519.517 415.854 519.39 415.087 519.134 414.388C518.884 413.683 518.497 413.118 517.975 412.692C517.452 412.266 516.793 412.053 515.997 412.053C515.196 412.053 514.532 412.266 514.003 412.692C513.48 413.118 513.091 413.683 512.836 414.388C512.586 415.087 512.461 415.854 512.461 416.689C512.461 417.53 512.586 418.3 512.836 418.999C513.091 419.697 513.48 420.257 514.003 420.678C514.532 421.098 515.196 421.308 515.997 421.308ZM527.028 415.41V423.183H524.48V410.092H526.926V412.223H527.088C527.389 411.53 527.86 410.973 528.502 410.553C529.15 410.132 529.965 409.922 530.948 409.922C531.84 409.922 532.622 410.109 533.292 410.484C533.963 410.854 534.483 411.405 534.852 412.138C535.221 412.871 535.406 413.777 535.406 414.857V423.183H532.858V415.163C532.858 414.214 532.61 413.473 532.116 412.939C531.622 412.399 530.943 412.129 530.079 412.129C529.488 412.129 528.963 412.257 528.502 412.513C528.048 412.768 527.687 413.143 527.42 413.638C527.159 414.126 527.028 414.717 527.028 415.41Z" fill="black" fill-opacity="0.8"/>
<rect x="152.847" y="1142.95" width="108.911" height="39.604" rx="3" fill="#1E1E1E"/>
<path d="M172.11 1171.95V1154.49H178.502C179.74 1154.49 180.766 1154.7 181.578 1155.1C182.391 1155.51 182.999 1156.06 183.402 1156.75C183.806 1157.44 184.007 1158.21 184.007 1159.08C184.007 1159.8 183.874 1160.42 183.607 1160.92C183.34 1161.41 182.982 1161.81 182.533 1162.11C182.09 1162.41 181.601 1162.62 181.067 1162.76V1162.93C181.647 1162.96 182.212 1163.14 182.763 1163.49C183.32 1163.83 183.78 1164.32 184.144 1164.95C184.507 1165.58 184.689 1166.35 184.689 1167.25C184.689 1168.14 184.479 1168.94 184.059 1169.65C183.644 1170.36 183.002 1170.92 182.132 1171.33C181.263 1171.74 180.152 1171.95 178.8 1171.95H172.11ZM174.743 1169.69H178.544C179.806 1169.69 180.709 1169.44 181.255 1168.95C181.8 1168.47 182.073 1167.85 182.073 1167.12C182.073 1166.57 181.934 1166.06 181.655 1165.6C181.377 1165.14 180.979 1164.78 180.462 1164.51C179.951 1164.23 179.343 1164.1 178.638 1164.1H174.743V1169.69ZM174.743 1162.04H178.272C178.863 1162.04 179.394 1161.93 179.865 1161.7C180.343 1161.47 180.721 1161.16 180.999 1160.75C181.283 1160.33 181.425 1159.84 181.425 1159.28C181.425 1158.56 181.172 1157.95 180.667 1157.47C180.161 1156.98 179.385 1156.73 178.34 1156.73H174.743V1162.04ZM195.445 1166.52V1158.85H198.002V1171.95H195.496V1169.68H195.36C195.059 1170.38 194.576 1170.96 193.911 1171.43C193.252 1171.89 192.431 1172.12 191.448 1172.12C190.607 1172.12 189.863 1171.93 189.215 1171.56C188.573 1171.19 188.067 1170.63 187.698 1169.9C187.334 1169.17 187.152 1168.26 187.152 1167.18V1158.85H189.701V1166.87C189.701 1167.77 189.948 1168.48 190.442 1169.01C190.936 1169.53 191.578 1169.8 192.368 1169.8C192.845 1169.8 193.32 1169.68 193.792 1169.44C194.269 1169.2 194.664 1168.84 194.976 1168.36C195.294 1167.87 195.451 1167.26 195.445 1166.52ZM207.081 1158.85V1160.9H199.93V1158.85H207.081ZM201.848 1155.72H204.396V1168.1C204.396 1168.6 204.47 1168.97 204.617 1169.22C204.765 1169.46 204.956 1169.63 205.189 1169.72C205.427 1169.81 205.686 1169.85 205.964 1169.85C206.169 1169.85 206.348 1169.83 206.501 1169.81C206.654 1169.78 206.774 1169.76 206.859 1169.74L207.319 1171.84C207.171 1171.9 206.961 1171.96 206.689 1172.01C206.416 1172.08 206.075 1172.11 205.666 1172.12C204.995 1172.13 204.37 1172.01 203.791 1171.76C203.211 1171.51 202.742 1171.12 202.385 1170.6C202.027 1170.08 201.848 1169.42 201.848 1168.63V1155.72ZM215.554 1158.85V1160.9H208.404V1158.85H215.554ZM210.321 1155.72H212.87V1168.1C212.87 1168.6 212.943 1168.97 213.091 1169.22C213.239 1169.46 213.429 1169.63 213.662 1169.72C213.901 1169.81 214.159 1169.85 214.438 1169.85C214.642 1169.85 214.821 1169.83 214.975 1169.81C215.128 1169.78 215.247 1169.76 215.333 1169.74L215.793 1171.84C215.645 1171.9 215.435 1171.96 215.162 1172.01C214.889 1172.08 214.549 1172.11 214.139 1172.12C213.469 1172.13 212.844 1172.01 212.264 1171.76C211.685 1171.51 211.216 1171.12 210.858 1170.6C210.5 1170.08 210.321 1169.42 210.321 1168.63V1155.72ZM223.291 1172.21C222.063 1172.21 220.992 1171.93 220.078 1171.37C219.163 1170.8 218.453 1170.02 217.947 1169.01C217.441 1167.99 217.188 1166.81 217.188 1165.46C217.188 1164.1 217.441 1162.91 217.947 1161.9C218.453 1160.88 219.163 1160.09 220.078 1159.53C220.992 1158.97 222.063 1158.68 223.291 1158.68C224.518 1158.68 225.589 1158.97 226.504 1159.53C227.419 1160.09 228.129 1160.88 228.634 1161.9C229.14 1162.91 229.393 1164.1 229.393 1165.46C229.393 1166.81 229.14 1167.99 228.634 1169.01C228.129 1170.02 227.419 1170.8 226.504 1171.37C225.589 1171.93 224.518 1172.21 223.291 1172.21ZM223.299 1170.07C224.095 1170.07 224.754 1169.86 225.277 1169.44C225.799 1169.02 226.186 1168.46 226.436 1167.76C226.691 1167.06 226.819 1166.29 226.819 1165.45C226.819 1164.62 226.691 1163.85 226.436 1163.15C226.186 1162.45 225.799 1161.88 225.277 1161.45C224.754 1161.03 224.095 1160.81 223.299 1160.81C222.498 1160.81 221.833 1161.03 221.305 1161.45C220.782 1161.88 220.393 1162.45 220.137 1163.15C219.887 1163.85 219.762 1164.62 219.762 1165.45C219.762 1166.29 219.887 1167.06 220.137 1167.76C220.393 1168.46 220.782 1169.02 221.305 1169.44C221.833 1169.86 222.498 1170.07 223.299 1170.07ZM234.33 1164.17V1171.95H231.781V1158.85H234.227V1160.99H234.389C234.691 1160.29 235.162 1159.74 235.804 1159.31C236.452 1158.89 237.267 1158.68 238.25 1158.68C239.142 1158.68 239.923 1158.87 240.594 1159.25C241.264 1159.62 241.784 1160.17 242.154 1160.9C242.523 1161.63 242.708 1162.54 242.708 1163.62V1171.95H240.159V1163.93C240.159 1162.98 239.912 1162.24 239.418 1161.7C238.923 1161.16 238.245 1160.89 237.381 1160.89C236.79 1160.89 236.264 1161.02 235.804 1161.28C235.35 1161.53 234.989 1161.91 234.722 1162.4C234.46 1162.89 234.33 1163.48 234.33 1164.17Z" fill="white"/>
<rect x="445.545" y="1142.95" width="108.911" height="39.604" rx="3" fill="#1E1E1E"/>
<path d="M464.808 1171.95V1154.49H471.2C472.439 1154.49 473.464 1154.7 474.277 1155.1C475.089 1155.51 475.697 1156.06 476.101 1156.75C476.504 1157.44 476.706 1158.21 476.706 1159.08C476.706 1159.8 476.572 1160.42 476.305 1160.92C476.038 1161.41 475.68 1161.81 475.231 1162.11C474.788 1162.41 474.299 1162.62 473.765 1162.76V1162.93C474.345 1162.96 474.91 1163.14 475.461 1163.49C476.018 1163.83 476.478 1164.32 476.842 1164.95C477.206 1165.58 477.388 1166.35 477.388 1167.25C477.388 1168.14 477.177 1168.94 476.757 1169.65C476.342 1170.36 475.7 1170.92 474.831 1171.33C473.961 1171.74 472.851 1171.95 471.498 1171.95H464.808ZM467.442 1169.69H471.243C472.504 1169.69 473.407 1169.44 473.953 1168.95C474.498 1168.47 474.771 1167.85 474.771 1167.12C474.771 1166.57 474.632 1166.06 474.353 1165.6C474.075 1165.14 473.677 1164.78 473.16 1164.51C472.649 1164.23 472.041 1164.1 471.336 1164.1H467.442V1169.69ZM467.442 1162.04H470.97C471.561 1162.04 472.092 1161.93 472.564 1161.7C473.041 1161.47 473.419 1161.16 473.697 1160.75C473.981 1160.33 474.123 1159.84 474.123 1159.28C474.123 1158.56 473.87 1157.95 473.365 1157.47C472.859 1156.98 472.084 1156.73 471.038 1156.73H467.442V1162.04ZM488.143 1166.52V1158.85H490.7V1171.95H488.194V1169.68H488.058C487.757 1170.38 487.274 1170.96 486.609 1171.43C485.95 1171.89 485.129 1172.12 484.146 1172.12C483.305 1172.12 482.561 1171.93 481.913 1171.56C481.271 1171.19 480.765 1170.63 480.396 1169.9C480.032 1169.17 479.851 1168.26 479.851 1167.18V1158.85H482.399V1166.87C482.399 1167.77 482.646 1168.48 483.14 1169.01C483.635 1169.53 484.277 1169.8 485.066 1169.8C485.544 1169.8 486.018 1169.68 486.49 1169.44C486.967 1169.2 487.362 1168.84 487.674 1168.36C487.993 1167.87 488.149 1167.26 488.143 1166.52ZM499.779 1158.85V1160.9H492.628V1158.85H499.779ZM494.546 1155.72H497.094V1168.1C497.094 1168.6 497.168 1168.97 497.316 1169.22C497.463 1169.46 497.654 1169.63 497.887 1169.72C498.125 1169.81 498.384 1169.85 498.662 1169.85C498.867 1169.85 499.046 1169.83 499.199 1169.81C499.353 1169.78 499.472 1169.76 499.557 1169.74L500.017 1171.84C499.87 1171.9 499.659 1171.96 499.387 1172.01C499.114 1172.08 498.773 1172.11 498.364 1172.12C497.694 1172.13 497.069 1172.01 496.489 1171.76C495.909 1171.51 495.441 1171.12 495.083 1170.6C494.725 1170.08 494.546 1169.42 494.546 1168.63V1155.72ZM508.252 1158.85V1160.9H501.102V1158.85H508.252ZM503.02 1155.72H505.568V1168.1C505.568 1168.6 505.642 1168.97 505.789 1169.22C505.937 1169.46 506.127 1169.63 506.36 1169.72C506.599 1169.81 506.858 1169.85 507.136 1169.85C507.341 1169.85 507.52 1169.83 507.673 1169.81C507.826 1169.78 507.946 1169.76 508.031 1169.74L508.491 1171.84C508.343 1171.9 508.133 1171.96 507.86 1172.01C507.588 1172.08 507.247 1172.11 506.838 1172.12C506.167 1172.13 505.542 1172.01 504.963 1171.76C504.383 1171.51 503.914 1171.12 503.556 1170.6C503.199 1170.08 503.02 1169.42 503.02 1168.63V1155.72ZM515.989 1172.21C514.762 1172.21 513.691 1171.93 512.776 1171.37C511.861 1170.8 511.151 1170.02 510.645 1169.01C510.14 1167.99 509.887 1166.81 509.887 1165.46C509.887 1164.1 510.14 1162.91 510.645 1161.9C511.151 1160.88 511.861 1160.09 512.776 1159.53C513.691 1158.97 514.762 1158.68 515.989 1158.68C517.216 1158.68 518.287 1158.97 519.202 1159.53C520.117 1160.09 520.827 1160.88 521.333 1161.9C521.838 1162.91 522.091 1164.1 522.091 1165.46C522.091 1166.81 521.838 1167.99 521.333 1169.01C520.827 1170.02 520.117 1170.8 519.202 1171.37C518.287 1171.93 517.216 1172.21 515.989 1172.21ZM515.997 1170.07C516.793 1170.07 517.452 1169.86 517.975 1169.44C518.497 1169.02 518.884 1168.46 519.134 1167.76C519.39 1167.06 519.517 1166.29 519.517 1165.45C519.517 1164.62 519.39 1163.85 519.134 1163.15C518.884 1162.45 518.497 1161.88 517.975 1161.45C517.452 1161.03 516.793 1160.81 515.997 1160.81C515.196 1160.81 514.532 1161.03 514.003 1161.45C513.48 1161.88 513.091 1162.45 512.836 1163.15C512.586 1163.85 512.461 1164.62 512.461 1165.45C512.461 1166.29 512.586 1167.06 512.836 1167.76C513.091 1168.46 513.48 1169.02 514.003 1169.44C514.532 1169.86 515.196 1170.07 515.997 1170.07ZM527.028 1164.17V1171.95H524.48V1158.85H526.926V1160.99H527.088C527.389 1160.29 527.86 1159.74 528.502 1159.31C529.15 1158.89 529.965 1158.68 530.948 1158.68C531.84 1158.68 532.622 1158.87 533.292 1159.25C533.963 1159.62 534.483 1160.17 534.852 1160.9C535.221 1161.63 535.406 1162.54 535.406 1163.62V1171.95H532.858V1163.93C532.858 1162.98 532.61 1162.24 532.116 1161.7C531.622 1161.16 530.943 1160.89 530.079 1160.89C529.488 1160.89 528.963 1161.02 528.502 1161.28C528.048 1161.53 527.687 1161.91 527.42 1162.4C527.159 1162.89 527.028 1163.48 527.028 1164.17Z" fill="white"/>
<rect x="738.242" y="1142.95" width="108.911" height="39.604" rx="3" fill="#1E1E1E"/>
<path d="M757.505 1171.95V1154.49H763.897C765.136 1154.49 766.161 1154.7 766.974 1155.1C767.786 1155.51 768.394 1156.06 768.798 1156.75C769.201 1157.44 769.403 1158.21 769.403 1159.08C769.403 1159.8 769.269 1160.42 769.002 1160.92C768.735 1161.41 768.377 1161.81 767.929 1162.11C767.485 1162.41 766.997 1162.62 766.463 1162.76V1162.93C767.042 1162.96 767.608 1163.14 768.159 1163.49C768.715 1163.83 769.176 1164.32 769.539 1164.95C769.903 1165.58 770.085 1166.35 770.085 1167.25C770.085 1168.14 769.875 1168.94 769.454 1169.65C769.039 1170.36 768.397 1170.92 767.528 1171.33C766.659 1171.74 765.548 1171.95 764.196 1171.95H757.505ZM760.139 1169.69H763.94C765.201 1169.69 766.105 1169.44 766.65 1168.95C767.196 1168.47 767.468 1167.85 767.468 1167.12C767.468 1166.57 767.329 1166.06 767.051 1165.6C766.772 1165.14 766.375 1164.78 765.858 1164.51C765.346 1164.23 764.738 1164.1 764.034 1164.1H760.139V1169.69ZM760.139 1162.04H763.667C764.258 1162.04 764.789 1161.93 765.261 1161.7C765.738 1161.47 766.116 1161.16 766.394 1160.75C766.679 1160.33 766.821 1159.84 766.821 1159.28C766.821 1158.56 766.568 1157.95 766.062 1157.47C765.556 1156.98 764.781 1156.73 763.735 1156.73H760.139V1162.04ZM780.84 1166.52V1158.85H783.397V1171.95H780.892V1169.68H780.755C780.454 1170.38 779.971 1170.96 779.306 1171.43C778.647 1171.89 777.826 1172.12 776.843 1172.12C776.002 1172.12 775.258 1171.93 774.61 1171.56C773.968 1171.19 773.463 1170.63 773.093 1169.9C772.73 1169.17 772.548 1168.26 772.548 1167.18V1158.85H775.096V1166.87C775.096 1167.77 775.343 1168.48 775.838 1169.01C776.332 1169.53 776.974 1169.8 777.764 1169.8C778.241 1169.8 778.715 1169.68 779.187 1169.44C779.664 1169.2 780.059 1168.84 780.372 1168.36C780.69 1167.87 780.846 1167.26 780.84 1166.52ZM792.476 1158.85V1160.9H785.325V1158.85H792.476ZM787.243 1155.72H789.791V1168.1C789.791 1168.6 789.865 1168.97 790.013 1169.22C790.161 1169.46 790.351 1169.63 790.584 1169.72C790.823 1169.81 791.081 1169.85 791.36 1169.85C791.564 1169.85 791.743 1169.83 791.897 1169.81C792.05 1169.78 792.169 1169.76 792.254 1169.74L792.715 1171.84C792.567 1171.9 792.357 1171.96 792.084 1172.01C791.811 1172.08 791.47 1172.11 791.061 1172.12C790.391 1172.13 789.766 1172.01 789.186 1171.76C788.607 1171.51 788.138 1171.12 787.78 1170.6C787.422 1170.08 787.243 1169.42 787.243 1168.63V1155.72ZM800.95 1158.85V1160.9H793.799V1158.85H800.95ZM795.717 1155.72H798.265V1168.1C798.265 1168.6 798.339 1168.97 798.487 1169.22C798.634 1169.46 798.825 1169.63 799.058 1169.72C799.296 1169.81 799.555 1169.85 799.833 1169.85C800.038 1169.85 800.217 1169.83 800.37 1169.81C800.524 1169.78 800.643 1169.76 800.728 1169.74L801.188 1171.84C801.041 1171.9 800.83 1171.96 800.558 1172.01C800.285 1172.08 799.944 1172.11 799.535 1172.12C798.865 1172.13 798.24 1172.01 797.66 1171.76C797.08 1171.51 796.612 1171.12 796.254 1170.6C795.896 1170.08 795.717 1169.42 795.717 1168.63V1155.72ZM808.686 1172.21C807.459 1172.21 806.388 1171.93 805.473 1171.37C804.558 1170.8 803.848 1170.02 803.342 1169.01C802.837 1167.99 802.584 1166.81 802.584 1165.46C802.584 1164.1 802.837 1162.91 803.342 1161.9C803.848 1160.88 804.558 1160.09 805.473 1159.53C806.388 1158.97 807.459 1158.68 808.686 1158.68C809.913 1158.68 810.985 1158.97 811.899 1159.53C812.814 1160.09 813.524 1160.88 814.03 1161.9C814.536 1162.91 814.788 1164.1 814.788 1165.46C814.788 1166.81 814.536 1167.99 814.03 1169.01C813.524 1170.02 812.814 1170.8 811.899 1171.37C810.985 1171.93 809.913 1172.21 808.686 1172.21ZM808.695 1170.07C809.49 1170.07 810.149 1169.86 810.672 1169.44C811.195 1169.02 811.581 1168.46 811.831 1167.76C812.087 1167.06 812.215 1166.29 812.215 1165.45C812.215 1164.62 812.087 1163.85 811.831 1163.15C811.581 1162.45 811.195 1161.88 810.672 1161.45C810.149 1161.03 809.49 1160.81 808.695 1160.81C807.894 1160.81 807.229 1161.03 806.7 1161.45C806.178 1161.88 805.788 1162.45 805.533 1163.15C805.283 1163.85 805.158 1164.62 805.158 1165.45C805.158 1166.29 805.283 1167.06 805.533 1167.76C805.788 1168.46 806.178 1169.02 806.7 1169.44C807.229 1169.86 807.894 1170.07 808.695 1170.07ZM819.725 1164.17V1171.95H817.177V1158.85H819.623V1160.99H819.785C820.086 1160.29 820.558 1159.74 821.2 1159.31C821.847 1158.89 822.663 1158.68 823.646 1158.68C824.538 1158.68 825.319 1158.87 825.989 1159.25C826.66 1159.62 827.18 1160.17 827.549 1160.9C827.918 1161.63 828.103 1162.54 828.103 1163.62V1171.95H825.555V1163.93C825.555 1162.98 825.308 1162.24 824.813 1161.7C824.319 1161.16 823.64 1160.89 822.776 1160.89C822.185 1160.89 821.66 1161.02 821.2 1161.28C820.745 1161.53 820.384 1161.91 820.117 1162.4C819.856 1162.89 819.725 1163.48 819.725 1164.17Z" fill="white"/>
</g>
<defs>
<clipPath id="clip0_108_2297">
<rect width="1000" height="1397" fill="white"/>
</clipPath>
</defs>
</svg>
