<svg width="152" height="152" viewBox="0 0 152 152" fill="none" xmlns="http://www.w3.org/2000/svg">
<g filter="url(#filter0_d_108_2683)">
<rect x="46" y="10" width="60" height="60" rx="6" fill="white"/>
<g clip-path="url(#clip0_108_2683)">
<path d="M62.2207 46.2695C62.2207 49.0183 59.979 51.2634 57.2298 51.2634C54.4811 51.2634 52.2363 49.0183 52.2363 46.2695C52.2363 43.5208 54.4815 41.2756 57.2302 41.2756H62.2211L62.2207 46.2695ZM64.7366 46.2695C64.7366 43.5208 66.9817 41.2756 69.7305 41.2756C72.4792 41.2756 74.7243 43.5204 74.7243 46.2695V58.7701C74.7243 61.5189 72.4796 63.764 69.7305 63.764C66.9817 63.764 64.7366 61.5189 64.7366 58.7701V46.2695Z" fill="#DE1C59"/>
<path d="M69.7305 26.2207C66.9817 26.2207 64.7366 23.979 64.7366 21.2298C64.7366 18.4811 66.9817 16.2363 69.7305 16.2363C72.4792 16.2363 74.7243 18.4815 74.7243 21.2302V26.2211L69.7305 26.2207ZM69.7305 28.7366C72.4792 28.7366 74.7243 30.9817 74.7243 33.7305C74.7243 36.4792 72.4796 38.7243 69.7305 38.7243H57.2298C54.4811 38.7243 52.2363 36.4796 52.2363 33.7305C52.2363 30.9817 54.4815 28.7366 57.2302 28.7366H69.7305Z" fill="#35C5F0"/>
<path d="M89.779 33.7305C89.779 30.9817 92.0208 28.7366 94.7699 28.7366C97.5186 28.7366 99.7638 30.9817 99.7638 33.7305C99.7638 36.4792 97.5186 38.7243 94.7699 38.7243H89.779V33.7305ZM87.2631 33.7305C87.2631 36.4792 85.018 38.7243 82.2693 38.7243C79.5205 38.7243 77.2754 36.4796 77.2754 33.7305V21.2298C77.2754 18.4811 79.5201 16.2363 82.2693 16.2363C85.018 16.2363 87.2631 18.4815 87.2631 21.2302V33.7305Z" fill="#2EB57D"/>
<path d="M82.2693 53.7793C85.018 53.7793 87.2631 56.021 87.2631 58.7701C87.2631 61.5189 85.018 63.764 82.2693 63.764C79.5205 63.764 77.2754 61.5189 77.2754 58.7701V53.7793H82.2693ZM82.2693 51.2634C79.5205 51.2634 77.2754 49.0183 77.2754 46.2695C77.2754 43.5208 79.5201 41.2756 82.2693 41.2756H94.7699C97.5186 41.2756 99.7638 43.5204 99.7638 46.2695C99.7638 49.0183 97.5186 51.2634 94.7699 51.2634H82.2693Z" fill="#EBB02E"/>
</g>
</g>
<g filter="url(#filter1_d_108_2683)">
<rect x="10" y="82" width="60" height="60" rx="6" fill="white"/>
<path d="M62.7831 107.268L62.7167 107.099L56.3012 90.3557C56.1706 90.0275 55.9395 89.749 55.6408 89.5603C55.3421 89.3748 54.9937 89.2854 54.6425 89.3043C54.2914 89.3231 53.9545 89.4493 53.6773 89.6657C53.4033 89.8883 53.2045 90.19 53.1081 90.5297L48.7765 103.783H31.2358L26.9038 90.5297C26.8099 90.1883 26.6107 89.8852 26.3346 89.6634C26.0574 89.447 25.7205 89.3209 25.3694 89.302C25.0183 89.2832 24.6698 89.3726 24.3711 89.5581C24.0732 89.7476 23.8423 90.0258 23.7107 90.3534L17.2832 107.089L17.2195 107.258C15.3223 112.216 16.9333 117.83 21.1708 121.027L21.193 121.044L21.2518 121.086L31.0247 128.404L35.8596 132.064L38.8048 134.287C39.1494 134.549 39.57 134.69 40.0026 134.69C40.4351 134.69 40.8558 134.549 41.2003 134.287L44.1456 132.064L48.9805 128.404L58.8122 121.042L58.8366 121.022C63.064 117.825 64.6723 112.22 62.7831 107.268Z" fill="#E24329"/>
<path d="M62.7831 107.268L62.7168 107.099C59.5907 107.74 56.6449 109.064 54.0899 110.977L40 121.631C44.7981 125.261 48.9752 128.414 48.9752 128.414L58.807 121.052L58.8314 121.032C63.0655 117.835 64.6761 112.224 62.7831 107.268Z" fill="#FC6D26"/>
<path d="M31.0244 128.414L35.8593 132.073L38.8045 134.297C39.1491 134.559 39.5697 134.7 40.0023 134.7C40.4348 134.7 40.8555 134.559 41.2 134.297L44.1453 132.073L48.9802 128.414C48.9802 128.414 44.7982 125.251 40 121.63C37.0063 123.889 34.0144 126.15 31.0244 128.414Z" fill="#FCA326"/>
<path d="M25.9075 110.977C23.3545 109.061 20.4094 107.733 17.2832 107.089L17.2195 107.259C15.3223 112.216 16.9333 117.831 21.1708 121.027L21.193 121.044L21.2518 121.086L31.0247 128.404L40 121.621L25.9075 110.977Z" fill="#FC6D26"/>
</g>
<g filter="url(#filter2_d_108_2683)">
<rect x="82" y="82" width="60" height="60" rx="6" fill="white"/>
<g clip-path="url(#clip1_108_2683)">
<path d="M116.593 88.0938L121.491 88.126C121.583 88.1976 121.657 88.2445 121.737 88.2797C122.624 88.681 123.586 88.9683 124.386 89.5015C126.705 91.0428 128.97 92.6669 131.233 94.2903C132.285 95.0429 133.322 95.8266 134.292 96.679C135.012 97.312 135.336 98.2101 135.338 99.1679L135.336 129.307C135.335 129.727 135.263 130.16 135.146 130.564C134.614 132.407 133.435 133.668 131.579 134.16C130.6 134.419 129.566 134.5 128.551 134.584C126.967 134.715 125.378 134.78 123.792 134.875L120.79 135.062L115.984 135.345L113.029 135.53L108.177 135.811L105.669 135.914C105.588 135.918 105.513 136.031 105.437 136.094C103.528 136.094 101.621 136.094 99.6963 136.063C99.6041 135.99 99.534 135.931 99.4518 135.908C98.2886 135.571 97.3132 134.928 96.5632 133.995C95.5245 132.704 94.5375 131.374 93.5385 130.053C92.3107 128.429 91.0511 126.83 89.8908 125.16C89.2089 124.185 88.8436 123.023 88.8446 121.832C88.8413 112.931 88.8425 104.029 88.848 95.128C88.848 94.8715 88.893 94.6124 88.9372 94.3574C89.403 91.6169 91.4317 90.1547 93.8445 89.8836C95.097 89.743 96.3581 89.68 97.6166 89.5967L100.943 89.4048L102.373 89.311L106.685 88.939L109.076 88.7515L113.035 88.4702L116.362 88.2738C116.443 88.2681 116.517 88.1567 116.593 88.0938ZM97.7291 130.819C97.9286 131.078 98.151 131.324 98.3253 131.6C99.1706 132.922 100.382 133.403 101.922 133.3L112.35 132.679L124.086 131.97L129.929 131.594C131.661 131.455 132.497 130.519 132.531 128.781V128.406L132.544 99.9576C132.546 99.1007 132.25 98.5015 131.564 98.0226L123.305 92.2026C121.977 91.2359 120.566 90.7847 118.933 90.9137L109.684 91.5977L100.013 92.311L93.9427 92.7843C92.7165 92.8968 91.9563 93.6468 91.7366 94.8498C91.6829 95.1568 91.6569 95.4681 91.659 95.7798L91.6338 120.62C91.6252 122.248 92.1232 123.602 93.0975 124.847L97.7291 130.819Z" fill="white"/>
<path d="M97.7074 130.794L93.0975 124.846C92.1233 123.601 91.6253 122.248 91.6339 120.62L91.659 95.7797C91.659 95.4692 91.6823 95.1542 91.7366 94.8497C91.9564 93.6471 92.7165 92.8971 93.9428 92.7842L100.013 92.3109L109.684 91.5977L118.933 90.9137C120.566 90.7847 121.977 91.2358 123.305 92.2026C126.029 94.1844 128.803 96.0962 131.564 98.0226C132.25 98.5014 132.546 99.1007 132.544 99.9576L132.531 128.408V128.783C132.497 130.519 131.661 131.455 129.929 131.594C127.984 131.75 126.035 131.852 124.086 131.97L112.35 132.679L101.922 133.3C100.382 133.403 99.1706 132.922 98.3254 131.6C98.151 131.324 97.9286 131.078 97.7074 130.794ZM100.11 113.547V126.105L100.113 128.447C100.133 129.497 100.647 130.021 101.697 130.081C101.961 130.095 102.228 130.086 102.493 130.07L111.284 129.552L128.07 128.592C129.117 128.534 129.6 128.075 129.698 127.038C129.717 126.852 129.711 126.663 129.711 126.476L129.713 102.297C129.713 102.156 129.717 102.016 129.708 101.875C129.645 100.913 129.232 100.52 128.276 100.571L119.624 101.069C115.572 101.305 111.52 101.542 107.468 101.781L101.39 102.146C100.615 102.196 100.265 102.53 100.148 103.287C100.12 103.488 100.108 103.691 100.111 103.894L100.11 113.547ZM121.549 93.7742C120.815 93.3759 120.018 93.2439 119.198 93.2893C117.937 93.3583 116.676 93.4622 115.414 93.5533L97.4333 94.8598C96.8899 94.8992 96.3435 94.9386 95.8073 95.0357C95.6273 95.0679 95.4 95.2494 95.3445 95.4137C95.3033 95.5292 95.4851 95.7624 95.6183 95.8899C95.8646 96.1254 96.1485 96.3231 96.417 96.5357C97.0541 97.0382 97.7321 97.4964 98.3168 98.0518C99.4256 99.1048 100.716 99.3482 102.194 99.2413L113.832 98.5116L126.361 97.7601C126.476 97.7544 126.59 97.7192 126.842 97.6723C126.612 97.4334 126.478 97.2504 126.304 97.1214C125.69 96.6681 125.071 96.2228 124.445 95.7857C123.484 95.1087 122.519 94.4382 121.549 93.7742Z" fill="black"/>
<path d="M100.11 113.5L100.112 103.894C100.112 103.691 100.118 103.486 100.149 103.287C100.266 102.53 100.616 102.196 101.391 102.146L107.468 101.781L119.625 101.07L128.276 100.571C129.233 100.52 129.646 100.914 129.709 101.875C129.718 102.016 129.713 102.156 129.713 102.297L129.712 126.476L129.699 127.038C129.601 128.075 129.117 128.534 128.071 128.592L111.284 129.552L102.493 130.07L101.698 130.081C100.648 130.021 100.134 129.498 100.113 128.449L100.11 126.105V113.5ZM117.273 113.525L112.447 106.173C112.279 105.916 112.113 105.832 111.803 105.865L109.746 106.004L105.962 106.281C105.032 106.366 104.47 107.241 104.727 108.148L106.731 108.319V124.554L105.366 124.939C104.761 125.118 104.502 125.628 104.706 126.279L109.321 126.014L111.139 125.865C111.923 125.736 112.345 125.256 112.45 124.472L109.926 123.896V111.685L110.114 111.948L115.914 121.005C116.767 122.327 117.643 123.635 118.541 124.927C119.181 125.846 120.124 126.127 121.185 125.898C121.849 125.757 122.486 125.487 123.136 125.277C123.475 125.167 123.59 124.965 123.589 124.586L123.577 107.898C123.577 106.923 123.577 106.923 124.542 106.728C125.518 106.532 125.763 106.142 125.54 105.099L119.709 105.454C119.074 105.499 118.594 106.029 118.497 106.646C118.45 106.944 118.512 107.107 118.867 107.128L120.633 107.323V118.64C119.515 116.934 118.395 115.23 117.273 113.526V113.525ZM121.582 93.7904C122.539 94.4515 123.493 95.1165 124.445 95.7854C125.071 96.2227 125.691 96.6681 126.304 97.1215C126.478 97.2505 126.612 97.4335 126.842 97.6724L126.361 97.7602L113.833 98.5117L102.195 99.2414C100.716 99.3483 99.4259 99.1049 98.3171 98.0519C97.7324 97.4969 97.0544 97.0383 96.4169 96.5358C96.1488 96.3232 95.8649 96.1255 95.6186 95.8897C95.4854 95.7622 95.3036 95.5297 95.3448 95.4134C95.4003 95.2495 95.6291 95.068 95.8076 95.0358C96.3438 94.939 96.8902 94.8993 97.4336 94.8599L115.415 93.5534L119.199 93.2894C120.019 93.2444 120.816 93.3757 121.582 93.7904Z" fill="white"/>
<path d="M117.292 113.553L120.633 118.64V107.323L118.867 107.128C118.511 107.107 118.45 106.944 118.497 106.646C118.593 106.029 119.074 105.499 119.708 105.454L125.539 105.099C125.762 106.142 125.518 106.532 124.542 106.728C123.577 106.921 123.577 106.921 123.577 107.898L123.588 124.586C123.59 124.965 123.474 125.167 123.136 125.277L121.185 125.898C120.124 126.126 119.181 125.846 118.541 124.927C117.643 123.635 116.767 122.327 115.914 121.005L110.113 111.947C110.072 111.883 110.025 111.823 109.926 111.685V123.896L112.45 124.472C112.344 125.256 111.922 125.736 111.139 125.865C110.541 125.963 109.927 125.977 109.321 126.014L104.705 126.279C104.502 125.628 104.761 125.118 105.366 124.939L106.731 124.554V108.319L104.727 108.148C104.469 107.241 105.032 106.366 105.962 106.281C107.22 106.164 108.484 106.092 109.746 106.005C110.431 105.958 111.12 105.94 111.802 105.865C112.113 105.832 112.279 105.916 112.447 106.173L117.292 113.553Z" fill="black"/>
</g>
</g>
<defs>
<filter id="filter0_d_108_2683" x="36" y="0" width="80" height="80" filterUnits="userSpaceOnUse" color-interpolation-filters="sRGB">
<feFlood flood-opacity="0" result="BackgroundImageFix"/>
<feColorMatrix in="SourceAlpha" type="matrix" values="0 0 0 0 0 0 0 0 0 0 0 0 0 0 0 0 0 0 127 0" result="hardAlpha"/>
<feOffset/>
<feGaussianBlur stdDeviation="5"/>
<feComposite in2="hardAlpha" operator="out"/>
<feColorMatrix type="matrix" values="0 0 0 0 0.0666667 0 0 0 0 0.0666667 0 0 0 0 0.0666667 0 0 0 0.25 0"/>
<feBlend mode="normal" in2="BackgroundImageFix" result="effect1_dropShadow_108_2683"/>
<feBlend mode="normal" in="SourceGraphic" in2="effect1_dropShadow_108_2683" result="shape"/>
</filter>
<filter id="filter1_d_108_2683" x="0" y="72" width="80" height="80" filterUnits="userSpaceOnUse" color-interpolation-filters="sRGB">
<feFlood flood-opacity="0" result="BackgroundImageFix"/>
<feColorMatrix in="SourceAlpha" type="matrix" values="0 0 0 0 0 0 0 0 0 0 0 0 0 0 0 0 0 0 127 0" result="hardAlpha"/>
<feOffset/>
<feGaussianBlur stdDeviation="5"/>
<feComposite in2="hardAlpha" operator="out"/>
<feColorMatrix type="matrix" values="0 0 0 0 0.0666667 0 0 0 0 0.0666667 0 0 0 0 0.0666667 0 0 0 0.25 0"/>
<feBlend mode="normal" in2="BackgroundImageFix" result="effect1_dropShadow_108_2683"/>
<feBlend mode="normal" in="SourceGraphic" in2="effect1_dropShadow_108_2683" result="shape"/>
</filter>
<filter id="filter2_d_108_2683" x="72" y="72" width="80" height="80" filterUnits="userSpaceOnUse" color-interpolation-filters="sRGB">
<feFlood flood-opacity="0" result="BackgroundImageFix"/>
<feColorMatrix in="SourceAlpha" type="matrix" values="0 0 0 0 0 0 0 0 0 0 0 0 0 0 0 0 0 0 127 0" result="hardAlpha"/>
<feOffset/>
<feGaussianBlur stdDeviation="5"/>
<feComposite in2="hardAlpha" operator="out"/>
<feColorMatrix type="matrix" values="0 0 0 0 0.0666667 0 0 0 0 0.0666667 0 0 0 0 0.0666667 0 0 0 0.25 0"/>
<feBlend mode="normal" in2="BackgroundImageFix" result="effect1_dropShadow_108_2683"/>
<feBlend mode="normal" in="SourceGraphic" in2="effect1_dropShadow_108_2683" result="shape"/>
</filter>
<clipPath id="clip0_108_2683">
<rect width="48" height="48" fill="white" transform="translate(52 16)"/>
</clipPath>
<clipPath id="clip1_108_2683">
<rect width="48" height="48" fill="white" transform="translate(88 88)"/>
</clipPath>
</defs>
</svg>
