<svg width="152" height="152" viewBox="0 0 152 152" fill="none" xmlns="http://www.w3.org/2000/svg">
<g filter="url(#filter0_d_108_2510)">
<rect x="10" y="10" width="60" height="60" rx="6" fill="white"/>
<path d="M23.1386 58.7034L19.3867 16.6228H60.6127L56.8567 58.697L39.9746 63.377L23.1386 58.7034Z" fill="#E44D26"/>
<path d="M40 59.8L53.6417 56.0177L56.8514 20.0635H40V59.8Z" fill="#F16529"/>
<path d="M40.0002 35.6706H33.1707L32.699 30.3854H40.0002V25.2246H27.0586L27.1823 26.6091L28.4506 40.8317H40.0002V35.6706ZM40.0002 49.0742L39.9773 49.0806L34.2297 47.5281L33.8626 43.4125H28.6812L29.4042 51.5159L39.9766 54.4506L40.0002 54.4442V49.0742Z" fill="#EBEBEB"/>
<path d="M39.9824 35.6706V40.8317H46.3375L45.7387 47.5251L39.9824 49.0787V54.4484L50.563 51.5159L50.6407 50.644L51.8534 37.0566L51.979 35.6706H50.5885H39.9824ZM39.9824 25.2246V30.3854H52.4489L52.5524 29.2259L52.7879 26.6091L52.9113 25.2246H39.9824Z" fill="white"/>
</g>
<g filter="url(#filter1_d_108_2510)">
<rect x="82" y="10" width="60" height="60" rx="6" fill="white"/>
<path d="M95.0554 58.7962L91.2852 16.5071H132.715L128.941 58.7898L111.975 63.4935L95.0554 58.7962Z" fill="#1572B6"/>
<path d="M112 59.8983L125.71 56.0974L128.935 19.9646H112V59.8983Z" fill="#33A9DC"/>
<path d="M112 35.2858H118.863L119.337 29.9747H112V24.7881H125.006L124.881 26.1797L123.606 40.4725H112V35.2858Z" fill="white"/>
<path d="M112.031 48.7559L112.008 48.7627L106.232 47.203L105.863 43.0664H100.657L101.384 51.2103L112.008 54.1589L112.031 54.1522V48.7559Z" fill="#EBEBEB"/>
<path d="M118.422 40.2532L117.797 47.1989L112.013 48.7604V54.1567L122.645 51.2099L122.723 50.3335L123.626 40.2532H118.422Z" fill="white"/>
<path d="M112.018 24.7881V29.9747H99.4896L99.3858 28.8092L99.1495 26.1797L99.0254 24.7881H112.018ZM112 35.2866V40.4732H106.297L106.193 39.3077L105.956 36.6782L105.832 35.2866H112Z" fill="#EBEBEB"/>
</g>
<g filter="url(#filter2_d_108_2510)">
<rect x="10" y="82" width="60" height="60" rx="6" fill="white"/>
<g clip-path="url(#clip0_108_2510)">
<path d="M16.75 88.375V135.25H63.625V88.375H16.75ZM41.5446 128.317C40.8528 129.723 39.532 130.647 38.0016 131.093C35.65 131.633 33.4007 131.325 31.7275 130.321C30.6077 129.634 29.7333 128.576 29.1396 127.358L32.7096 125.172C32.7407 125.185 32.8345 125.354 32.9598 125.573C33.415 126.336 33.8076 126.876 34.5794 127.255C35.3376 127.514 37.0023 127.679 37.645 126.345C38.0376 125.666 37.9127 123.484 37.9127 121.071C37.9124 117.277 37.93 113.5 37.93 109.75H42.3209C42.3209 113.875 42.3434 117.782 42.3209 121.807C42.3303 124.275 42.5444 126.474 41.5446 128.317ZM59.7599 127.077C58.2336 132.298 49.7241 132.467 46.3236 129.018C45.6051 128.206 45.1547 127.782 44.7261 126.845C46.5332 125.805 46.5332 125.805 48.2916 124.788C49.2467 126.256 50.1299 127.063 51.7188 127.394C53.8743 127.657 56.0429 126.916 55.5565 124.627C55.0566 122.757 51.1428 122.302 48.4791 120.303C45.775 118.487 45.1413 114.074 47.3635 111.552C48.1041 110.62 49.3671 109.924 50.6924 109.589L52.0754 109.41C54.7307 109.357 56.3905 110.058 57.6089 111.418C57.9479 111.762 58.2246 112.132 58.7421 112.935C57.3276 113.837 57.3321 113.828 55.306 115.14C54.8733 114.208 54.1551 113.623 53.3961 113.368C52.2179 113.011 50.7321 113.4 50.4239 114.645C50.317 115.028 50.3391 115.385 50.509 116.019C50.9864 117.108 52.5884 117.581 54.0254 118.241C58.162 119.919 59.5589 121.718 59.9024 123.859C60.2331 125.703 59.8225 126.898 59.7599 127.077Z" fill="#F0DB4F"/>
</g>
</g>
<g filter="url(#filter3_d_108_2510)">
<rect x="82" y="82" width="60" height="60" rx="6" fill="white"/>
<path d="M112.001 116.275C114.362 116.275 116.276 114.361 116.276 112C116.276 109.639 114.362 107.725 112.001 107.725C109.64 107.725 107.726 109.639 107.726 112C107.726 114.361 109.64 116.275 112.001 116.275Z" fill="#61DAFB"/>
<path d="M128.238 104.95C127.413 104.65 126.55 104.35 125.65 104.088C125.875 103.188 126.063 102.288 126.213 101.425C127 96.4751 126.138 92.9876 123.738 91.6376C123.025 91.2251 122.238 91.0376 121.338 91.0376C118.713 91.0376 115.375 92.9876 112 96.2501C108.625 92.9876 105.288 91.0376 102.663 91.0376C101.763 91.0376 100.975 91.2251 100.263 91.6376C97.8629 93.0251 97.0004 96.5126 97.7879 101.425C97.9379 102.288 98.1254 103.188 98.3504 104.088C97.4504 104.35 96.5879 104.613 95.7629 104.95C91.0754 106.75 88.5254 109.225 88.5254 112C88.5254 114.775 91.1129 117.25 95.7629 119.05C96.5879 119.35 97.4504 119.65 98.3504 119.913C98.1254 120.813 97.9379 121.713 97.7879 122.575C97.0004 127.525 97.8629 131.013 100.263 132.363C100.975 132.775 101.763 132.963 102.663 132.963C105.325 132.963 108.663 131.013 112 127.75C115.375 131.013 118.713 132.963 121.338 132.963C122.238 132.963 123.025 132.775 123.738 132.363C126.138 130.975 127 127.488 126.213 122.575C126.063 121.713 125.875 120.813 125.65 119.913C126.55 119.65 127.413 119.388 128.238 119.05C132.925 117.25 135.475 114.775 135.475 112C135.475 109.225 132.925 106.75 128.238 104.95ZM122.688 93.5126C124.225 94.4126 124.75 97.1876 124.113 101.125C124 101.913 123.813 102.738 123.588 103.6C121.638 103.15 119.575 102.85 117.4 102.663C116.125 100.863 114.813 99.2501 113.5 97.7876C116.275 95.0501 119.088 93.1751 121.375 93.1751C121.863 93.1751 122.313 93.2876 122.688 93.5126ZM118.488 115.75C117.813 116.95 117.025 118.15 116.2 119.35C114.813 119.463 113.425 119.5 112 119.5C110.538 119.5 109.15 119.463 107.8 119.35C106.975 118.15 106.225 116.95 105.55 115.75C104.838 114.513 104.163 113.238 103.563 112C104.163 110.763 104.838 109.488 105.55 108.25C106.225 107.05 107.013 105.85 107.838 104.65C109.225 104.538 110.613 104.5 112.038 104.5C113.5 104.5 114.888 104.538 116.238 104.65C117.063 105.85 117.813 107.05 118.488 108.25C119.2 109.488 119.875 110.763 120.475 112C119.838 113.238 119.2 114.475 118.488 115.75ZM121.6 114.513C122.163 115.825 122.613 117.1 123.025 118.375C121.75 118.675 120.4 118.9 118.975 119.088C119.425 118.375 119.913 117.625 120.325 116.838C120.775 116.05 121.188 115.263 121.6 114.513ZM112 124.675C111.1 123.7 110.238 122.65 109.413 121.563C110.275 121.6 111.138 121.638 112 121.638C112.863 121.638 113.725 121.6 114.588 121.563C113.763 122.65 112.9 123.7 112 124.675ZM105.025 119.05C103.6 118.863 102.25 118.638 100.975 118.338C101.388 117.1 101.838 115.788 102.4 114.475C102.813 115.225 103.225 116.013 103.675 116.763C104.125 117.588 104.575 118.3 105.025 119.05ZM102.4 109.488C101.838 108.175 101.388 106.9 100.975 105.625C102.25 105.325 103.6 105.1 105.025 104.913C104.575 105.625 104.088 106.375 103.675 107.163C103.225 107.95 102.813 108.738 102.4 109.488ZM112 99.3251C112.9 100.3 113.763 101.35 114.588 102.438C113.725 102.4 112.863 102.363 112 102.363C111.138 102.363 110.275 102.4 109.413 102.438C110.238 101.35 111.1 100.3 112 99.3251ZM120.325 107.2L118.975 104.95C120.4 105.138 121.75 105.363 123.025 105.663C122.613 106.9 122.163 108.213 121.6 109.525C121.188 108.738 120.775 107.95 120.325 107.2ZM99.8879 101.125C99.2504 97.1876 99.7754 94.4126 101.313 93.5126C101.688 93.2876 102.138 93.1751 102.625 93.1751C104.875 93.1751 107.688 95.0126 110.5 97.7876C109.188 99.2126 107.875 100.863 106.6 102.663C104.425 102.85 102.363 103.188 100.413 103.6C100.188 102.738 100.038 101.913 99.8879 101.125ZM90.6254 112C90.6254 110.238 92.7629 108.363 96.5129 106.975C97.2629 106.675 98.0879 106.413 98.9129 106.188C99.5129 108.063 100.263 110.05 101.163 112.038C100.263 114.025 99.4754 115.975 98.9129 117.85C93.7379 116.35 90.6254 114.1 90.6254 112ZM101.313 130.488C99.7754 129.588 99.2504 126.813 99.8879 122.875C100 122.088 100.188 121.263 100.413 120.4C102.363 120.85 104.425 121.15 106.6 121.338C107.875 123.138 109.188 124.75 110.5 126.213C107.725 128.95 104.913 130.825 102.625 130.825C102.138 130.825 101.688 130.713 101.313 130.488ZM124.113 122.875C124.75 126.813 124.225 129.588 122.688 130.488C122.313 130.713 121.863 130.825 121.375 130.825C119.125 130.825 116.313 128.988 113.5 126.213C114.813 124.788 116.125 123.138 117.4 121.338C119.575 121.15 121.638 120.813 123.588 120.4C123.813 121.263 123.963 122.088 124.113 122.875ZM127.488 117.025C126.738 117.325 125.913 117.588 125.088 117.813C124.488 115.938 123.738 113.95 122.838 111.963C123.738 109.975 124.525 108.025 125.088 106.15C130.263 107.65 133.375 109.9 133.375 112C133.375 113.763 131.2 115.638 127.488 117.025Z" fill="#61DAFB"/>
</g>
<defs>
<filter id="filter0_d_108_2510" x="0" y="0" width="80" height="80" filterUnits="userSpaceOnUse" color-interpolation-filters="sRGB">
<feFlood flood-opacity="0" result="BackgroundImageFix"/>
<feColorMatrix in="SourceAlpha" type="matrix" values="0 0 0 0 0 0 0 0 0 0 0 0 0 0 0 0 0 0 127 0" result="hardAlpha"/>
<feOffset/>
<feGaussianBlur stdDeviation="5"/>
<feComposite in2="hardAlpha" operator="out"/>
<feColorMatrix type="matrix" values="0 0 0 0 0.0666667 0 0 0 0 0.0666667 0 0 0 0 0.0666667 0 0 0 0.25 0"/>
<feBlend mode="normal" in2="BackgroundImageFix" result="effect1_dropShadow_108_2510"/>
<feBlend mode="normal" in="SourceGraphic" in2="effect1_dropShadow_108_2510" result="shape"/>
</filter>
<filter id="filter1_d_108_2510" x="72" y="0" width="80" height="80" filterUnits="userSpaceOnUse" color-interpolation-filters="sRGB">
<feFlood flood-opacity="0" result="BackgroundImageFix"/>
<feColorMatrix in="SourceAlpha" type="matrix" values="0 0 0 0 0 0 0 0 0 0 0 0 0 0 0 0 0 0 127 0" result="hardAlpha"/>
<feOffset/>
<feGaussianBlur stdDeviation="5"/>
<feComposite in2="hardAlpha" operator="out"/>
<feColorMatrix type="matrix" values="0 0 0 0 0.0666667 0 0 0 0 0.0666667 0 0 0 0 0.0666667 0 0 0 0.25 0"/>
<feBlend mode="normal" in2="BackgroundImageFix" result="effect1_dropShadow_108_2510"/>
<feBlend mode="normal" in="SourceGraphic" in2="effect1_dropShadow_108_2510" result="shape"/>
</filter>
<filter id="filter2_d_108_2510" x="0" y="72" width="80" height="80" filterUnits="userSpaceOnUse" color-interpolation-filters="sRGB">
<feFlood flood-opacity="0" result="BackgroundImageFix"/>
<feColorMatrix in="SourceAlpha" type="matrix" values="0 0 0 0 0 0 0 0 0 0 0 0 0 0 0 0 0 0 127 0" result="hardAlpha"/>
<feOffset/>
<feGaussianBlur stdDeviation="5"/>
<feComposite in2="hardAlpha" operator="out"/>
<feColorMatrix type="matrix" values="0 0 0 0 0.0666667 0 0 0 0 0.0666667 0 0 0 0 0.0666667 0 0 0 0.25 0"/>
<feBlend mode="normal" in2="BackgroundImageFix" result="effect1_dropShadow_108_2510"/>
<feBlend mode="normal" in="SourceGraphic" in2="effect1_dropShadow_108_2510" result="shape"/>
</filter>
<filter id="filter3_d_108_2510" x="72" y="72" width="80" height="80" filterUnits="userSpaceOnUse" color-interpolation-filters="sRGB">
<feFlood flood-opacity="0" result="BackgroundImageFix"/>
<feColorMatrix in="SourceAlpha" type="matrix" values="0 0 0 0 0 0 0 0 0 0 0 0 0 0 0 0 0 0 127 0" result="hardAlpha"/>
<feOffset/>
<feGaussianBlur stdDeviation="5"/>
<feComposite in2="hardAlpha" operator="out"/>
<feColorMatrix type="matrix" values="0 0 0 0 0.0666667 0 0 0 0 0.0666667 0 0 0 0 0.0666667 0 0 0 0.25 0"/>
<feBlend mode="normal" in2="BackgroundImageFix" result="effect1_dropShadow_108_2510"/>
<feBlend mode="normal" in="SourceGraphic" in2="effect1_dropShadow_108_2510" result="shape"/>
</filter>
<clipPath id="clip0_108_2510">
<rect width="48" height="48" fill="white" transform="translate(16 88)"/>
</clipPath>
</defs>
</svg>
