<svg width="218" height="36" viewBox="0 0 218 36" fill="none" xmlns="http://www.w3.org/2000/svg">
<path d="M0 8H6C11.5228 8 16 12.4772 16 18C16 23.5228 11.5228 28 6 28H0V8Z" fill="#2F6FD6"/>
<path d="M23.8288 7C24.5043 7 25.0554 7.21333 25.4821 7.64C25.9088 8.06667 26.1221 8.61778 26.1221 9.29333C26.1221 9.61333 26.0776 9.93333 25.9888 10.2533C25.9176 10.5733 25.7576 11.0533 25.5088 11.6933L24.0688 15.48H21.7221L22.8154 11.3733C22.4065 11.1956 22.0865 10.9289 21.8554 10.5733C21.6243 10.2178 21.5087 9.79111 21.5087 9.29333C21.5087 8.61778 21.731 8.06667 22.1754 7.64C22.6199 7.21333 23.171 7 23.8288 7ZM32.5221 27.1867C31.4199 27.1867 30.3354 27.0356 29.2688 26.7333C28.2199 26.4311 27.3754 26.0489 26.7354 25.5867L27.9088 22.9733C28.5132 23.4 29.2421 23.7467 30.0954 24.0133C30.9488 24.28 31.811 24.4133 32.6821 24.4133C34.531 24.4133 35.4554 23.8978 35.4554 22.8667C35.4554 22.3867 35.2154 22.0489 34.7354 21.8533C34.2554 21.6578 33.491 21.4711 32.4421 21.2933C31.3399 21.1156 30.4332 20.9111 29.7221 20.68C29.011 20.4311 28.3976 20.0222 27.8821 19.4533C27.3665 18.8667 27.1088 18.0578 27.1088 17.0267C27.1088 16.1556 27.3488 15.3822 27.8288 14.7067C28.3088 14.0311 29.0021 13.5067 29.9087 13.1333C30.8154 12.7422 31.8999 12.5467 33.1621 12.5467C34.1043 12.5467 35.0376 12.6622 35.9621 12.8933C36.9043 13.1067 37.6776 13.4178 38.2821 13.8267L37.1088 16.4133C35.9176 15.6667 34.6021 15.2933 33.1621 15.2933C32.2376 15.2933 31.5443 15.4444 31.0821 15.7467C30.6376 16.0311 30.4154 16.4133 30.4154 16.8933C30.4154 17.4089 30.6554 17.7733 31.1354 17.9867C31.6332 18.1822 32.4243 18.3778 33.5088 18.5733C34.611 18.7689 35.5088 18.9822 36.2021 19.2133C36.8954 19.4444 37.491 19.8444 37.9888 20.4133C38.5043 20.9822 38.7621 21.7733 38.7621 22.7867C38.7621 24.1022 38.211 25.1689 37.1088 25.9867C36.0065 26.7867 34.4776 27.1867 32.5221 27.1867ZM66.6651 27H62.8251L58.6384 13.5867L54.3184 27H50.5051L44.6384 8.33333H48.3718L52.6118 22.1467L57.0651 8.33333H60.3718L64.7184 22.2267L69.0918 8.33333H72.5051L66.6651 27ZM85.8073 19.88C85.8073 19.9511 85.7806 20.28 85.7273 20.8667H75.2473C75.4073 21.9156 75.8606 22.7422 76.6073 23.3467C77.3717 23.9511 78.3228 24.2533 79.4606 24.2533C80.9006 24.2533 82.0917 23.7556 83.034 22.76L84.874 24.8667C83.5762 26.4133 81.7362 27.1867 79.354 27.1867C77.8606 27.1867 76.5362 26.8756 75.3806 26.2533C74.2251 25.6133 73.3273 24.7422 72.6873 23.64C72.0651 22.52 71.754 21.2578 71.754 19.8533C71.754 18.4489 72.0562 17.1956 72.6606 16.0933C73.2828 14.9733 74.1362 14.1022 75.2206 13.48C76.3051 12.8578 77.514 12.5467 78.8473 12.5467C80.1628 12.5467 81.3451 12.8489 82.394 13.4533C83.4606 14.0578 84.2962 14.9111 84.9006 16.0133C85.5051 17.1156 85.8073 18.4044 85.8073 19.88ZM78.874 15.2933C77.8962 15.2933 77.0695 15.6044 76.394 16.2267C75.7362 16.8489 75.3362 17.6756 75.194 18.7067H82.554C82.4117 17.6933 82.0028 16.8756 81.3273 16.2533C80.6695 15.6133 79.8517 15.2933 78.874 15.2933ZM95.9419 12.5467C97.2041 12.5467 98.3419 12.8489 99.3552 13.4533C100.386 14.0578 101.195 14.92 101.782 16.04C102.369 17.1422 102.662 18.4133 102.662 19.8533C102.662 21.3111 102.369 22.6 101.782 23.72C101.195 24.8222 100.386 25.6756 99.3552 26.28C98.3419 26.8844 97.2041 27.1867 95.9419 27.1867C94.9641 27.1867 94.093 27 93.3285 26.6267C92.5641 26.2533 91.933 25.7111 91.4352 25V27H88.1285V7.21333H91.5952V14.6C92.093 13.9244 92.7152 13.4178 93.4619 13.08C94.2085 12.7244 95.0352 12.5467 95.9419 12.5467ZM95.3819 24.2C96.4841 24.2 97.3908 23.8089 98.1019 23.0267C98.8308 22.2267 99.1952 21.1689 99.1952 19.8533C99.1952 18.5378 98.8308 17.4889 98.1019 16.7067C97.3908 15.9244 96.4841 15.5333 95.3819 15.5333C94.2619 15.5333 93.3374 15.9244 92.6085 16.7067C91.8974 17.4889 91.5419 18.5378 91.5419 19.8533C91.5419 21.1689 91.8974 22.2267 92.6085 23.0267C93.3374 23.8089 94.2619 24.2 95.3819 24.2ZM117.77 8.33333C119.317 8.33333 120.659 8.6 121.797 9.13333C122.953 9.66667 123.833 10.44 124.437 11.4533C125.059 12.4489 125.37 13.6311 125.37 15C125.37 16.3689 125.059 17.56 124.437 18.5733C123.833 19.5689 122.953 20.3333 121.797 20.8667C120.659 21.4 119.317 21.6667 117.77 21.6667H113.93V27H110.357V8.33333H117.77ZM117.584 18.5733C118.953 18.5733 119.993 18.2622 120.704 17.64C121.415 17.0178 121.77 16.1378 121.77 15C121.77 13.8622 121.415 12.9822 120.704 12.36C119.993 11.7378 118.953 11.4267 117.584 11.4267H113.93V18.5733H117.584ZM133.536 27.1867C132.131 27.1867 130.869 26.8756 129.749 26.2533C128.629 25.6311 127.749 24.76 127.109 23.64C126.487 22.52 126.176 21.2578 126.176 19.8533C126.176 18.4489 126.487 17.1956 127.109 16.0933C127.749 14.9733 128.629 14.1022 129.749 13.48C130.869 12.8578 132.131 12.5467 133.536 12.5467C134.923 12.5467 136.167 12.8578 137.269 13.48C138.389 14.1022 139.26 14.9733 139.883 16.0933C140.523 17.1956 140.842 18.4489 140.842 19.8533C140.842 21.2578 140.523 22.52 139.883 23.64C139.26 24.76 138.389 25.6311 137.269 26.2533C136.167 26.8756 134.923 27.1867 133.536 27.1867ZM133.536 24.2C134.638 24.2 135.545 23.8089 136.256 23.0267C136.985 22.2267 137.349 21.1689 137.349 19.8533C137.349 18.5378 136.985 17.4889 136.256 16.7067C135.545 15.9244 134.638 15.5333 133.536 15.5333C132.416 15.5333 131.491 15.9244 130.763 16.7067C130.051 17.4889 129.696 18.5378 129.696 19.8533C129.696 21.1689 130.051 22.2267 130.763 23.0267C131.491 23.8089 132.416 24.2 133.536 24.2ZM146.466 14.84C146.929 14.0756 147.569 13.4978 148.386 13.1067C149.204 12.7156 150.155 12.5289 151.24 12.5467V15.9067L150.44 15.8533C149.249 15.8533 148.315 16.2178 147.64 16.9467C146.964 17.6578 146.626 18.7156 146.626 20.12V27H143.16V12.7333H146.466V14.84ZM162.807 26.2533C162.433 26.5556 161.971 26.7867 161.42 26.9467C160.869 27.1067 160.291 27.1867 159.687 27.1867C158.158 27.1867 156.975 26.7689 156.14 25.9333C155.304 25.0978 154.887 23.8889 154.887 22.3067V15.8H152.727V13H154.887V9.58667H158.327V13H161.873V15.8H158.327V22.2267C158.327 22.8844 158.487 23.3911 158.807 23.7467C159.127 24.1022 159.58 24.28 160.167 24.28C160.842 24.28 161.402 24.0844 161.847 23.6933L162.807 26.2533ZM170.456 9.90667C169.176 9.90667 168.536 10.6356 168.536 12.0933V13H172.162V15.8H168.616V27H165.176V15.8H163.016V13H165.176V12.0667C165.176 10.52 165.611 9.29333 166.482 8.38667C167.353 7.48 168.571 7.02667 170.136 7.02667C170.722 7.02667 171.273 7.09778 171.789 7.24C172.322 7.36444 172.758 7.56 173.096 7.82667L172.136 10.4667C171.691 10.0933 171.131 9.90667 170.456 9.90667ZM179.895 27.1867C178.491 27.1867 177.229 26.8756 176.109 26.2533C174.989 25.6311 174.109 24.76 173.469 23.64C172.846 22.52 172.535 21.2578 172.535 19.8533C172.535 18.4489 172.846 17.1956 173.469 16.0933C174.109 14.9733 174.989 14.1022 176.109 13.48C177.229 12.8578 178.491 12.5467 179.895 12.5467C181.282 12.5467 182.526 12.8578 183.629 13.48C184.749 14.1022 185.62 14.9733 186.242 16.0933C186.882 17.1956 187.202 18.4489 187.202 19.8533C187.202 21.2578 186.882 22.52 186.242 23.64C185.62 24.76 184.749 25.6311 183.629 26.2533C182.526 26.8756 181.282 27.1867 179.895 27.1867ZM179.895 24.2C180.997 24.2 181.904 23.8089 182.615 23.0267C183.344 22.2267 183.709 21.1689 183.709 19.8533C183.709 18.5378 183.344 17.4889 182.615 16.7067C181.904 15.9244 180.997 15.5333 179.895 15.5333C178.775 15.5333 177.851 15.9244 177.122 16.7067C176.411 17.4889 176.055 18.5378 176.055 19.8533C176.055 21.1689 176.411 22.2267 177.122 23.0267C177.851 23.8089 178.775 24.2 179.895 24.2ZM192.986 7.21333V27H189.519V7.21333H192.986ZM198.167 10.4667C197.527 10.4667 196.993 10.2711 196.567 9.88C196.158 9.47111 195.953 8.97333 195.953 8.38667C195.953 7.8 196.158 7.31111 196.567 6.92C196.993 6.51111 197.527 6.30667 198.167 6.30667C198.807 6.30667 199.331 6.50222 199.74 6.89333C200.149 7.26667 200.353 7.74667 200.353 8.33333C200.353 8.95555 200.149 9.47111 199.74 9.88C199.331 10.2711 198.807 10.4667 198.167 10.4667ZM199.9 12.7333V27H196.433V12.7333H199.9ZM209.614 27.1867C208.21 27.1867 206.947 26.8756 205.827 26.2533C204.707 25.6311 203.827 24.76 203.187 23.64C202.565 22.52 202.254 21.2578 202.254 19.8533C202.254 18.4489 202.565 17.1956 203.187 16.0933C203.827 14.9733 204.707 14.1022 205.827 13.48C206.947 12.8578 208.21 12.5467 209.614 12.5467C211.001 12.5467 212.245 12.8578 213.347 13.48C214.467 14.1022 215.338 14.9733 215.961 16.0933C216.601 17.1956 216.921 18.4489 216.921 19.8533C216.921 21.2578 216.601 22.52 215.961 23.64C215.338 24.76 214.467 25.6311 213.347 26.2533C212.245 26.8756 211.001 27.1867 209.614 27.1867ZM209.614 24.2C210.716 24.2 211.623 23.8089 212.334 23.0267C213.063 22.2267 213.427 21.1689 213.427 19.8533C213.427 18.5378 213.063 17.4889 212.334 16.7067C211.623 15.9244 210.716 15.5333 209.614 15.5333C208.494 15.5333 207.57 15.9244 206.841 16.7067C206.13 17.4889 205.774 18.5378 205.774 19.8533C205.774 21.1689 206.13 22.2267 206.841 23.0267C207.57 23.8089 208.494 24.2 209.614 24.2Z" fill="#111111"/>
</svg>
