<svg width="48" height="48" viewBox="0 0 48 48" fill="none" xmlns="http://www.w3.org/2000/svg">
<path fill-rule="evenodd" clip-rule="evenodd" d="M0.457031 21.0585C0.457031 21.3221 0.534656 21.4961 0.578156 21.6652C0.861656 22.7651 1.47103 23.709 2.19403 24.57C3.22378 25.797 4.48491 26.7847 5.77678 27.7136C6.89728 28.5191 8.04066 29.3066 9.16566 30.1061C9.35878 30.2434 9.54141 30.4012 9.75103 30.5696C9.57066 30.6671 9.42066 30.753 9.26466 30.8321C7.78003 31.5851 6.35166 32.4293 5.03503 33.4519C4.24153 34.0684 3.47428 34.7235 2.93241 35.5796C2.06053 36.9566 1.75191 38.4236 2.40178 39.99C2.59153 40.4475 2.88103 40.8428 3.28941 41.1349C3.42178 41.2294 3.57028 41.3231 3.72516 41.3599C4.12191 41.4533 4.52616 41.5144 4.92778 41.5882L6.06516 41.5875C7.32291 41.4754 8.46778 41.0445 9.50241 40.3305C11.1194 39.2145 12.2088 37.7183 12.6772 35.7979C13.0177 34.4021 13.0315 33.0049 12.6303 31.6155C12.5919 31.4868 12.5476 31.3599 12.4975 31.2352C12.4488 31.1104 12.3914 30.9889 12.3239 30.8333L14.9024 29.3505L14.941 29.3835C14.8942 29.5369 14.8443 29.6899 14.8019 29.8447C14.4955 30.9637 14.2919 32.1023 14.365 33.2636C14.443 34.5011 14.7884 35.6595 15.5129 36.6934C16.0987 37.5296 17.4944 37.5608 18.1169 36.7215C18.3378 36.4234 18.5519 36.1118 18.7128 35.7791C19.1332 34.911 19.5224 34.0275 19.924 33.15L19.9942 32.9895C19.9653 33.405 19.9315 33.7699 19.9162 34.1351C19.8922 34.7055 19.9255 35.2725 20.1205 35.8151C20.2874 36.2794 20.5713 36.6262 21.103 36.6874C21.4668 36.729 21.7567 36.5625 22.024 36.3514C22.4382 36.024 22.7816 35.6159 23.0332 35.1517C23.746 33.8426 24.478 32.5414 25.1242 31.1992C25.8232 29.7476 26.4344 28.2536 27.0835 26.7772L27.1908 26.5155C27.3442 27.1181 27.451 27.7084 27.6479 28.2671C27.8767 28.9155 28.1598 29.5485 28.468 30.1639C28.6139 30.4545 28.597 30.6431 28.3949 30.8869C27.5489 31.9069 26.7175 32.9392 25.8854 33.9705C25.7013 34.1981 25.5179 34.4299 25.3645 34.6785C25.2715 34.8355 25.2103 35.0093 25.1845 35.19C25.1587 35.3563 25.1983 35.5262 25.295 35.664C25.3917 35.8018 25.538 35.8968 25.7032 35.9291C26.0366 36.0009 26.3784 36.0253 26.7187 36.0015C27.88 35.916 28.9345 35.5084 29.8668 34.8176C31.0747 33.9229 31.4624 32.7019 31.1699 31.2547C31.0908 30.8621 30.9509 30.4804 30.8148 30.102C30.7537 29.9314 30.7495 29.8117 30.8609 29.6527C31.8265 28.2739 32.6515 26.811 33.4188 25.3144C33.4492 25.2555 33.4803 25.1966 33.5335 25.1336C33.7822 26.4274 34.1564 27.6743 34.8269 28.8056C34.4849 29.1353 34.1463 29.4341 33.8399 29.7634C33.1653 30.4886 32.5803 31.2761 32.275 32.2365C32.1438 32.6505 32.0429 33.0713 32.1014 33.5134C32.1922 34.2 32.7547 34.6462 33.43 34.4899C34.8753 34.1554 36.1229 33.4744 37.0345 32.268C37.648 31.4557 37.7039 30.5497 37.447 29.6006C37.3765 29.3426 37.2929 29.0887 37.2029 28.7929C37.5595 28.6822 37.9072 28.5495 38.2668 28.4674C40.1339 28.0414 41.9808 28.1156 43.78 28.7899C44.8304 29.1836 45.679 29.8425 46.1823 30.879C46.7969 32.1461 46.4571 33.3484 45.2628 34.1494C45.1514 34.224 45.0239 34.2829 44.9317 34.3762C44.9021 34.4105 44.88 34.4505 44.8668 34.4938C44.8535 34.537 44.8494 34.5826 44.8548 34.6275C44.8627 34.6736 44.9845 34.7314 45.0547 34.7306C45.4473 34.7276 45.7657 34.5218 46.0713 34.3103C46.837 33.7804 47.3958 33.0675 47.5162 32.1289L47.5398 32.0584L47.5109 31.4471C47.4993 31.4119 47.5195 31.377 47.5169 31.3504C47.3542 29.9835 46.624 28.9234 45.562 28.0924C44.332 27.1305 42.8797 26.7345 41.3437 26.6719C40.0979 26.6183 38.8537 26.8098 37.6818 27.2355C37.3454 27.3574 37.012 27.5017 36.6738 27.6379C36.6284 27.5557 36.5797 27.477 36.5395 27.3956C36.1923 26.6846 35.7715 26.0051 35.6785 25.1899C35.6125 24.6109 35.5315 24.0326 35.6692 23.46C35.8015 22.9091 35.974 22.3676 36.1364 21.8243C36.22 21.5445 36.1612 21.3878 35.8942 21.2618C35.8011 21.2154 35.7018 21.1828 35.5994 21.165C34.9432 21.0697 34.2959 21.1241 33.6603 21.309C33.4353 21.3746 33.2718 21.5006 33.2219 21.7496C33.1934 21.8925 33.1353 22.0294 33.0948 22.1704C32.9287 22.7565 32.8109 23.3539 32.5424 23.9123C31.8697 25.3129 31.1017 26.6606 30.3157 27.9986C30.2305 28.143 30.1409 28.2847 30.0337 28.4599C29.7577 27.8824 29.4633 27.3641 29.374 26.7566C29.2732 26.0696 29.1937 25.3838 29.3647 24.702C29.4918 24.1935 29.6579 23.6944 29.8109 23.1926C29.8833 22.9541 29.8499 22.8289 29.6339 22.7033C29.5248 22.6399 29.4014 22.5836 29.2784 22.5653C28.6055 22.4627 27.918 22.519 27.2707 22.7295C27.067 22.7955 26.9602 22.9271 26.8979 23.1371C26.7149 23.7566 26.5589 24.3911 26.302 24.9802C25.2618 27.3652 24.1915 29.7379 23.1224 32.1101C22.8993 32.6055 22.6379 33.0836 22.3863 33.5659C22.3225 33.6881 22.2295 33.7957 22.15 33.9105C22.0863 33.8351 22.0615 33.7834 22.0619 33.7316C22.0638 33.4267 22.0274 33.1129 22.0855 32.8181C22.264 31.9267 22.4613 31.0391 22.6773 30.156C22.8535 29.4263 23.0587 28.7033 23.254 27.9784C23.3197 27.7358 23.3208 27.5089 23.1464 27.3049C22.8535 26.9633 22.2415 26.8883 21.8785 27.1515L21.718 27.2423L21.7492 26.9835C21.8257 26.4289 21.841 25.8761 21.6888 25.3298C21.499 24.6487 21.013 24.2569 20.3065 24.2786C19.9773 24.2887 19.6315 24.345 19.3267 24.465C18.0445 24.9675 17.0587 25.8574 16.2194 26.928C16.1416 27.0274 16.0452 27.1107 15.9355 27.1732C14.8507 27.7747 13.7624 28.3687 12.6745 28.965L11.4637 29.6284C11.1389 29.3186 10.8438 28.9972 10.5089 28.7246C9.48628 27.8906 8.44716 27.0773 7.41741 26.2526C6.50466 25.5218 5.62041 24.7605 4.94391 23.7926C4.44066 23.0726 4.11628 22.2847 4.08516 21.3945C4.04578 20.2601 4.36753 19.2236 4.94503 18.2587C5.68378 17.0242 6.69141 16.0335 7.79916 15.1361C8.97103 14.1874 10.2385 13.3819 11.5522 12.6465C13.39 11.6179 15.2804 10.7074 17.3073 10.1063C19.3855 9.48975 21.4942 9.13687 23.6692 9.38287C24.5242 9.47962 25.3544 9.67538 26.1168 10.0935C26.7007 10.4134 27.1795 10.8323 27.4023 11.487C27.622 12.1312 27.6153 12.7841 27.463 13.4385C27.1537 14.7637 26.428 15.8561 25.5149 16.8323C24.0172 18.4324 22.1902 19.5218 20.1333 20.2414C18.9506 20.6557 17.7202 20.9182 16.4714 21.0225C15.448 21.1084 14.446 21.0176 13.477 20.6617C12.8354 20.4259 12.2767 20.0651 11.8274 19.5416C11.7472 19.4479 11.6444 19.3463 11.4948 19.434C11.3482 19.5203 11.3223 19.6598 11.3714 19.8011C11.4535 20.0359 11.5293 20.2804 11.6572 20.4904C11.9785 21.0172 12.4473 21.3994 12.9633 21.7271C13.9544 22.3575 15.0622 22.5694 16.2108 22.6185C17.9538 22.6939 19.6544 22.4336 21.331 21.966C23.7247 21.2985 25.8059 20.1195 27.475 18.2595C28.8648 16.7108 29.8574 14.9629 30.07 12.8524C30.1739 11.8222 30.0633 10.8131 29.581 9.87338C29.0579 8.85525 28.2262 8.09813 27.2317 7.5765C25.7834 6.81713 24.2204 6.375 22.6072 6.375H20.9909C19.0372 6.375 17.1483 6.93488 15.3123 7.60275C13.9225 8.10863 12.5598 8.70562 11.2368 9.36637C8.35566 10.806 5.67253 12.5419 3.46866 14.9288C2.37066 16.1179 1.44103 17.43 0.906281 18.975C0.744883 19.4363 0.605846 19.9051 0.489656 20.3798M10.9293 33.8846C10.8044 35.5568 10.0465 36.9124 8.80791 38.0104C8.11116 38.6276 7.31203 39.0671 6.38128 39.2216C6.04378 39.2775 5.69841 39.291 5.37103 39.1511C4.90416 38.9516 4.79953 38.5373 4.79053 38.0959C4.77666 37.3924 5.02303 36.7564 5.36091 36.1511C5.80191 35.3621 6.44841 34.7606 7.13878 34.1989C8.22628 33.3135 9.40603 32.5643 10.6143 31.857L10.7054 31.8195C10.8922 32.5095 10.981 33.1909 10.9293 33.8846ZM20.3635 26.6175C20.2754 27.1515 20.1652 27.6859 20.0092 28.2034C19.4699 29.9947 18.7773 31.7306 18.0284 33.4432C17.89 33.7601 17.6887 34.0492 17.5135 34.3496C17.4837 34.3958 17.4481 34.4379 17.4074 34.4749C17.1907 34.689 16.9852 34.6777 16.8757 34.3976C16.7482 34.0721 16.6698 33.7238 16.6023 33.3791C16.5569 33.1478 16.5678 32.9047 16.5535 32.6677C16.5682 30.9825 17.0823 29.451 17.9545 28.0252C18.3142 27.4373 18.7057 26.877 19.3038 26.505C19.4898 26.3893 19.6912 26.3002 19.9019 26.2402C20.2207 26.1506 20.4164 26.298 20.3635 26.6175ZM26.8 34.818L29.1134 32.1169C29.2098 33.12 27.5047 35.1225 26.8 34.818ZM34.1887 33.0004C34.0252 33.0941 33.847 33.1616 33.6794 33.2483C33.526 33.3278 33.4754 33.2475 33.4709 33.1155C33.4686 33.0241 33.4804 32.9329 33.5058 32.8451C33.8182 31.7434 34.393 30.8029 35.2484 30.0379L35.3084 30.0071C35.7153 31.1452 35.245 32.3951 34.1887 33.0004Z" fill="#CB6699"/>
</svg>
