<svg width="48" height="48" viewBox="0 0 48 48" fill="none" xmlns="http://www.w3.org/2000/svg">
<g clip-path="url(#clip0_201_6914)">
<path d="M10.2207 30.2698C10.2207 33.0185 7.97895 35.2636 5.22983 35.2636C2.48108 35.2636 0.236328 33.0185 0.236328 30.2698C0.236328 27.521 2.48145 25.2759 5.2302 25.2759H10.2211L10.2207 30.2698ZM12.7366 30.2698C12.7366 27.521 14.9817 25.2759 17.7305 25.2759C20.4792 25.2759 22.7243 27.5206 22.7243 30.2698V42.7704C22.7243 45.5191 20.4796 47.7643 17.7305 47.7643C14.9817 47.7643 12.7366 45.5191 12.7366 42.7704V30.2698Z" fill="#DE1C59"/>
<path d="M17.7305 10.2207C14.9817 10.2207 12.7366 7.97895 12.7366 5.22983C12.7366 2.48108 14.9817 0.236328 17.7305 0.236328C20.4792 0.236328 22.7243 2.48145 22.7243 5.2302V10.2211L17.7305 10.2207ZM17.7305 12.7366C20.4792 12.7366 22.7243 14.9817 22.7243 17.7305C22.7243 20.4792 20.4796 22.7243 17.7305 22.7243H5.22983C2.48108 22.7243 0.236328 20.4796 0.236328 17.7305C0.236328 14.9817 2.48145 12.7366 5.2302 12.7366H17.7305Z" fill="#35C5F0"/>
<path d="M37.7793 17.7305C37.7793 14.9817 40.021 12.7366 42.7701 12.7366C45.5189 12.7366 47.764 14.9817 47.764 17.7305C47.764 20.4792 45.5189 22.7243 42.7701 22.7243H37.7793V17.7305ZM35.2634 17.7305C35.2634 20.4792 33.0183 22.7243 30.2695 22.7243C27.5208 22.7243 25.2756 20.4796 25.2756 17.7305V5.22983C25.2756 2.48108 27.5204 0.236328 30.2695 0.236328C33.0183 0.236328 35.2634 2.48145 35.2634 5.2302V17.7305Z" fill="#2EB57D"/>
<path d="M30.2695 37.7795C33.0183 37.7795 35.2634 40.0213 35.2634 42.7704C35.2634 45.5191 33.0183 47.7643 30.2695 47.7643C27.5208 47.7643 25.2756 45.5191 25.2756 42.7704V37.7795H30.2695ZM30.2695 35.2636C27.5208 35.2636 25.2756 33.0185 25.2756 30.2698C25.2756 27.521 27.5204 25.2759 30.2695 25.2759H42.7701C45.5189 25.2759 47.764 27.5206 47.764 30.2698C47.764 33.0185 45.5189 35.2636 42.7701 35.2636H30.2695Z" fill="#EBB02E"/>
</g>
<defs>
<clipPath id="clip0_201_6914">
<rect width="48" height="48" fill="white"/>
</clipPath>
</defs>
</svg>
