<svg width="48" height="48" viewBox="0 0 48 48" fill="none" xmlns="http://www.w3.org/2000/svg">
<g clip-path="url(#clip0_201_6845)">
<path d="M36.7207 3.87961C43.5648 8.10736 48.1256 15.6775 48.1256 24.313C48.1256 37.5677 37.3803 48.313 24.1256 48.313C21.3194 48.3163 18.5345 47.8261 15.8981 46.8647L15.6244 46.7627L16.0706 46.6191L16.6444 46.4312L16.9275 46.3364L17.208 46.2419L17.7615 46.051L18.3048 45.859L18.8377 45.6659L19.3609 45.4716L19.6189 45.3737L20.1266 45.1772C20.6629 44.9672 21.1822 44.7546 21.684 44.5401L22.0571 44.3785L22.5146 44.1756C22.7131 44.0861 22.911 43.9951 23.1082 43.9026L23.3985 43.7654L23.8256 43.558L24.0352 43.4541L24.2422 43.3495L24.6491 43.1395C28.0639 41.3485 30.3836 39.4026 31.6155 37.2692C34.2255 32.749 31.9458 27.9186 25.4028 22.9941L24.8703 22.5951L24.5471 22.3469L24.2332 22.1009L23.9284 21.8564L23.6332 21.6141L23.4892 21.4937L23.3471 21.3737L23.0704 21.1349L22.869 20.9571L22.6728 20.7801L22.4193 20.5461L22.1749 20.3136L21.9394 20.0834L21.8253 19.969L21.7132 19.8546L21.4961 19.6277C18.9097 16.8782 18.3322 14.5247 19.5063 12.4907C20.1041 11.4557 21.1402 10.438 22.6129 9.44686L22.7917 9.32799L23.0734 9.14686C23.2008 9.06661 23.331 8.98636 23.4641 8.90611L23.6659 8.78611L23.9771 8.60686L24.2977 8.42836L24.5449 8.29486L24.7972 8.16174L25.1426 7.98474C25.4116 7.84914 25.6825 7.71725 25.9552 7.58911L26.2372 7.45786L26.6216 7.28386L26.8174 7.19686L27.2164 7.02436L27.4196 6.93811L27.8336 6.76599L28.0436 6.68049L28.4722 6.50986L28.6901 6.42474L29.1334 6.25524L29.586 6.08649L29.8159 6.00286L30.2835 5.83524L30.7605 5.66874L31.2476 5.50336L31.4947 5.42086L31.9961 5.25661L32.5076 5.09311L33.0285 4.93074L33.5591 4.76911L34.0998 4.60861L34.7891 4.40911L35.4937 4.21111L36.3592 3.97561L36.7207 3.87961ZM24.1256 0.312988C27.0442 0.312988 29.8413 0.834238 32.4285 1.78786L32.7048 1.89174L32.5297 1.94499L31.6747 2.20861L31.395 2.29711L30.8426 2.47486L30.3004 2.65449L29.7682 2.83524L29.2462 3.01749L28.7344 3.20124L28.482 3.29349L27.8625 3.52599L27.2587 3.76111L26.7866 3.95049L26.5545 4.04574L26.0977 4.23774C21.4301 6.22674 18.3712 8.45724 16.9087 10.9907C14.3554 15.4131 16.6714 20.1805 23.2147 25.1035L23.7472 25.5029L24.0705 25.7511L24.3843 25.9975L24.5381 26.1201L24.8377 26.3639L25.056 26.5454L25.2697 26.7261L25.5457 26.9657L25.6807 27.0846L25.9429 27.3212C26.0857 27.4525 26.2245 27.583 26.3591 27.7124L26.5578 27.9059L26.844 28.1946L27.1158 28.48C29.691 31.2486 30.2415 33.6494 29.0178 35.7692C28.2258 37.141 26.7139 38.491 24.4856 39.8016L24.2808 39.9209L23.9494 40.1087L23.6081 40.2959C23.4122 40.4015 23.2152 40.5051 23.0171 40.6067L22.7115 40.7612L22.3354 40.9465L21.9495 41.131L21.5539 41.3151L21.3525 41.407L20.9419 41.5896L20.5219 41.7722L20.0917 41.9537L19.8727 42.0445L19.428 42.2249L19.2019 42.3149L18.9731 42.4049L18.5085 42.5841L18.0341 42.7626L17.55 42.9404L17.0557 43.1174L16.5521 43.2936L16.2964 43.3814L15.7777 43.5565L15.5145 43.6435L14.9812 43.8175L14.4379 43.9904L13.7452 44.2056L13.0369 44.4197L12.4594 44.5896L11.6531 44.8217C4.7411 40.6086 0.125977 32.9999 0.125977 24.313C0.125977 11.0582 10.8709 0.312988 24.1256 0.312988Z" fill="black"/>
</g>
<defs>
<clipPath id="clip0_201_6845">
<rect width="48" height="48" fill="white"/>
</clipPath>
</defs>
</svg>
