<svg width="48" height="48" viewBox="0 0 48 48" fill="none" xmlns="http://www.w3.org/2000/svg">
<g clip-path="url(#clip0_201_6722)">
<path d="M0.75 0.375V47.25H47.625V0.375H0.75ZM25.5446 40.3174C24.8528 41.7233 23.532 42.6469 22.0016 43.0928C19.65 43.6328 17.4007 43.3249 15.7275 42.3206C14.6077 41.6336 13.7333 40.5761 13.1396 39.3577L16.7096 37.1715C16.7407 37.1846 16.8345 37.3541 16.9598 37.5731C17.415 38.3359 17.8076 38.8759 18.5794 39.255C19.3376 39.5138 21.0023 39.6791 21.645 38.3449C22.0376 37.6661 21.9128 35.4844 21.9128 33.0705C21.9124 29.2774 21.93 25.5 21.93 21.75H26.3209C26.3209 25.875 26.3434 29.7817 26.3209 33.807C26.3303 36.2745 26.5444 38.4743 25.5446 40.3174ZM43.7599 39.0769C42.2336 44.2976 33.7241 44.4671 30.3236 41.0179C29.6051 40.206 29.1547 39.7819 28.7261 38.8447C30.5332 37.8052 30.5333 37.8052 32.2916 36.7879C33.2467 38.256 34.1299 39.0634 35.7188 39.3938C37.8742 39.657 40.0429 38.9164 39.5565 36.627C39.0566 34.7572 35.1427 34.3024 32.4791 32.3029C29.775 30.4867 29.1413 26.0737 31.3635 23.5522C32.1041 22.6196 33.3671 21.9236 34.6924 21.5891L36.0754 21.4103C38.7307 21.3566 40.3905 22.0579 41.6089 23.4184C41.9479 23.7619 42.2246 24.1324 42.7421 24.9353C41.3276 25.8368 41.3321 25.8281 39.306 27.1399C38.8732 26.2076 38.1551 25.6226 37.3961 25.3684C36.2179 25.0114 34.7321 25.3995 34.4239 26.6445C34.317 27.0281 34.3391 27.3851 34.509 28.0189C34.9864 29.1075 36.5884 29.5807 38.0254 30.2411C42.162 31.9189 43.5589 33.7178 43.9024 35.859C44.2331 37.7025 43.8225 38.8984 43.7599 39.0769Z" fill="#F0DB4F"/>
</g>
<defs>
<clipPath id="clip0_201_6722">
<rect width="48" height="48" fill="white"/>
</clipPath>
</defs>
</svg>
