<svg width="48" height="48" viewBox="0 0 48 48" fill="none" xmlns="http://www.w3.org/2000/svg">
<path d="M3.60939 12.0678C-0.526485 18.0119 -0.01161 25.7463 3.14776 32.0628C3.22276 32.2143 3.30151 32.3632 3.37914 32.512L3.52689 32.7967L3.61914 32.9605L3.78376 33.2553C3.88201 33.4282 3.98251 33.6003 4.08526 33.7724L4.25739 34.0559C4.37139 34.24 4.48801 34.4219 4.60726 34.6034L4.75652 34.8337C4.92114 35.0793 5.08951 35.3245 5.26351 35.5653L5.27814 35.584L5.36364 35.6995C5.51401 35.9069 5.66889 36.1117 5.82564 36.3142L5.99964 36.5354C6.13951 36.7113 6.28164 36.886 6.42639 37.06L6.58951 37.255C6.78413 37.4847 6.9824 37.7112 7.18426 37.9345L7.19664 37.9469L7.21951 37.9724C7.41791 38.1877 7.61943 38.4001 7.82401 38.6095L8.01789 38.8049C8.17651 38.9647 8.33776 39.1218 8.50051 39.2782L8.69814 39.4657C8.91564 39.6708 9.13539 39.8718 9.35964 40.0683L9.37014 40.0765L9.48526 40.1748C9.68289 40.3458 9.88389 40.5157 10.0864 40.6822L10.3354 40.8805C10.5008 41.0133 10.668 41.1438 10.8364 41.272L11.1041 41.4757C11.2901 41.6125 11.4773 41.7472 11.6663 41.8788L11.871 42.0239L11.9273 42.064C12.1065 42.1874 12.2899 42.3063 12.4733 42.4252L12.7095 42.5827C12.9908 42.7604 13.2758 42.9363 13.5641 43.1062L13.8004 43.2393C14.0123 43.3615 14.2256 43.4815 14.4416 43.5989C14.5586 43.6619 14.6786 43.7215 14.7964 43.7819C14.949 43.8618 15.1005 43.9428 15.2558 44.0204L15.3619 44.0718L15.5498 44.1625C15.7901 44.2773 16.0324 44.3902 16.2773 44.4989L16.431 44.5679C16.7117 44.6907 16.9946 44.8083 17.2796 44.9208L17.4863 45.0022C17.7503 45.1038 18.018 45.2043 18.2869 45.2988L18.3874 45.3337C18.6825 45.4368 18.9803 45.5324 19.2803 45.6258L19.4959 45.6903C19.8011 45.7822 20.103 45.892 20.4176 45.9502C40.4198 49.5978 46.23 33.9303 46.23 33.9303C41.3501 40.2877 32.6884 41.9647 24.4815 40.0975C24.1706 40.0274 23.8691 39.9303 23.5658 39.8407L23.3374 39.7713C23.0418 39.6807 22.7477 39.585 22.4554 39.4844L22.3343 39.4405C22.0736 39.3484 21.8143 39.2522 21.5565 39.1522L21.3383 39.0663C21.0563 38.9549 20.7758 38.8387 20.4986 38.7172L20.331 38.6429C20.0937 38.5357 19.8575 38.4258 19.6226 38.3133L19.4179 38.215C19.2338 38.1254 19.0515 38.0302 18.87 37.9364C18.7485 37.8723 18.6248 37.8119 18.5044 37.7452C18.2834 37.6262 18.0645 37.5034 17.8478 37.3769L17.6261 37.2532C17.3383 37.0832 17.0532 36.9086 16.7711 36.7293L16.5405 36.5755C16.3354 36.444 16.1325 36.3091 15.9319 36.1709L15.7361 36.0333C15.5429 35.8967 15.3512 35.7581 15.1609 35.6174L14.9063 35.4247C14.7314 35.2918 14.5584 35.1565 14.3873 35.0189L14.1559 34.8333C13.9379 34.6546 13.7224 34.473 13.5094 34.2884L13.4385 34.2288C13.209 34.0262 12.9825 33.8203 12.759 33.6112L12.5674 33.427C12.402 33.2695 12.2393 33.1109 12.0791 32.9482L11.8879 32.7573C11.6847 32.5493 11.4849 32.3381 11.2886 32.1235L11.259 32.092C11.0522 31.8652 10.8495 31.6347 10.6511 31.4005L10.4921 31.2115C10.3439 31.0332 10.198 30.8529 10.0545 30.6708L9.89439 30.4713C9.72281 30.2495 9.55442 30.0252 9.38926 29.7985C4.83301 23.5833 3.19576 15.0115 6.83739 7.97203M16.4483 7.05928C13.4569 11.3635 13.6196 17.1258 15.9529 21.6779C16.3434 22.4431 16.7854 23.181 17.2759 23.8863C17.724 24.5287 18.2209 25.2929 18.8156 25.8089C19.0331 26.0471 19.257 26.2794 19.4869 26.5057L19.6639 26.68C19.8872 26.8978 20.1158 27.1101 20.3494 27.3168L20.3771 27.3408L20.3839 27.3475C20.6452 27.5751 20.9121 27.796 21.1845 28.0102L21.3664 28.1519C21.6403 28.3629 21.9195 28.5668 22.2038 28.7635L22.2281 28.7819C22.3541 28.8689 22.4824 28.9499 22.6103 29.0339L22.7914 29.1535C22.9954 29.2844 23.202 29.4119 23.412 29.5342L23.5001 29.5852C23.6813 29.6894 23.8646 29.7922 24.0488 29.8919L24.2441 29.9935C24.3713 30.0599 24.4984 30.1278 24.6278 30.1923L24.6859 30.2185C24.9495 30.3483 25.2154 30.4735 25.4869 30.5917L25.6639 30.6644C25.881 30.7567 26.1004 30.8467 26.3201 30.9307L26.6014 31.0338C26.8013 31.108 27.0019 31.1755 27.204 31.2434L27.4766 31.3308C27.7643 31.42 28.0485 31.5329 28.3481 31.5828C43.7918 34.1414 47.3573 22.2505 47.3573 22.2505C44.1435 26.8792 37.9193 29.0879 31.2776 27.3637C30.984 27.2864 30.6923 27.2022 30.4028 27.1109L30.1399 27.0258C29.9347 26.9594 29.7308 26.8891 29.5283 26.815L29.2523 26.7123C29.0313 26.6275 28.8118 26.539 28.5938 26.4468L28.4164 26.3718C28.1448 26.2536 27.8762 26.1287 27.6109 25.9972C27.4748 25.9308 27.3409 25.8607 27.2066 25.7917L26.9734 25.6717C26.8013 25.5784 26.6309 25.4821 26.4623 25.3829L26.34 25.3135C26.1311 25.1917 25.9247 25.0657 25.7209 24.9355L25.5341 24.811C25.3996 24.724 25.266 24.6357 25.1333 24.5459C24.8502 24.3491 24.5718 24.1456 24.2985 23.9354L24.1106 23.7873C21.2036 21.4923 18.8989 18.355 17.8035 14.7982C16.6553 11.1097 16.9028 6.9689 18.8921 3.60815M27.2464 3.31753C25.4831 5.91253 25.3099 9.13528 26.5335 12.001C27.8239 15.0434 30.4676 17.4295 33.5535 18.5617C33.6806 18.6085 33.8081 18.6505 33.9368 18.6944L34.1059 18.748C34.2878 18.805 34.4681 18.8714 34.656 18.907C43.1835 20.5548 45.4965 14.5312 46.1119 13.6443C44.0861 16.5614 40.6811 17.2615 36.5033 16.2475C36.1733 16.1677 35.8106 16.0484 35.4926 15.9355C35.0841 15.7904 34.6834 15.624 34.2923 15.4372C33.55 15.0798 32.8451 14.6497 32.1878 14.1532C28.4494 11.3163 26.127 5.9054 28.5664 1.49878" fill="#0868AC"/>
</svg>
