<svg width="48" height="48" viewBox="0 0 48 48" fill="none" xmlns="http://www.w3.org/2000/svg">
<g clip-path="url(#clip0_201_6901)">
<path d="M28.5937 0.09375L33.4908 0.126C33.5831 0.197625 33.6577 0.2445 33.7368 0.27975C34.6245 0.681 35.5867 0.96825 36.3866 1.5015C38.7056 3.04275 40.9702 4.66687 43.2333 6.29025C44.2852 7.04288 45.3221 7.82662 46.2918 8.679C47.0126 9.312 47.3362 10.2101 47.3381 11.1679L47.3362 41.307C47.3351 41.7274 47.2631 42.1597 47.1461 42.564C46.6143 44.4067 45.435 45.6679 43.5791 46.1603C42.6003 46.4194 41.5665 46.5 40.5513 46.5836C38.9677 46.7152 37.3785 46.7798 35.7918 46.875L32.7903 47.0625L27.9843 47.3452L25.0297 47.5298L20.1768 47.811L17.6688 47.9137C17.5882 47.9179 17.5136 48.0308 17.4375 48.0938C15.5287 48.0938 13.6215 48.0938 11.6966 48.063C11.6043 47.9899 11.5342 47.931 11.4521 47.9077C10.2888 47.5706 9.31347 46.9279 8.56347 45.9945C7.52472 44.7041 6.53772 43.374 5.53872 42.0529C4.31097 40.4295 3.05134 38.8301 1.89109 37.1603C1.20913 36.1845 0.843857 35.0226 0.844842 33.8321C0.841572 24.9308 0.842697 16.0294 0.848217 7.128C0.848217 6.8715 0.893217 6.61237 0.937467 6.35737C1.40322 3.61687 3.43197 2.15475 5.84472 1.88362C7.09722 1.743 8.35834 1.68 9.61684 1.59675L12.9431 1.40475L14.373 1.311L18.6855 0.939L21.0761 0.7515L25.0357 0.47025L28.362 0.27375C28.443 0.268125 28.5176 0.15675 28.5937 0.09375ZM9.72934 42.819C9.92884 43.0781 10.1512 43.3241 10.3256 43.5998C11.1708 44.9224 12.3825 45.4028 13.9218 45.3004L24.3502 44.6794L36.0862 43.9702L41.9295 43.5938C43.6612 43.4546 44.4975 42.5186 44.5312 40.7812V40.4062L44.5443 11.9576C44.5458 11.1007 44.25 10.5015 43.5645 10.0226L35.3055 4.20262C33.9768 3.23587 32.5665 2.78475 30.933 2.91375L21.684 3.59775L12.0131 4.311L5.94297 4.78425C4.71672 4.89675 3.95659 5.64675 3.73684 6.84975C3.68315 7.1568 3.65717 7.46805 3.65922 7.77975L3.63409 32.6205C3.62547 34.248 4.12347 35.6017 5.09772 36.8468L9.72934 42.819Z" fill="white"/>
<path d="M9.70764 42.7938L5.09777 36.8463C4.12352 35.6013 3.62552 34.2479 3.63414 32.6204L3.65927 7.77969C3.65927 7.46919 3.68252 7.15419 3.73689 6.84969C3.95664 5.64707 4.71677 4.89707 5.94302 4.78419L12.0131 4.31094L21.6844 3.59769L30.933 2.91369C32.5665 2.78469 33.9769 3.23582 35.3055 4.20257C38.0288 6.18444 40.803 8.09619 43.5645 10.0226C44.25 10.5014 44.5459 11.1007 44.5444 11.9576L44.5313 40.4077V40.7827C44.4975 42.5186 43.6613 43.4546 41.9295 43.5937C39.9844 43.7504 38.0348 43.8517 36.0863 43.9702L24.3503 44.6789L13.9219 45.3003C12.3825 45.4027 11.1709 44.9223 10.3256 43.5997C10.1513 43.3241 9.92889 43.0781 9.70764 42.7938ZM12.1099 25.5468V38.1048L12.1129 40.4471C12.1331 41.4974 12.6476 42.0206 13.6976 42.0806C13.9613 42.0952 14.2279 42.0862 14.493 42.0701L23.2838 41.5518L40.0706 40.5922C41.1169 40.5337 41.6003 40.0751 41.6981 39.0382C41.7173 38.8518 41.7113 38.6632 41.7113 38.4757L41.7128 14.2968C41.7128 14.1562 41.7173 14.0156 41.7086 13.8749C41.6456 12.9127 41.2324 12.5201 40.2761 12.5711L31.6245 13.0694C27.5722 13.3052 23.5199 13.5424 19.4678 13.7812L13.3901 14.1461C12.6154 14.1956 12.2651 14.5297 12.1481 15.2872C12.1205 15.4881 12.1082 15.6908 12.1114 15.8936L12.1099 25.5468ZM33.5494 5.77419C32.8155 5.37594 32.0186 5.24394 31.1981 5.28932C29.937 5.35832 28.6759 5.46219 27.4144 5.55332L9.43352 6.85982C8.89014 6.89919 8.34377 6.93857 7.80752 7.03569C7.62752 7.06794 7.40027 7.24944 7.34477 7.41369C7.30352 7.52919 7.48539 7.76244 7.61852 7.88994C7.86489 8.12544 8.14877 8.32307 8.41727 8.53569C9.05439 9.03819 9.73239 9.49644 10.317 10.0518C11.4259 11.1048 12.7163 11.3482 14.1945 11.2413L25.8326 10.5116L38.3614 9.76007C38.4758 9.75444 38.5901 9.71919 38.8418 9.67232C38.6119 9.43344 38.4784 9.25044 38.3044 9.12144C37.6906 8.66812 37.0709 8.22284 36.4455 7.78569C35.4847 7.10869 34.5193 6.43818 33.5494 5.77419Z" fill="black"/>
<path d="M12.1098 25.4998L12.1113 15.8934C12.1113 15.6909 12.1173 15.4862 12.1481 15.287C12.2651 14.5295 12.6153 14.1958 13.3901 14.1459L19.4677 13.781L31.6245 13.0693L40.2757 12.5709C41.2323 12.5199 41.6456 12.9137 41.7082 13.8748C41.7172 14.0154 41.7127 14.156 41.7127 14.2967L41.7112 38.4755L41.6981 39.038C41.6002 40.0749 41.1168 40.5335 40.0706 40.592L23.2837 41.5517L14.493 42.0699L13.698 42.0804C12.6476 42.0204 12.1331 41.4973 12.1128 40.4484L12.1098 38.1047V25.4998ZM29.2721 25.5245L24.4466 18.1727C24.2782 17.9162 24.1128 17.8314 23.8023 17.8652L21.7455 18.0039L17.9617 18.281C17.0317 18.3662 16.4692 19.2407 16.7268 20.1474L18.7308 20.3188V36.5537L17.3658 36.9388C16.7606 37.1173 16.5015 37.6273 16.7051 38.279L21.3206 38.0139L23.1386 37.8647C23.9223 37.7357 24.3442 37.2553 24.4496 36.4715L21.9258 35.8959V23.6848L22.1133 23.9473L27.9138 33.0043C28.7665 34.327 29.6421 35.6346 30.5403 36.9268C31.1805 37.8455 32.124 38.1268 33.1845 37.898C33.8482 37.7563 34.4853 37.4867 35.1356 37.277C35.4742 37.1672 35.5897 36.965 35.5882 36.5855L35.577 19.898C35.577 18.9227 35.577 18.9227 36.5418 18.728C37.5176 18.5315 37.7621 18.1419 37.5393 17.099L31.7081 17.4534C31.0736 17.4988 30.5932 18.029 30.4968 18.6459C30.4496 18.9433 30.5111 19.1072 30.867 19.1278L32.6325 19.3228V30.6399C31.5142 28.9341 30.3941 27.2294 29.2721 25.526V25.5245ZM33.5812 5.79017C34.5385 6.45121 35.493 7.11621 36.4447 7.78517C37.0702 8.22243 37.69 8.66784 38.304 9.12129C38.478 9.25029 38.6115 9.43329 38.8413 9.67217L38.361 9.75992L25.8322 10.5114L14.1941 11.2412C12.7158 11.348 11.4255 11.1047 10.3166 10.0517C9.73196 9.49667 9.05396 9.03804 8.41646 8.53554C8.14833 8.32292 7.86446 8.12529 7.61808 7.88942C7.48496 7.76192 7.30308 7.52942 7.34433 7.41317C7.39983 7.24929 7.62858 7.06779 7.80708 7.03554C8.34333 6.93879 8.88971 6.89904 9.43308 6.85967L27.4143 5.55317L31.1981 5.28917C32.0182 5.24417 32.8151 5.37542 33.5812 5.79017Z" fill="white"/>
<path d="M29.2925 25.5524L32.6326 30.64V19.3225L30.8675 19.1275C30.5112 19.1072 30.4497 18.9434 30.4966 18.646C30.5933 18.0291 31.0741 17.4989 31.7078 17.4535L37.5395 17.0991C37.7622 18.1416 37.5177 18.5316 36.542 18.7277C35.5767 18.9212 35.5767 18.9212 35.5767 19.8981L35.5883 36.5856C35.5898 36.9651 35.4743 37.1672 35.1357 37.2771L33.1846 37.8981C32.1241 38.1254 31.1806 37.8456 30.5408 36.9269C29.643 35.6345 28.7673 34.3268 27.9143 33.0044L22.1131 23.947C22.0722 23.8825 22.0253 23.8225 21.9256 23.6849V35.896L24.4497 36.4716C24.3443 37.2554 23.9225 37.7354 23.1387 37.8647C22.541 37.9626 21.9275 37.9772 21.3207 38.014L16.7052 38.2791C16.5016 37.6274 16.7607 37.1174 17.366 36.9389L18.731 36.5537V20.3189L16.727 20.1475C16.4693 19.2407 17.0318 18.3662 17.9618 18.2811C19.2203 18.1637 20.4845 18.0921 21.7456 18.0044C22.4311 17.9575 23.1196 17.9399 23.8025 17.8652C24.113 17.8315 24.2787 17.9162 24.4467 18.1727L29.2925 25.5524Z" fill="black"/>
</g>
<defs>
<clipPath id="clip0_201_6901">
<rect width="48" height="48" fill="white"/>
</clipPath>
</defs>
</svg>
