<svg width="48" height="48" viewBox="0 0 48 48" fill="none" xmlns="http://www.w3.org/2000/svg">
<g clip-path="url(#clip0_201_6764)">
<mask id="mask0_201_6764" style="mask-type:alpha" maskUnits="userSpaceOnUse" x="-1" y="0" width="49" height="48">
<path fill-rule="evenodd" clip-rule="evenodd" d="M34.0375 47.6723C34.4195 47.8212 34.828 47.89 35.2377 47.8742C35.6473 47.8585 36.0494 47.7586 36.4188 47.5808L46.3011 42.8254C46.8101 42.5804 47.2395 42.1967 47.54 41.7185C47.8405 41.2403 47.9999 40.6869 47.9999 40.1221V7.87843C48 7.31354 47.8406 6.76009 47.5401 6.28177C47.2396 5.80345 46.8101 5.4197 46.3011 5.17468L36.4188 0.420053C35.8603 0.151368 35.2322 0.0629042 34.6213 0.166905C34.0104 0.270906 33.4469 0.562228 33.0089 1.00055L14.0901 18.2603L5.84989 12.0049C5.47817 11.7227 5.01938 11.5795 4.55311 11.6002C4.08684 11.6209 3.64253 11.8041 3.29727 12.1182L0.654265 14.5223C0.448296 14.7096 0.283695 14.9379 0.170993 15.1925C0.0582907 15.4471 -3.17825e-05 15.7224 -0.000243562 16.0008C-0.000455341 16.2792 0.0574483 16.5546 0.169763 16.8094C0.282078 17.0641 0.446331 17.2927 0.652015 17.4803L7.79839 24.0001L0.65239 30.5202C0.446818 30.7079 0.282663 30.9364 0.170418 31.1911C0.0581732 31.4458 0.000307209 31.7211 0.000518966 31.9995C0.000730724 32.2778 0.0590156 32.5531 0.171648 32.8076C0.284281 33.0622 0.448783 33.2904 0.65464 33.4778L3.29764 35.8819C3.64282 36.1961 4.08712 36.3795 4.55341 36.4002C5.0197 36.421 5.47853 36.2778 5.85027 35.9956L14.0905 29.7406L33.0093 46.9999C33.3018 47.293 33.6517 47.5219 34.0375 47.6723ZM36.007 13.1037L21.6524 24.0001L36.0074 34.8968L36.007 13.1037Z" fill="white"/>
</mask>
<g mask="url(#mask0_201_6764)">
<path d="M46.3015 5.18256L36.4112 0.420062C35.8526 0.151198 35.2242 0.0626386 34.613 0.16664C34.0019 0.270642 33.4381 0.562062 32.9999 1.00056L0.623121 30.5202C0.417395 30.7078 0.253101 30.9362 0.140757 31.191C0.028412 31.4457 -0.0295081 31.7211 -0.0292963 31.9995C-0.0290845 32.2779 0.0292546 32.5532 0.141986 32.8078C0.254718 33.0623 0.419359 33.2905 0.625371 33.4778L3.26987 35.8819C3.61537 36.1961 4.0599 36.3794 4.52641 36.4002C4.99291 36.4209 5.45197 36.2778 5.824 35.9956L44.8131 6.41744C46.1211 5.42519 47.9999 6.35819 47.9999 7.99994V7.88519C47.9998 7.32047 47.8404 6.76723 47.54 6.28907C47.2396 5.81091 46.8103 5.42762 46.3015 5.18256Z" fill="#0065A9"/>
<g filter="url(#filter0_d_201_6764)">
<path d="M46.3015 42.8179L36.4112 47.5796C35.8527 47.8486 35.2243 47.9373 34.6132 47.8334C34.002 47.7295 33.4382 47.4383 32.9999 46.9999L0.623121 17.4799C0.417395 17.2923 0.253101 17.0638 0.140757 16.8091C0.028412 16.5544 -0.0295081 16.279 -0.0292963 16.0006C-0.0290845 15.7222 0.0292546 15.4469 0.141986 15.1923C0.254718 14.9377 0.419359 14.7095 0.625371 14.5223L3.26987 12.1181C3.61537 11.804 4.0599 11.6206 4.52641 11.5999C4.99291 11.5791 5.45197 11.7223 5.824 12.0045L44.8131 41.5823C46.1211 42.5749 47.9999 41.6419 47.9999 40.0001V40.1149C47.9998 40.6796 47.8404 41.2328 47.54 41.711C47.2396 42.1892 46.8103 42.5728 46.3015 42.8179Z" fill="#007ACC"/>
</g>
<g filter="url(#filter1_d_201_6764)">
<path d="M36.4117 47.5808C35.853 47.8494 35.2245 47.9379 34.6133 47.8338C34.0021 47.7297 33.4384 47.4383 33 46.9999C34.107 48.1069 36 47.3228 36 45.7571V2.24251C36 0.676885 34.107 -0.107239 33 1.00014C33.4384 0.561687 34.0021 0.27028 34.6133 0.166218C35.2245 0.0621555 35.853 0.150579 36.4117 0.419261L46.3001 5.17501C46.8093 5.41987 47.239 5.80355 47.5398 6.28188C47.8405 6.76021 48 7.31375 48 7.87876V40.122C48 40.687 47.8405 41.2406 47.5398 41.7189C47.239 42.1972 46.8093 42.5809 46.3001 42.8258L36.4117 47.5808Z" fill="#1F9CF0"/>
</g>
<path opacity="0.25" fill-rule="evenodd" clip-rule="evenodd" d="M34.0087 47.6723C34.3906 47.8212 34.799 47.8899 35.2086 47.8741C35.6182 47.8584 36.0202 47.7585 36.3895 47.5808L46.2719 42.8254C46.7809 42.5804 47.2104 42.1967 47.5109 41.7183C47.8114 41.24 47.9708 40.6866 47.9707 40.1217V7.87843C47.9708 7.31354 47.8114 6.76009 47.5109 6.28177C47.2104 5.80345 46.7809 5.4197 46.2719 5.17468L36.3895 0.420053C35.8311 0.151368 35.203 0.0629042 34.5921 0.166905C33.9812 0.270906 33.4177 0.562228 32.9797 1.00055L14.0609 18.2603L5.82066 12.0053C5.44894 11.7231 4.99014 11.5799 4.52387 11.6006C4.05761 11.6212 3.6133 11.8045 3.26803 12.1186L0.625031 14.5227C0.419113 14.71 0.254558 14.9383 0.141889 15.1929C0.0292199 15.4475 -0.0290845 15.7228 -0.0292963 16.0012C-0.0295081 16.2796 0.0283775 16.555 0.140659 16.8097C0.252941 17.0645 0.417148 17.293 0.622781 17.4807L7.76916 24.0001L0.623156 30.5198C0.417472 30.7075 0.253218 30.936 0.140904 31.1907C0.0285887 31.4455 -0.0293149 31.7209 -0.0291031 31.9993C-0.0288913 32.2777 0.0294312 32.553 0.142133 32.8076C0.254836 33.0622 0.419436 33.2905 0.625406 33.4778L3.26841 35.8819C3.61363 36.196 4.05791 36.3794 4.52418 36.4001C4.99045 36.4209 5.44927 36.2777 5.82103 35.9956L14.0617 29.7402L32.9804 46.9999C33.2728 47.2929 33.623 47.5219 34.0087 47.6723ZM35.9782 13.1033L21.6232 24.0001L35.9782 34.8964V13.1033Z" fill="url(#paint0_linear_201_6764)" style="mix-blend-mode:overlay"/>
</g>
</g>
<defs>
<filter id="filter0_d_201_6764" x="-8.36264" y="3.26456" width="64.6957" height="52.9445" filterUnits="userSpaceOnUse" color-interpolation-filters="sRGB">
<feFlood flood-opacity="0" result="BackgroundImageFix"/>
<feColorMatrix in="SourceAlpha" type="matrix" values="0 0 0 0 0 0 0 0 0 0 0 0 0 0 0 0 0 0 127 0" result="hardAlpha"/>
<feOffset/>
<feGaussianBlur stdDeviation="4.16667"/>
<feColorMatrix type="matrix" values="0 0 0 0 0 0 0 0 0 0 0 0 0 0 0 0 0 0 0.25 0"/>
<feBlend mode="overlay" in2="BackgroundImageFix" result="effect1_dropShadow_201_6764"/>
<feBlend mode="normal" in="SourceGraphic" in2="effect1_dropShadow_201_6764" result="shape"/>
</filter>
<filter id="filter1_d_201_6764" x="24.6667" y="-8.20956" width="31.6667" height="64.4191" filterUnits="userSpaceOnUse" color-interpolation-filters="sRGB">
<feFlood flood-opacity="0" result="BackgroundImageFix"/>
<feColorMatrix in="SourceAlpha" type="matrix" values="0 0 0 0 0 0 0 0 0 0 0 0 0 0 0 0 0 0 127 0" result="hardAlpha"/>
<feOffset/>
<feGaussianBlur stdDeviation="4.16667"/>
<feColorMatrix type="matrix" values="0 0 0 0 0 0 0 0 0 0 0 0 0 0 0 0 0 0 0.25 0"/>
<feBlend mode="overlay" in2="BackgroundImageFix" result="effect1_dropShadow_201_6764"/>
<feBlend mode="normal" in="SourceGraphic" in2="effect1_dropShadow_201_6764" result="shape"/>
</filter>
<linearGradient id="paint0_linear_201_6764" x1="23.9707" y1="0.123767" x2="23.9707" y2="47.8763" gradientUnits="userSpaceOnUse">
<stop stop-color="white"/>
<stop offset="1" stop-color="white" stop-opacity="0"/>
</linearGradient>
<clipPath id="clip0_201_6764">
<rect width="48" height="48" fill="white"/>
</clipPath>
</defs>
</svg>
