<svg width="48" height="48" viewBox="0 0 48 48" fill="none" xmlns="http://www.w3.org/2000/svg">
<path d="M13.3623 30.1011H6.14053C7.09678 33.3824 8.87091 36.3224 11.4693 38.9193C15.6108 43.0619 20.5912 45.1304 26.4138 45.1304C27.5785 45.1304 28.7065 45.0441 29.8023 44.8784C34.1894 44.2161 38.0302 42.2328 41.3204 38.9196C43.9349 36.322 45.7222 33.3824 46.6859 30.1011H13.3623ZM9.38091 20.2923H5.60728C5.46647 21.134 5.37456 21.9832 5.33203 22.8355H47.4989C47.4559 21.9831 47.3635 21.134 47.2222 20.2923M5.33203 25.1965C5.37477 26.0489 5.46667 26.898 5.60728 27.7398H47.2237C47.3643 26.8975 47.4562 26.0493 47.5004 25.1965M46.6874 17.9294C45.7237 14.641 43.9364 11.6864 41.32 9.0704C38.0388 5.78765 34.2085 3.8189 29.836 3.15665C28.7038 2.9856 27.5603 2.89986 26.4153 2.90015C20.5915 2.90015 15.6108 4.95852 11.4697 9.07002C8.87091 11.6864 7.09416 14.641 6.13903 17.9294" fill="#2C2255"/>
<path d="M4.07803 24.016C4.07803 12.8774 12.4439 3.62239 23.3275 1.99489C23.0579 1.98477 22.7857 1.97314 22.513 1.97314C10.3008 1.97464 0.399658 11.8431 0.399658 24.016C0.399658 36.1904 10.3008 46.0589 22.5134 46.0589C22.7872 46.0589 23.0579 46.0488 23.329 46.0386C12.4439 44.4111 4.07803 35.1561 4.07803 24.016Z" fill="#F7941E"/>
<path d="M40.765 22.8338C40.6959 21.9749 40.5498 21.124 40.3285 20.2913H12.5024C12.2812 21.124 12.1351 21.9749 12.0659 22.8338H40.765Z" fill="url(#paint0_linear_201_6783)"/>
<path d="M40.765 25.1965H12.0659C12.1345 26.0553 12.2812 26.9062 12.5024 27.7398H40.3285C40.5498 26.9068 40.6958 26.0556 40.765 25.1965Z" fill="url(#paint1_linear_201_6783)"/>
<path d="M26.4153 38.4188C32.1941 38.4188 37.1763 35.0127 39.4687 30.1013H13.3623C15.6562 35.0127 20.6366 38.4188 26.4153 38.4188Z" fill="url(#paint2_linear_201_6783)"/>
<path d="M9.93894 25.1966H47.4697C47.4902 24.8185 47.5005 24.44 47.5004 24.0614C47.5004 23.6497 47.4854 23.2413 47.4622 22.8341H5.33244C5.30865 23.2428 5.2959 23.652 5.29419 24.0614C5.29419 24.4424 5.30581 24.8201 5.32494 25.1966H9.93894ZM13.2787 17.9294H6.13906C5.90469 18.6986 5.75244 19.4883 5.60731 20.2923H47.0887C46.9456 19.4944 46.7559 18.7056 46.5206 17.9298M44.3756 27.7398H5.60769C5.74831 28.5423 5.90956 29.3321 6.14094 30.1012H46.6597C46.8913 29.3255 47.0778 28.537 47.2184 27.7398H44.3756Z" fill="white"/>
<defs>
<linearGradient id="paint0_linear_201_6783" x1="26.4155" y1="47.9944" x2="26.4155" y2="16.2352" gradientUnits="userSpaceOnUse">
<stop offset="0.303" stop-color="#473788"/>
<stop offset="0.872" stop-color="#2C2255"/>
</linearGradient>
<linearGradient id="paint1_linear_201_6783" x1="26.4155" y1="47.9942" x2="26.4155" y2="16.2351" gradientUnits="userSpaceOnUse">
<stop offset="0.303" stop-color="#473788"/>
<stop offset="0.872" stop-color="#2C2255"/>
</linearGradient>
<linearGradient id="paint2_linear_201_6783" x1="26.4155" y1="48.0003" x2="26.4155" y2="16.2362" gradientUnits="userSpaceOnUse">
<stop offset="0.303" stop-color="#473788"/>
<stop offset="0.863" stop-color="#2C2255"/>
</linearGradient>
</defs>
</svg>
