<svg width="128" height="128" viewBox="0 0 128 128" fill="none" xmlns="http://www.w3.org/2000/svg">
<path d="M3.14271 83.1649C4.36488 82.1197 5.35789 81.2488 6.12174 80.5521C6.88559 79.8554 7.54032 79.2239 8.08593 78.6579C8.63154 78.07 9.12259 77.4821 9.55908 76.8942C10.0174 76.3064 10.5521 75.6096 11.1632 74.804C11.7743 73.9984 12.5163 73.0187 13.3893 71.8647C14.2622 70.689 15.3971 69.2302 16.7939 67.4883C17.0776 67.0964 17.394 66.7154 17.7432 66.3453C18.0924 65.9751 18.4743 65.6485 18.889 65.3655C19.3255 65.0607 19.7947 64.8211 20.2967 64.647C20.8205 64.451 21.3988 64.353 22.0317 64.353C23.0793 64.353 23.8868 64.4728 24.4542 64.7123C25.0217 64.93 25.4363 65.2022 25.6982 65.5288C25.9601 65.8554 26.1129 66.2037 26.1565 66.5739C26.2002 66.9222 26.222 67.2271 26.222 67.4883C26.222 68.0109 26.0147 68.5879 25.6 69.2193C25.1853 69.8507 24.727 70.4603 24.2251 71.0482C23.7231 71.6361 23.243 72.1804 22.7847 72.6812C22.3482 73.1602 22.0972 73.5194 22.0317 73.7589C22.0317 74.4339 22.0754 75.0544 22.1627 75.6205C22.2718 76.1649 22.4027 76.7092 22.5555 77.2535C22.7301 77.776 22.9047 78.3421 23.0793 78.9518C23.2539 79.5397 23.4176 80.2255 23.5703 81.0093C23.7449 81.7932 23.8759 82.6967 23.9632 83.7201C24.0723 84.7434 24.1269 85.9518 24.1269 87.3453C24.9125 86.8227 25.7528 86.3546 26.6476 85.9409C27.5642 85.5054 28.5136 85.0591 29.4957 84.6019C30.4777 84.1446 31.4817 83.6439 32.5074 83.0995C33.555 82.5334 34.6026 81.8585 35.6501 81.0746L35.6829 88.3904C34.3298 89.4355 32.7584 90.4152 30.9688 91.3297C29.201 92.2442 27.335 93.0498 25.3708 93.7465C23.4285 94.4432 21.4534 94.9984 19.4455 95.4121C17.4595 95.804 15.5717 96 13.7821 96C12.4945 96 11.2941 95.8802 10.1811 95.6407C9.06803 95.4012 8.08593 95.0311 7.23478 94.5303C6.40546 94.0078 5.7289 93.3328 5.20512 92.5054C4.68133 91.6781 4.36488 90.6765 4.25575 89.5008C3.95021 89.5661 3.64467 89.6096 3.33913 89.6314C3.05541 89.6532 2.7717 89.6641 2.48798 89.6641C2.13879 89.6641 1.81142 89.6532 1.50588 89.6314C1.20034 89.6096 0.938448 89.5334 0.720205 89.4028C0.501961 89.2504 0.327366 89.0218 0.196419 88.7169C0.0654731 88.3904 0 87.9331 0 87.3453C0 86.8227 0.130946 86.3437 0.392839 85.9082C0.654731 85.451 0.960273 85.0482 1.30946 84.6998C1.65865 84.3515 2.00784 84.0467 2.35703 83.7854C2.70622 83.5241 2.96812 83.3173 3.14271 83.1649ZM7.33299 87.3453C7.59489 87.3453 7.8786 87.5086 8.18414 87.8351C8.51151 88.1617 8.88252 88.521 9.29719 88.9129C9.71185 89.3048 10.192 89.6641 10.7376 89.9907C11.2832 90.3173 11.9052 90.4806 12.6036 90.4806C13.4547 90.4806 14.1531 90.339 14.6987 90.056C15.2662 89.7729 15.7136 89.4028 16.0409 88.9456C16.3683 88.4666 16.5974 87.9222 16.7284 87.3126C16.8593 86.6812 16.9248 86.028 16.9248 85.353C16.9248 84.7652 16.8812 84.1664 16.7939 83.5568C16.7284 82.9471 16.6302 82.3701 16.4992 81.8258C16.3901 81.2597 16.2592 80.7372 16.1064 80.2582C15.9754 79.7574 15.8554 79.3328 15.7463 78.9844L7.33299 87.3453Z" fill="#3293D4"/>
<path d="M39.8404 95.7061C38.6619 95.7061 37.5598 95.1944 36.534 94.1711C35.5301 93.126 34.6462 91.7325 33.8824 89.9907C33.1403 88.2488 32.5511 86.2348 32.1146 83.9487C31.6999 81.6407 31.4926 79.2239 31.4926 76.6983C31.4926 74.7605 31.6344 72.6594 31.9182 70.395C32.2019 68.1089 32.6165 65.7574 33.1621 63.3406C33.7078 60.9238 34.3516 58.4961 35.0936 56.0575C35.8575 53.619 36.7086 51.2784 37.6471 49.0358C38.6073 46.7932 39.644 44.703 40.757 42.7652C41.8701 40.8056 43.0377 39.1073 44.2598 37.6703C45.482 36.2115 46.7587 35.0684 48.09 34.2411C49.4213 33.4137 50.7744 33 52.1494 33C53.0878 33 53.8626 33.2177 54.4737 33.6532C55.0847 34.0669 55.5649 34.6221 55.9141 35.3188C56.2633 36.0156 56.5033 36.8103 56.6343 37.703C56.787 38.5739 56.8634 39.4666 56.8634 40.381C56.8634 42.4277 56.6234 44.5179 56.1432 46.6516C55.6849 48.7636 55.052 50.8974 54.2445 53.0529C53.4588 55.1866 52.5422 57.3313 51.4946 59.4868C50.4471 61.6423 49.3558 63.7869 48.221 65.9207C47.0861 68.0327 45.9403 70.1229 44.7836 72.1913C43.6488 74.2379 42.5794 76.2411 41.5754 78.2006C41.4663 78.4183 41.3463 78.7014 41.2153 79.0498C41.1062 79.3981 40.9971 79.7792 40.888 80.1928C40.7789 80.5848 40.6697 81.0093 40.5606 81.4666C40.4515 81.9238 40.3642 82.3701 40.2987 82.8056V83.2628C40.2987 83.8289 40.3533 84.3841 40.4624 84.9285C40.5934 85.451 40.7461 85.93 40.9207 86.3655C41.0953 86.7792 41.2808 87.1166 41.4772 87.3779C41.6737 87.6174 41.8592 87.7372 42.0338 87.7372C42.4484 87.7372 42.9176 87.6501 43.4414 87.4759C43.987 87.3017 44.5545 87.0731 45.1437 86.79C45.7548 86.4852 46.3768 86.1477 47.0097 85.7776C47.6426 85.3857 48.2537 84.9938 48.843 84.6019C50.2179 83.6874 51.6583 82.6314 53.1642 81.4339L55.8486 88.2924C53.9062 89.6858 51.9857 90.9269 50.087 92.0155C49.2576 92.4728 48.3956 92.93 47.5008 93.3872C46.6278 93.8227 45.7439 94.2146 44.8491 94.563C43.9543 94.9114 43.0813 95.1944 42.2302 95.4121C41.379 95.6081 40.5824 95.7061 39.8404 95.7061ZM39.8731 69.5785C40.8552 67.8367 41.8919 65.8771 42.9831 63.6998C44.0962 61.5225 45.1437 59.2799 46.1258 56.972C47.1079 54.6641 47.9591 52.367 48.6793 50.0809C49.3995 47.7729 49.8578 45.6283 50.0542 43.647C50.0542 43.0156 50.0324 42.4821 49.9887 42.0467C49.9669 41.5894 49.8687 41.3608 49.6941 41.3608C49.0612 41.3608 48.3737 41.7745 47.6317 42.6019C46.9115 43.4075 46.1804 44.507 45.4384 45.9005C44.7182 47.2939 44.0198 48.916 43.3432 50.7667C42.6885 52.6174 42.0992 54.5879 41.5754 56.6781C41.0517 58.7683 40.637 60.9238 40.3315 63.1446C40.0259 65.3437 39.8731 67.4883 39.8731 69.5785Z" fill="#3293D4"/>
<path d="M71.3003 88.7496C70.5146 89.4681 69.5325 90.2411 68.354 91.0684C67.1973 91.874 65.9424 92.6252 64.5893 93.3219C63.2361 93.9969 61.8503 94.563 60.4317 95.0202C59.035 95.4774 57.7037 95.7061 56.4379 95.7061C55.303 95.7061 54.3427 95.5537 53.557 95.2488C52.7932 94.9222 52.1712 94.4759 51.691 93.9098C51.2109 93.3437 50.8617 92.6579 50.6435 91.8523C50.4471 91.0249 50.3488 90.1213 50.3488 89.1415C50.3488 87.7698 50.5016 86.1804 50.8072 84.3732C51.1345 82.5443 51.5274 80.661 51.9857 78.7232C52.444 76.7636 52.9241 74.8149 53.4261 72.8771C53.9499 70.9393 54.4082 69.154 54.801 67.521C54.9538 66.9549 55.2593 66.4759 55.7176 66.084C56.176 65.6703 56.6888 65.3437 57.2563 65.1042C57.8455 64.8429 58.4457 64.6579 59.0568 64.549C59.6897 64.4184 60.2571 64.353 60.7591 64.353C61.6757 64.353 62.2977 64.5272 62.6251 64.8756C62.9524 65.2022 63.1161 65.6485 63.1161 66.2146C63.1161 66.6936 63.007 67.3904 62.7887 68.3048C62.5705 69.1975 62.2977 70.2208 61.9703 71.3748C61.643 72.507 61.2938 73.7372 60.9228 75.0653C60.5517 76.3717 60.2026 77.689 59.8752 79.0171C59.5478 80.3235 59.275 81.6081 59.0568 82.8709C58.8385 84.112 58.7294 85.2333 58.7294 86.2348C58.7294 87.2146 58.8385 87.9984 59.0568 88.5863C59.275 89.1524 59.7224 89.4355 60.399 89.4355C61.1847 89.4355 62.0576 89.1633 63.0179 88.619C63.9782 88.0746 64.9494 87.4215 65.9315 86.6594C66.9136 85.8756 67.8738 85.07 68.8123 84.2426C69.7507 83.4152 70.5801 82.7076 71.3003 82.1197V88.7496ZM56.667 55.1757C56.667 54.675 56.7761 54.1089 56.9944 53.4774C57.2126 52.846 57.5618 52.2582 58.0419 51.7138C58.5439 51.1477 59.1986 50.6796 60.0061 50.3095C60.8355 49.9176 61.8612 49.7216 63.0834 49.7216C63.8472 49.7216 64.5674 49.8087 65.244 49.9829C65.9205 50.1571 66.5098 50.4292 67.0118 50.7994C67.5137 51.1477 67.9066 51.6159 68.1903 52.2037C68.4958 52.7916 68.6486 53.4883 68.6486 54.2939C68.6486 55.0342 68.5286 55.7527 68.2885 56.4495C68.0484 57.1462 67.6665 57.7667 67.1427 58.311C66.6189 58.8554 65.9533 59.3017 65.1458 59.6501C64.3601 59.9767 63.4107 60.14 62.2977 60.14C60.3772 60.14 58.9586 59.6936 58.0419 58.8009C57.1253 57.8865 56.667 56.6781 56.667 55.1757Z" fill="#3293D4"/>
<path d="M79.1243 95.7061C77.1165 95.7061 75.3487 95.3359 73.821 94.5956C72.3151 93.8554 71.0493 92.8647 70.0235 91.6236C68.9978 90.3826 68.223 88.9456 67.6992 87.3126C67.1754 85.6796 66.9136 83.9813 66.9136 82.2177C66.9136 80.9549 67.0445 79.6376 67.3064 78.2659C67.5683 76.8942 67.9502 75.5552 68.4522 74.2488C68.976 72.9207 69.6089 71.6579 70.3509 70.4603C71.1147 69.2628 71.9877 68.2177 72.9698 67.325C73.9737 66.4106 75.0868 65.6921 76.309 65.1695C77.5311 64.6252 78.8733 64.353 80.3356 64.353C81.5795 64.353 82.7253 64.549 83.7729 64.9409C84.8423 65.311 85.748 65.8336 86.49 66.5086C87.2539 67.1835 87.8431 67.9891 88.2578 68.9253C88.6943 69.8398 88.9125 70.8305 88.9125 71.8974C88.9125 72.6376 88.8143 73.367 88.6179 74.0855C88.4215 74.804 88.1269 75.4572 87.734 76.0451C87.363 76.6112 86.9047 77.0684 86.3591 77.4168C85.8135 77.7652 85.2024 77.9393 84.5258 77.9393C83.5001 77.9393 82.8235 77.6672 82.4962 77.1229C82.1906 76.5785 82.0379 75.8274 82.0379 74.8694C82.0379 74.4774 82.0488 74.0638 82.0706 73.6283C82.1142 73.1928 82.1361 72.8009 82.1361 72.4526C82.1361 71.93 82.0815 71.4946 81.9724 71.1462C81.8633 70.7978 81.6232 70.6236 81.2522 70.6236C80.3574 70.6236 79.5935 70.8414 78.9606 71.2768C78.3277 71.6905 77.7821 72.2457 77.3238 72.9425C76.8873 73.6174 76.5381 74.3904 76.2762 75.2613C76.0143 76.1104 75.807 76.9596 75.6542 77.8087C75.5015 78.6579 75.4032 79.4743 75.3596 80.2582C75.3159 81.0202 75.2941 81.6625 75.2941 82.1851C75.2941 82.9689 75.3596 83.7854 75.4905 84.6345C75.6433 85.4837 75.9161 86.2675 76.309 86.986C76.7018 87.6827 77.2365 88.2706 77.913 88.7496C78.5896 89.2068 79.4626 89.4355 80.532 89.4355C81.5795 89.4355 82.7362 89.1197 84.002 88.4883C85.2679 87.8351 86.5337 87.0187 87.7995 86.0389C89.0871 85.0591 90.3093 83.9813 91.466 82.8056C92.6227 81.6299 93.6157 80.5194 94.445 79.4743L96.7038 83.2628C95.067 85.5925 93.2992 87.6718 91.4005 89.5008C90.593 90.2846 89.7091 91.0467 88.7489 91.7869C87.8104 92.5272 86.8174 93.1913 85.7698 93.7792C84.7441 94.3453 83.6638 94.8134 82.5289 95.1835C81.4159 95.5319 80.281 95.7061 79.1243 95.7061Z" fill="#3293D4"/>
<path d="M103.611 77.4495C104.397 76.4479 105.259 75.3484 106.197 74.1509C107.136 72.9533 108.053 71.8103 108.947 70.7216C109.864 69.633 110.693 68.6641 111.435 67.8149C112.199 66.9658 112.799 66.3888 113.236 66.084C113.912 65.605 114.742 65.2022 115.724 64.8756C116.706 64.5272 117.797 64.353 118.997 64.353C119.609 64.353 120.187 64.4946 120.732 64.7776C121.3 65.0607 121.791 65.4635 122.206 65.986C122.62 66.5086 122.948 67.14 123.188 67.8802C123.428 68.6205 123.548 69.4479 123.548 70.3624C123.548 71.2551 123.33 72.1586 122.893 73.0731C122.457 73.9658 121.911 74.8694 121.256 75.7838C120.602 76.6983 119.892 77.6128 119.128 78.5272C118.365 79.4417 117.655 80.367 117.001 81.3033C116.346 82.2177 115.8 83.1322 115.364 84.0467C114.927 84.9611 114.709 85.8756 114.709 86.79C114.709 87.5739 114.894 88.14 115.265 88.4883C115.658 88.8149 116.258 88.9782 117.066 88.9782C117.502 88.9782 117.972 88.8367 118.474 88.5537C118.997 88.2488 119.532 87.8569 120.078 87.3779C120.623 86.8989 121.169 86.3655 121.715 85.7776C122.282 85.1897 122.817 84.591 123.319 83.9813C123.842 83.3717 124.334 82.7947 124.792 82.2504C125.25 81.6843 125.665 81.2053 126.036 80.8134L128 88.8149C127.323 89.7947 126.461 90.7092 125.414 91.5583C124.388 92.3857 123.264 93.1151 122.042 93.7465C120.842 94.3561 119.587 94.8351 118.277 95.1835C116.99 95.5319 115.746 95.7061 114.545 95.7061C112.974 95.7061 111.686 95.521 110.682 95.1509C109.7 94.7589 108.925 94.2473 108.358 93.6159C107.791 92.9844 107.398 92.2768 107.18 91.493C106.983 90.6874 106.885 89.86 106.885 89.0109C106.885 88.5101 106.939 87.9005 107.049 87.182C107.18 86.4417 107.409 85.6143 107.736 84.6998C108.085 83.7854 108.565 82.7838 109.176 81.6952C109.788 80.5848 110.584 79.3981 111.566 78.1353C111.959 77.7434 112.319 77.395 112.647 77.0902C112.974 76.7636 113.258 76.4806 113.498 76.2411C113.738 75.9798 113.923 75.7403 114.054 75.5225C114.185 75.3048 114.251 75.0762 114.251 74.8367C114.251 74.3795 114.163 74.0093 113.989 73.7263C113.836 73.4432 113.607 73.3017 113.301 73.3017C112.93 73.3017 112.45 73.5412 111.861 74.0202C111.272 74.4992 110.628 75.3375 109.929 76.535L100.305 93.3872C99.8029 94.2582 99.2791 94.8678 98.7335 95.2162C98.2097 95.5428 97.5986 95.7061 96.9003 95.7061C95.9618 95.7061 95.2198 95.5101 94.6742 95.1182C94.1286 94.7045 93.7139 94.1602 93.4302 93.4852C93.1465 92.7885 92.961 91.9938 92.8737 91.1011C92.8082 90.1866 92.7754 89.2177 92.7754 88.1944C92.7754 86.9533 92.8191 85.3095 92.9064 83.2628C92.9937 81.2162 93.1246 78.9736 93.2992 76.535C93.4738 74.0746 93.703 71.5054 93.9867 68.8274C94.2922 66.1493 94.6523 63.5474 95.067 61.0218C95.2198 60.1291 95.4162 59.0513 95.6563 57.7885C95.8963 56.5039 96.191 55.1322 96.5402 53.6734C96.9112 52.2146 97.3367 50.7014 97.8169 49.1337C98.3188 47.5443 98.8863 46.0093 99.5192 44.5288C100.174 43.0264 100.905 41.6003 101.713 40.2504C102.52 38.9005 103.426 37.7247 104.43 36.7232C105.434 35.6998 106.536 34.8942 107.736 34.3064C108.936 33.7185 110.246 33.4246 111.664 33.4246C112.777 33.4246 113.694 33.6096 114.414 33.9798C115.135 34.3281 115.702 34.8289 116.117 35.4821C116.553 36.1135 116.859 36.8756 117.033 37.7683C117.208 38.661 117.295 39.6299 117.295 40.675C117.295 42.5257 117.055 44.5179 116.575 46.6516C116.117 48.7854 115.527 50.93 114.807 53.0855C114.087 55.2193 113.301 57.2986 112.45 59.3235C111.599 61.3484 110.781 63.1773 109.995 64.8103C109.209 66.4432 108.511 67.8258 107.9 68.958C107.31 70.0684 106.918 70.7978 106.721 71.1462L102.826 76.9596L103.611 77.4495ZM110.028 40.7729C109.329 40.7729 108.729 40.9907 108.227 41.4261C107.725 41.8616 107.245 42.4821 106.787 43.2877C106.35 44.0933 105.903 45.0731 105.445 46.2271C105.008 47.381 104.506 48.6656 103.939 50.0809C103.589 51.3219 103.262 52.6065 102.957 53.9347C102.673 55.2628 102.411 56.591 102.171 57.9191C101.931 59.2255 101.713 60.521 101.516 61.8056C101.342 63.0902 101.189 64.2986 101.058 65.4308C100.73 68.1089 100.469 70.7434 100.272 73.3344C100.752 71.8974 101.276 70.3406 101.843 68.6641C102.411 66.9658 102.967 65.3002 103.513 63.6672C104.08 62.0124 104.604 60.4557 105.084 58.9969C105.586 57.5163 106.001 56.2644 106.328 55.2411C106.481 54.7621 106.699 54.1633 106.983 53.4448C107.267 52.7263 107.572 51.9533 107.9 51.126C108.227 50.2986 108.554 49.4386 108.882 48.5459C109.209 47.6532 109.504 46.7932 109.766 45.9658C110.049 45.1384 110.279 44.3655 110.453 43.647C110.628 42.9285 110.715 42.3188 110.715 41.818C110.715 41.1213 110.486 40.7729 110.028 40.7729Z" fill="#3293D4"/>
</svg>
