<svg width="48" height="48" viewBox="0 0 48 48" fill="none" xmlns="http://www.w3.org/2000/svg">
<path d="M23.9999 28.2751C26.3609 28.2751 28.2749 26.3611 28.2749 24.0001C28.2749 21.6391 26.3609 19.7251 23.9999 19.7251C21.6388 19.7251 19.7249 21.6391 19.7249 24.0001C19.7249 26.3611 21.6388 28.2751 23.9999 28.2751Z" fill="#61DAFB"/>
<path d="M40.2374 16.9501C39.4124 16.6501 38.5499 16.3501 37.6499 16.0876C37.8749 15.1876 38.0624 14.2876 38.2124 13.4251C38.9999 8.4751 38.1374 4.9876 35.7374 3.6376C35.0249 3.2251 34.2374 3.0376 33.3374 3.0376C30.7124 3.0376 27.3749 4.9876 23.9999 8.2501C20.6249 4.9876 17.2874 3.0376 14.6624 3.0376C13.7624 3.0376 12.9749 3.2251 12.2624 3.6376C9.8624 5.0251 8.9999 8.5126 9.7874 13.4251C9.9374 14.2876 10.1249 15.1876 10.3499 16.0876C9.4499 16.3501 8.5874 16.6126 7.7624 16.9501C3.0749 18.7501 0.524902 21.2251 0.524902 24.0001C0.524902 26.7751 3.1124 29.2501 7.7624 31.0501C8.5874 31.3501 9.4499 31.6501 10.3499 31.9126C10.1249 32.8126 9.9374 33.7126 9.7874 34.5751C8.9999 39.5251 9.8624 43.0126 12.2624 44.3626C12.9749 44.7751 13.7624 44.9626 14.6624 44.9626C17.3249 44.9626 20.6624 43.0126 23.9999 39.7501C27.3749 43.0126 30.7124 44.9626 33.3374 44.9626C34.2374 44.9626 35.0249 44.7751 35.7374 44.3626C38.1374 42.9751 38.9999 39.4876 38.2124 34.5751C38.0624 33.7126 37.8749 32.8126 37.6499 31.9126C38.5499 31.6501 39.4124 31.3876 40.2374 31.0501C44.9249 29.2501 47.4749 26.7751 47.4749 24.0001C47.4749 21.2251 44.9249 18.7501 40.2374 16.9501ZM34.6874 5.5126C36.2249 6.4126 36.7499 9.1876 36.1124 13.1251C35.9999 13.9126 35.8124 14.7376 35.5874 15.6001C33.6374 15.1501 31.5749 14.8501 29.3999 14.6626C28.1249 12.8626 26.8124 11.2501 25.4999 9.7876C28.2749 7.0501 31.0874 5.1751 33.3749 5.1751C33.8624 5.1751 34.3124 5.2876 34.6874 5.5126ZM30.4874 27.7501C29.8124 28.9501 29.0249 30.1501 28.1999 31.3501C26.8124 31.4626 25.4249 31.5001 23.9999 31.5001C22.5374 31.5001 21.1499 31.4626 19.7999 31.3501C18.9749 30.1501 18.2249 28.9501 17.5499 27.7501C16.8374 26.5126 16.1624 25.2376 15.5624 24.0001C16.1624 22.7626 16.8374 21.4876 17.5499 20.2501C18.2249 19.0501 19.0124 17.8501 19.8374 16.6501C21.2249 16.5376 22.6124 16.5001 24.0374 16.5001C25.4999 16.5001 26.8874 16.5376 28.2374 16.6501C29.0624 17.8501 29.8124 19.0501 30.4874 20.2501C31.1999 21.4876 31.8749 22.7626 32.4749 24.0001C31.8374 25.2376 31.1999 26.4751 30.4874 27.7501ZM33.5999 26.5126C34.1624 27.8251 34.6124 29.1001 35.0249 30.3751C33.7499 30.6751 32.3999 30.9001 30.9749 31.0876C31.4249 30.3751 31.9124 29.6251 32.3249 28.8376C32.7749 28.0501 33.1874 27.2626 33.5999 26.5126ZM23.9999 36.6751C23.0999 35.7001 22.2374 34.6501 21.4124 33.5626C22.2749 33.6001 23.1374 33.6376 23.9999 33.6376C24.8624 33.6376 25.7249 33.6001 26.5874 33.5626C25.7624 34.6501 24.8999 35.7001 23.9999 36.6751ZM17.0249 31.0501C15.5999 30.8626 14.2499 30.6376 12.9749 30.3376C13.3874 29.1001 13.8374 27.7876 14.3999 26.4751C14.8124 27.2251 15.2249 28.0126 15.6749 28.7626C16.1249 29.5876 16.5749 30.3001 17.0249 31.0501ZM14.3999 21.4876C13.8374 20.1751 13.3874 18.9001 12.9749 17.6251C14.2499 17.3251 15.5999 17.1001 17.0249 16.9126C16.5749 17.6251 16.0874 18.3751 15.6749 19.1626C15.2249 19.9501 14.8124 20.7376 14.3999 21.4876ZM23.9999 11.3251C24.8999 12.3001 25.7624 13.3501 26.5874 14.4376C25.7249 14.4001 24.8624 14.3626 23.9999 14.3626C23.1374 14.3626 22.2749 14.4001 21.4124 14.4376C22.2374 13.3501 23.0999 12.3001 23.9999 11.3251ZM32.3249 19.2001L30.9749 16.9501C32.3999 17.1376 33.7499 17.3626 35.0249 17.6626C34.6124 18.9001 34.1624 20.2126 33.5999 21.5251C33.1874 20.7376 32.7749 19.9501 32.3249 19.2001ZM11.8874 13.1251C11.2499 9.1876 11.7749 6.4126 13.3124 5.5126C13.6874 5.2876 14.1374 5.1751 14.6249 5.1751C16.8749 5.1751 19.6874 7.0126 22.4999 9.7876C21.1874 11.2126 19.8749 12.8626 18.5999 14.6626C16.4249 14.8501 14.3624 15.1876 12.4124 15.6001C12.1874 14.7376 12.0374 13.9126 11.8874 13.1251ZM2.6249 24.0001C2.6249 22.2376 4.7624 20.3626 8.5124 18.9751C9.2624 18.6751 10.0874 18.4126 10.9124 18.1876C11.5124 20.0626 12.2624 22.0501 13.1624 24.0376C12.2624 26.0251 11.4749 27.9751 10.9124 29.8501C5.7374 28.3501 2.6249 26.1001 2.6249 24.0001ZM13.3124 42.4876C11.7749 41.5876 11.2499 38.8126 11.8874 34.8751C11.9999 34.0876 12.1874 33.2626 12.4124 32.4001C14.3624 32.8501 16.4249 33.1501 18.5999 33.3376C19.8749 35.1376 21.1874 36.7501 22.4999 38.2126C19.7249 40.9501 16.9124 42.8251 14.6249 42.8251C14.1374 42.8251 13.6874 42.7126 13.3124 42.4876ZM36.1124 34.8751C36.7499 38.8126 36.2249 41.5876 34.6874 42.4876C34.3124 42.7126 33.8624 42.8251 33.3749 42.8251C31.1249 42.8251 28.3124 40.9876 25.4999 38.2126C26.8124 36.7876 28.1249 35.1376 29.3999 33.3376C31.5749 33.1501 33.6374 32.8126 35.5874 32.4001C35.8124 33.2626 35.9624 34.0876 36.1124 34.8751ZM39.4874 29.0251C38.7374 29.3251 37.9124 29.5876 37.0874 29.8126C36.4874 27.9376 35.7374 25.9501 34.8374 23.9626C35.7374 21.9751 36.5249 20.0251 37.0874 18.1501C42.2624 19.6501 45.3749 21.9001 45.3749 24.0001C45.3749 25.7626 43.1999 27.6376 39.4874 29.0251Z" fill="#61DAFB"/>
</svg>
