<svg width="48" height="48" viewBox="0 0 48 48" fill="none" xmlns="http://www.w3.org/2000/svg">
<g clip-path="url(#clip0_201_6879)">
<path d="M8.50012 0.600098H39.4999C44.2001 0.600098 48 4.39997 48 9.10022V38.9C48 43.6002 44.2001 47.4001 39.4999 47.4001H8.50012C3.79987 47.4001 0 43.6002 0 38.9V9.10022C0 4.39997 3.79987 0.600098 8.50012 0.600098Z" fill="#001E36"/>
<path d="M17.2002 12.5C16.6002 12.5 16.0002 12.5 15.3803 12.5203C14.76 12.5401 14.1799 12.5401 13.6399 12.5604C13.0999 12.5802 12.6 12.5802 12.12 12.6001C11.6599 12.62 11.34 12.62 10.9999 12.62C10.86 12.62 10.8 12.6999 10.8 12.8401V33.4201C10.8 33.6001 10.8799 33.6804 11.04 33.6804H14.9202C15.06 33.6601 15.1602 33.5401 15.1399 33.4002V26.9802C15.5198 26.9802 15.7999 26.9802 16.0002 27.0001C16.2 27.02 16.5199 27.02 16.9999 27.02C18.6402 27.02 20.1402 26.84 21.4999 26.3401C22.8 25.8601 23.9202 25.0201 24.72 23.9C25.5199 22.7802 25.92 21.3601 25.92 19.64C25.92 18.74 25.7603 17.8801 25.4603 17.0401C25.1426 16.1842 24.6446 15.4067 24 14.7601C23.2395 14.0212 22.324 13.4609 21.3199 13.1199C20.1998 12.6999 18.84 12.5 17.2002 12.5ZM17.6464 16.4394C18.3589 16.4529 19.0527 16.5774 19.6999 16.8399C20.28 17.06 20.76 17.4601 21.1002 17.9799C21.4196 18.5176 21.5792 19.1352 21.5603 19.7604C21.5603 20.6401 21.36 21.3204 20.94 21.8202C20.4998 22.3201 19.9399 22.7004 19.3002 22.8804C18.5599 23.1204 17.7799 23.24 16.9999 23.24H15.9398C15.6998 23.24 15.4403 23.2201 15.1602 23.2002V16.4802C15.3 16.46 15.5802 16.4401 15.9803 16.4604C16.3602 16.4401 16.8199 16.4401 17.34 16.4401C17.4424 16.4375 17.5448 16.4371 17.6464 16.4394ZM34.4202 17.4605C33 17.4605 31.8199 17.6802 30.8802 18.1602C30.0203 18.5604 29.2801 19.2001 28.7802 20C28.3403 20.7402 28.0999 21.56 28.0999 22.4202C28.0828 23.1278 28.2408 23.8286 28.5601 24.4602C28.9342 25.1328 29.4535 25.7135 30.0803 26.1601C30.9602 26.7618 31.9149 27.2459 32.9202 27.6001C33.9 27.98 34.5601 28.28 34.8803 28.5399C35.2002 28.8001 35.3603 29.06 35.3603 29.3401C35.3603 29.7001 35.1402 30.0402 34.8203 30.1801C34.4603 30.3601 33.9203 30.4602 33.1602 30.4602C32.3603 30.4602 31.5601 30.3601 30.7999 30.1602C29.9272 29.9651 29.0904 29.6345 28.32 29.1804C28.26 29.1402 28.2001 29.1204 28.14 29.1605C28.08 29.2002 28.0602 29.2801 28.0602 29.3401V32.8201C28.0403 32.9802 28.14 33.1201 28.2803 33.2C28.9289 33.503 29.6149 33.7183 30.3203 33.8401C31.2203 34.0201 32.1199 34.1 33.0398 34.1C34.4798 34.1 35.6802 33.8802 36.6601 33.4602C37.5601 33.1002 38.34 32.4804 38.8999 31.6801C39.4241 30.8933 39.6961 29.9655 39.6799 29.0202C39.6995 28.3062 39.5415 27.5984 39.2202 26.9604C38.8399 26.2801 38.2999 25.7203 37.6399 25.3003C36.6743 24.694 35.6406 24.2038 34.5601 23.84C34.0775 23.6404 33.6037 23.4202 33.1399 23.18C32.88 23.0401 32.64 22.8601 32.46 22.64C32.34 22.4799 32.2602 22.3002 32.2602 22.1202C32.2602 21.9402 32.3202 21.7404 32.4199 21.5802C32.5602 21.3804 32.7799 21.2401 33.0398 21.1801C33.42 21.0804 33.84 21.02 34.2398 21.0399C34.9999 21.0399 35.7398 21.14 36.48 21.3001C37.1603 21.44 37.8001 21.6601 38.4001 21.9804C38.4799 22.0201 38.58 22.0201 38.76 21.9804C38.7914 21.9573 38.8168 21.9271 38.8342 21.8923C38.8516 21.8575 38.8605 21.819 38.8602 21.7801V18.5202C38.8602 18.44 38.8399 18.3601 38.82 18.2803C38.7799 18.2004 38.7 18.1201 38.6202 18.1002C38.0686 17.8746 37.4906 17.72 36.9001 17.6401C36.0788 17.5205 35.2501 17.4607 34.4202 17.4605Z" fill="#31A8FF"/>
</g>
<defs>
<clipPath id="clip0_201_6879">
<rect width="48" height="48" fill="white"/>
</clipPath>
</defs>
</svg>
