<svg width="48" height="48" viewBox="0 0 48 48" fill="none" xmlns="http://www.w3.org/2000/svg">
<g clip-path="url(#clip0_201_6890)">
<path d="M8.5125 0.600098H39.525C44.2125 0.600098 48.0375 4.3876 48.0375 9.1126V38.9251C48.0375 43.6126 44.25 47.4376 39.525 47.4376H8.5125C3.7875 47.4001 0 43.6126 0 38.8876V9.1126C0 4.3876 3.7875 0.600098 8.5125 0.600098Z" fill="#330000"/>
<path d="M23.2126 28.6123H15.7501L14.2501 33.2998C14.2126 33.4873 14.0626 33.5998 13.8751 33.5623H10.1251C9.90012 33.5623 9.86262 33.4498 9.90012 33.1873L16.3501 14.6623C16.4251 14.4748 16.4626 14.2498 16.5376 13.9873C16.6126 13.5748 16.6501 13.1248 16.6501 12.6748C16.6126 12.5623 16.7251 12.4873 16.8001 12.4498H21.9751C22.1251 12.4498 22.2001 12.5248 22.2376 12.5998L29.5501 33.1873C29.6251 33.4123 29.5501 33.5248 29.3626 33.5248H25.1626C25.0126 33.5623 24.9001 33.4498 24.8251 33.2998L23.2126 28.6123ZM16.9126 24.5248H21.9751C21.8626 24.1123 21.7126 23.5873 21.5251 23.0998C21.3376 22.5748 21.1501 21.9748 21.0001 21.3748C20.8126 20.7373 20.6251 20.1373 20.4376 19.5373C20.2501 18.8998 20.0626 18.3373 19.9126 17.7748C19.7626 17.2123 19.6126 16.6873 19.4626 16.1998H19.4251C19.2376 17.0623 19.0126 17.9248 18.7501 18.7873C18.4501 19.7623 18.1501 20.7373 17.8126 21.7498C17.5126 22.7623 17.2126 23.6998 16.9126 24.5248ZM34.0126 16.0123C33.3376 16.0498 32.7001 15.7873 32.2501 15.2998C31.8001 14.8123 31.5376 14.1373 31.5751 13.4623C31.5376 12.7873 31.8001 12.1498 32.2876 11.6998C32.7751 11.2498 33.4126 10.9873 34.0501 10.9873C34.8376 10.9873 35.4376 11.2123 35.8876 11.6998C36.3376 12.1873 36.5626 12.8248 36.5626 13.4623C36.6001 14.1373 36.3376 14.8123 35.8501 15.2998C35.3626 15.7873 34.6876 16.0498 34.0126 16.0123ZM31.7626 33.3748V17.9623C31.7626 17.7748 31.8376 17.6998 32.0251 17.6998H36.0001C36.1876 17.6998 36.2626 17.8123 36.2626 17.9623V33.3748C36.2626 33.5998 36.1876 33.7123 36.0001 33.7123H32.0626C31.8751 33.6748 31.7626 33.5623 31.7626 33.3748Z" fill="#FF9A00"/>
</g>
<defs>
<clipPath id="clip0_201_6890">
<rect width="48" height="48" fill="white"/>
</clipPath>
</defs>
</svg>
